<svg xmlns="http://www.w3.org/2000/svg" xmlns:xlink="http://www.w3.org/1999/xlink" viewBox="-0.764 -0.963 127 128">
<style type="text/css"><![CDATA[
.st1{fill:none;stroke:#fff;stroke-width:1.289;}
.st2{fill:#fff;}
.st3{fill:none;stroke:#fff;stroke-width:1.289;stroke-miterlimit:1;}
.st4{fill:#9C2221;}
.st6{fill:none;stroke:#fff;stroke-width:0.461;stroke-miterlimit:1;}
]]></style>
<rect x="0.397" y="0.397" fill="#9E3127" stroke="#fff" stroke-width="0.795" width="124.728" height="126.166"/>
<path class="st2" d="M77.11,40.641c-0.419,0.098-1.082-0.167-0.99-0.763c0.067-0.436,0.564-0.509,1.011-0.44
	C76.745,39.988,77.916,40.451,77.11,40.641"/>
<path class="st2" d="M66.338,30.417l-1.719,1.772l-0.912,1.771l-0.645-1.396l-1.288-1.529l-2.121-1.665l-1.611-0.913
	c-0.599,0.326-1.503,1.209-1.648,1.938c-0.11,0.547-1.034-0.014-1.308,0.306c-0.394,0.456-0.383,1.221-0.579,1.843
	c-0.235,0.743-1.121,0.752-1.861,0.881c1.354,0.462,2.998-0.684,4.151-1.388c1.195-0.728,2.025,0.356,2.668,1.42
	c0.299,0.496-0.184,0.906-0.591,1.257c0.143,0.143,0.399,0.315,0.372,0.413c-0.377,1.365,0.917,2.751-0.044,3.789
	c-0.113,0.122-0.036-0.81-0.263-0.663c-1.156,0.738-1.368,2.104-2.049,3.219c-0.498,0.815-0.513,2.033-0.378,3.121
	c0.361-0.076,0.538,0.273,0.578,0.445c0.361,1.576-0.177,3.557,0.925,4.71c-0.269-0.983-0.828-1.956-0.215-3.007
	c0.846,0.913,0.652,2.198,1.41,3.287c0.282,0.406-0.054,1.142,0.167,1.618c0.523,1.124,1.857,1.297,2.797,1.796
	c1.529,0.811,2.905,2.192,3.517,4.203c0.066,0.212,0.533,0.65,0.915,0.907c-0.547,0.149-0.382,0.814-0.75,1.184
	c-0.328,0.33,0.067,1.261-0.198,1.777c-0.347,0.675-0.523,1.43-1.091,2.076c-0.327,0.372-0.108,1.191-0.108,1.836
	c1.245-0.078,0.857,1.228,1.454,1.771c0.146,0.133-0.034,0.56,0.091,0.783c0.641,1.15,2.291,1.597,2.5,2.649
	c0.573,2.877,0.588,5.785,1.412,8.447c0.334,1.074,0.795,2.292,1.176,3.469c0.446,1.385,2.035,2.37,3.677,1.994
	c-0.681,0.025-1.32-0.384-1.386-0.875c-0.268-2.017-1.17-4.677,1.338-5.881c0.084-0.039-0.321-0.518-0.308-0.757
	c0.027-0.411,0.696-0.326,0.923-0.521c0.426-0.37,0.655-0.971,1.064-1.483c0.477-0.597,0.064-1.646,0.441-2.198
	c0.453-0.663,1.697-0.175,1.904-1.19c0.252-1.23,0.235-2.54,0.705-3.55c0.371-0.795,1.371-1.628,1.053-2.639
	c-0.422-1.341-1.791-1.758-3.156-1.807c-0.223-0.008-0.4-0.415-0.662-0.547c-0.174-0.086-0.459,0.044-0.604-0.064
	c-0.478-0.357-0.65-0.989-0.992-1.372c-1.06-1.187-2.582-1.831-4.017-2.592c-0.455-0.242-1.101-0.045-1.673-0.099
	c-0.346-0.033-0.098-0.61-0.43-0.592c-0.616,0.037-0.562,0.946-1.285,0.598c-0.379-0.183-0.176-0.554-0.221-0.847
	c-0.805,0.169-1.363,0.131-1.642-0.672c-0.169-0.488-0.423-1.085-0.351-1.444c0.281-1.393-0.338-2.085-1.103-2.938
	c-0.42-0.468,0.22-1.274,0.733-1.819c-0.881-0.759-1.241,0.76-1.948,1.038c-0.762,0.299-1.424-0.506-1.569-1.072
	c-0.478-1.864,0.986-3.343,2.503-4.389c0.045-0.033,0.336,0.43,0.598,0.512c0.515,0.163,0.66-0.904,1.249-0.557
	c0.827,0.488,1.29,1.361,1.099,2.32c0.145,0,0.375,0.021,0.383-0.011c0.142-0.637-0.168-1.424,0.155-1.839
	c0.675-0.863,1.909-1.448,2.272-2.314c0.369-0.88,1.152-1.538,1.769-2.447c0.097-0.14,0.593,0.051,0.743-0.096
	c0.559-0.54,0.812-1.485,1.764-1.428c0.334,0.021,0.297,0.67,0.629,0.565c0.473-0.151,0.896-0.491,1.307-0.808
	c-0.295-0.044-0.764,0.158-0.799-0.22c-0.068-0.719-1.276-0.953-0.815-1.388c1.004-0.949,3.215,0.358,3.543-1.229
	c0.176-0.857-0.681-1.865-0.642-2.962c-0.33,0.057-0.58,0.245-0.867,0.413c-0.188,0.11-0.397-0.055-0.379-0.192
	c0.127-0.987-0.598-2.237-1.465-1.785c-1.076,0.562-0.83,2.242-2.119,3.213c-0.291,0.219-0.002,1.208-0.571,1.513
	c-0.238,0.128-0.747-0.162-0.74-0.365c0.04-1.203-0.803-1.822-1.471-2.674c-0.713-0.911,0.633-1.447,1.319-2.12
	c0.14-0.137-0.33-0.599-0.274-0.763c0.237-0.703,0.953,0.31,1.387-0.062c0.14-0.12-0.038-0.295-0.188-0.398
	c0.574-0.579,1.193,0.369,1.688-0.038c0.497-0.412,1.325-0.388,1.467-1.051c0.06-0.271-0.343-0.184-0.576-0.2
	c0.059,0.209-0.053,0.376-0.219,0.402c-1.636,0.261-0.234-1.813-1.115-2.491c-0.168-0.128-0.777-0.182-0.721,0.14
	c0.131,0.752,0.342,1.943-0.326,2.042c-1.189,0.175-2.424,0.133-3.623,0.022l-1.029-0.651L66.338,30.417"/>
<path class="st2" d="M78.028,30.187c0.229,0.595,0.774,1.133,0.735,1.729c-0.034,0.524-0.645,0.24-1.024,0.146
	c-0.878-0.218-0.022,1.76-0.989,1.433c-0.636-0.215-0.689-1.165-1.554-1.358c0.653,0.088,1.089-0.357,1.247-0.872
	c0.08-0.259,0.21-0.735-0.18-0.792c-0.894-0.129-1.104-0.786-1.463-1.363c-0.101-0.161-0.088-0.526-0.006-0.564
	c0.748-0.339,0.696,0.606,1.047,1.015c0.225-0.726,0.854-0.466,1.502-0.645C77.438,29.405,77.85,29.722,78.028,30.187"/>
<path class="st2" d="M85.918,33.387c-0.406,0.191-1.101,0.033-1.143-0.201c-0.141-0.785,0.906-0.326,1.375-0.621
	C86.163,32.872,86.207,33.25,85.918,33.387"/>
<path class="st2" d="M86.35,37.948c0.914,1.019-0.619,1.116-1.273,1.275c0.918-0.808-0.059-2.003,0.43-3.008
	c0.229,0.536,0.483,0.88,0.478,1.504C85.982,37.791,86.248,37.835,86.35,37.948"/>
<path class="st2" d="M83.812,37.94c0.102-0.406,0.558-0.273,0.836-0.437c-0.093,0.428,0.266,0.975-0.233,1.258
	c-0.166,0.096-0.498,0.103-0.578-0.005C83.692,38.566,83.74,38.218,83.812,37.94"/>
<path class="st2" d="M69.387,52.737c-0.184,0.11-0.344-0.035-0.403-0.204c-0.045-0.129-0.054-0.356,0.004-0.386
	c0.231-0.116,0.646-0.136,0.791,0.01C69.989,52.371,69.616,52.598,69.387,52.737"/>
<path class="st2" d="M67.682,51.451c-0.666-0.104-0.943-0.968-1.719-0.846c1.17-0.648,1.562,1.04,2.576,0.859
	C68.252,51.465,67.969,51.494,67.682,51.451"/>
<path class="st2" d="M55.223,65.425c-0.682-0.586-1.239-0.844-2.191-0.593c-0.393,0.103-0.546-0.729-0.697-1.314
	c-0.19-0.729-1.382-0.639-1.701-1.18c-0.188-0.318-0.617-0.873-0.351-1.424c0.763,0.487,1.337,1.988,2.148,0.645
	c0.215,0.215,0.397,0.533,0.657,0.589C54.637,62.476,55.71,63.923,55.223,65.425"/>
<path class="st2" d="M52.853,68.215c0.183-0.493,0.102-1.055,0.438-1.502c0.218,2.007,1.115,3.768,1.492,5.802
	c0.193,1.047,0.056,2.172-0.381,2.897c-0.922,1.529-2.186,2.807-3.739,3.902c-0.301,0.213-0.873,0.2-1.199,0.005
	c-1.064-0.631-0.171-2.279-1.169-2.842c-0.559-0.314-1.237-0.843-1.848-0.651c-1.312,0.408-2.547,0.608-3.895,0.553
	c-0.052-2.012-0.497-4.316,1.38-5.432c1.494-0.888,2.576-1.957,3.757-3.179c0.423-0.438,0.947,0.022,1.269-0.241
	c0.388-0.319,0.4-1.142,0.898-1.148c0.459-0.006,0.989,0.232,1.502,0.334c-1.039,0.872-0.302,2.301,0.875,2.474
	C52.581,69.238,52.704,68.609,52.853,68.215"/>
<path class="st2" d="M49.412,81.292c-0.182,0.079-0.418,0.025-0.632,0.025c0.015-0.233-0.112-0.55,0.22-0.619
	c0.357-0.073,0.843-0.146,0.997,0.036C50.27,81.053,49.683,81.174,49.412,81.292"/>
<path class="st2" d="M54.311,83.833c-0.295,0.257-0.767,0.027-1.02-0.367c1.604,0.158,2.135-1.734,3.651-1.934
	C56.764,82.889,55.197,83.059,54.311,83.833"/>
<path class="st2" d="M42.981,64.137c-0.545,0.142-0.975-0.335-1.503-0.215c0.863,0.133,2.342-0.387,2.397,0.441
	C43.915,64.962,43.383,64.033,42.981,64.137"/>
<path class="st2" d="M41.269,62.639c-0.123,0.138-0.241,0.308-0.423,0.19c-0.26-0.169-0.574-0.401-0.59-0.63
	c-0.07-1.057-0.771-1.575-1.309-2.39c-0.138-0.208,0.012-0.557-0.075-0.818c-0.058-0.174-0.257-0.295-0.4-0.439
	c0.208,0.059,0.325-0.064,0.43-0.215c1.024,1.146,1.647,2.539,2.743,3.698C41.854,62.256,41.448,62.436,41.269,62.639"/>
<path class="st2" d="M44.486,62.215c-1.224,0.194-1.981-1.035-1.526-1.563c0.792-0.919,1.464-3.09,3.027-2.314
	c-0.689,1.176-0.873,2.56-0.858,3.866C44.913,62.203,44.702,62.181,44.486,62.215"/>
<path class="st2" d="M46.837,62.18c-0.205,0.086-0.522-0.078-0.621,0.242c-0.041,0.133-0.013,0.283-0.013,0.426
	c-0.104-0.762,0.469-1.434,0-2.147c0.414-0.16,0.835-0.286,1.288-0.216c-0.293,0.046-0.736-0.174-0.81,0.226
	c-0.059,0.32,0.519,0.067,0.588,0.421C47.36,61.589,47.266,61.996,46.837,62.18"/>
<path class="st2" d="M48.097,57.833c-0.523,0.273-0.604-0.589-1.035-0.784c0.549,0.025,0.779-0.589,1.288-0.645
	C48.307,56.91,48.571,57.587,48.097,57.833"/>
<path class="st2" d="M46.015,52.973c0.047-0.293-0.295-0.681,0.188-0.864v1.075C46.13,53.11,46.005,53.033,46.015,52.973"/>
<path class="st2" d="M45.343,50.391v-1.073C45.778,49.675,45.509,50.032,45.343,50.391"/>
<path class="st2" d="M47.491,45.021c-0.053,0.275-0.09,0.628-0.428,0.612c-0.155-0.008-0.326-0.279-0.191-0.351
	C47.055,45.188,47.292,45.138,47.491,45.021"/>
<path class="st2" d="M48.116,43.064c0.655-0.521-0.265-1.121,0.02-1.694c0.788,0.692,0.958,1.653,0.765,2.559
	c-0.161,0.763-1.164,0.382-1.839,0.448c0.256-0.408,0.446-0.843,0.681-1.267C47.777,43.047,48.025,43.137,48.116,43.064"/>
<path class="st2" d="M48.337,40.293c-0.147,0.503-0.573,0.092-0.846,0.219c0-0.286-0.097-0.665,0.049-0.812
	c0.171-0.172,0.47,0.311,0.81,0.167C48.35,40.011,48.376,40.158,48.337,40.293"/>
<path class="st2" d="M47.281,28.456c-1.926-0.317-3.902,0.422-5.494-0.21c-0.88-0.349-1.839,0.651-2.647-0.214
	c-0.135-0.145,0.023-0.347,0.195-0.382c0.358-0.074,0.728,0.045,1.058-0.061l2.051-1.36l-3.973,0.911l-3.276,1.289l-0.59,0.269
	l-4.296,2.793l-3.221,3.329l-2.792,4.778l-1.718,5.262l-0.483,3.329l-0.269,4.456l0.537,3.759l0.493-1.91
	c-0.022-0.334,0.61-0.762,1.024-1.078c0.242-0.186,0.547,0.134,0.9-0.17c1.25-1.072,1.451-2.904-0.088-3.394
	c-0.222-0.07-0.673,0.496-0.997,0.263c-0.488-0.353-1.605-0.931-0.902-1.657c0.48,0.597,1.155,0.99,1.954,0.702
	c0.08-0.029,0.266,0.325,0.406,0.322c1.618-0.028,3.138,0.009,3.947,1.73c0.052,0.111,0.539-0.053,0.752,0.082
	c0.822,0.518,0.546,1.572,1.004,2.373c0.42,0.737,0.331,1.717,0.788,2.494c0.203,0.347,0.754,0.92,0.881,0.611
	c0.38-0.929,0.463-2.123,0.755-3.108c0.363-1.223,1.416-2.746,2.628-2.82c0.82-0.052,1.229,1.511,1.575,2.523
	c0.03,0.089,0.61-0.062,0.704,0.076c1.397,2.083,0.742,4.792,2.861,6.396c0-0.43,0.146-0.99-0.073-1.218
	c-0.97-1.001-1.44-1.971-1.385-3.291c0.007-0.148,0.241-0.287,0.384-0.431c0.469,0.543,1.168,0.914,1.289,1.718
	c2.296-1.299,0.691-3.6-0.157-5.396c-0.029-0.062,0.269-0.374,0.351-0.344c1.215,0.441,2.096-0.816,2.714-1.636
	c1.105-1.468,0.387-3.406-0.923-4.704c-0.264-0.26,0.122-0.575,0.377-0.807c-0.556-0.086-1.166-0.128-1.47-0.662
	c-0.206-0.364,0.141-0.61,0.396-0.841c0.255,0.403,0.891,0.362,1.282,0.379c0.794,0.035,0.663,1.534,1.525,1.955
	c0.175,0.086,0.534,0.082,0.569,0.002c0.457-1.041-0.506-1.612-1.116-2.421c-0.678-0.896,0.597-1.022,1.053-1.714
	c0.528-0.802-0.395-2.173,0.434-2.798c0.191-0.144-0.127,0.715,0.334,0.945c0.227-1.342-0.846-2.401-1.933-3.006
	c0.258,0.254,0.342,0.614,0.618,0.886c0.138,0.133-0.095,0.393-0.157,0.354c-0.749-0.479-1.028-1.005-1.939-1.166
	c-0.644-0.113-0.686-1.318-0.338-1.679c0.703-0.731,1.692-0.972,2.503-1.789c0.171-0.173,0.601,0.102,0.817-0.257
	c0.425,0.405,0.339,0.994,0.499,1.479c0.303,0.919,1.136,1.506,1.883,2.147c0.153,0.131,0.388-0.051,0.367-0.184
	c-0.18-1.145-0.711-1.949-1.461-2.8c0.752-0.39,1.089-1.279,1.074-2.147c-0.571,0.158-1.147-0.258-0.819-0.836
	c0.392-0.69,1.173,0.344,1.356-0.07C49.513,28.578,48.1,28.59,47.281,28.456"/>
<path class="st2" d="M88.273,27.928c-0.594-0.048-1.778,0.981-2.234,1.897c-0.053,0.105,0.568,0.244,0.756,0.592
	c-0.468,0.15-0.838-0.32-1.283-0.195c-0.17,0.048-0.312,0.214-0.205,0.401c0.1,0.174,0.271,0.296,0.414,0.438
	c-0.416,0.159-0.918,0.122-1.243,0.298c-0.718,0.39-1.412,0.884-2.113,1.332c-0.771,0.492-1.313,1.391-1.938,2.115
	c-0.277,0.324-0.463-0.706-0.934-0.953c0.337-0.086,0.289-0.508,0.326-0.668c0.217-0.952-0.318-1.865,0.682-2.638
	c0.269-0.208-0.127-0.665-0.283-1.024c-0.192-0.448-0.025-1.137-0.533-1.427c-0.223-0.125-0.549-0.042-0.836-0.042
	c0.162-0.512,0.505-0.904,0.859-1.289c-1.191-0.478-2.584,0.25-3.521,0.963c-0.388,0.294-1.183-0.039-1.669-0.128
	c-1.079-0.198-2.461,0.036-3.344,0.939c-0.265,0.269,0.213,1.004-0.295,1.16c-0.666,0.206-1.145-0.533-1.863-0.595l-0.905-0.03
	l3.167-1.45l3.65-1.127l4.297-0.484l4.562,0.216l3.651,0.483l2.147,0.644L88.273,27.928"/>
<path class="st2" d="M101.782,44.416c0.033,0.039-0.17,0.211-0.384,0.188c-0.359-0.036-0.809,0.108-1.023-0.072
	c-0.589-0.498-0.07-1.451-0.527-2.051c-0.385-0.505-0.891-0.979-0.52-1.483c0.541-0.735,2.133-0.817,2.245,0.376
	c0.015,0.142-0.192,0.303-0.38,0.196c-0.174-0.101-0.303-0.373-0.436-0.363c-0.215,0.019-0.354,0.323-0.207,0.586
	c0.281,0.5,1.049,0.446,1.201,0.893C101.967,43.321,101.209,43.726,101.782,44.416 M105.264,47.17l-1.342-5.209l-1.289-3.544
	l-3.597-5.153l-2.577-2.202l-0.254,1c0.533,0.961-1.878,2.012-2.154,0.473c-0.047-0.257,1.14-0.189,1.177-0.425
	c0.198-1.25-2.052-0.99-3.126-1.576c-0.258-0.14-0.885,0.116-1.223,0.531c-1.166,1.432-3.136,2.576-2.945,4.261
	c0.054,0.479,1.964,0.065,1.867,1.535c0.375-0.506,0.125-1.114,0.859-1.288c-0.374-1.376,0.713-2.104,1.289-3.222
	c0.357,0.214,0.285,0.657,0.156,0.81c-0.408,0.482-0.514,1.054-0.299,1.521c0.435,0.949,1.246-0.658,1.837,0.052
	c0.071,0.088,0.053,0.353,0.009,0.368c-1.221,0.401-1.33,1.283-2.2,2.119c-0.918,0.883-2.264,0.756-2.725-0.573
	c0.163,0.766-0.111,1.601-1.074,1.502c0.126,0.281-0.201,0.424-0.285,0.613c-0.394,0.897-1.819,0.832-2.155,1.595
	c-0.11,0.248,0.955,0.61,0.651,1.192c-0.385,0.737-1.694,0.325-1.998,1.141c-0.235,0.633-0.321,1.603,0.043,2.009
	c0.295,0.327,1.409,0.326,1.681,0.001c0.961-1.15,1.582-3.062,3.322-2.576c0.762,0.211,1.152,1.081,1.521,1.83
	c0.096,0.194-0.04,0.349-0.207,0.41c-0.129,0.044-0.282,0.014-0.426,0.014c0.562,0.06,1.067-0.05,1.504-0.429
	c-0.611-0.611-1.373-1.138-1.66-1.954c-0.029-0.083,0.3-0.373,0.33-0.352c1.164,0.812,2.398,1.576,2.188,3.164
	c0.216,0,0.531,0.065,0.591-0.032c0.213-0.351-0.131-0.724-0.375-1.042c0.385-0.275,0.937-0.259,1.223-0.505
	c0.541-0.467,0.295-1.398,0.574-2.037c0.332-0.757,1.052,0.439,1.605,0.122c0.116-0.065,0.066-0.603,0.184-0.508
	c0.791,0.656,1.194,1.562,2.213,1.854c-1.533,0.641-4.748-0.505-4.112,1.885c0.217,0.814,1.862-0.335,2.319,0.725
	c0.34,0.787,0.201,1.938-0.273,2.411c-0.939,0.937-2.521,0.364-3.732-0.079c0.072,0.442-0.117,1.212-0.606,0.988
	c-0.683-0.31-1.097-0.981-1.95-1.117c-0.579-0.093,0.143-1.331-0.68-1.53c-1.565-0.381-2.946,0.498-4.446,0.817
	c-0.655,0.139-1.062,1.111-1.16,2.125c-0.03,0.317-0.438,0.129-0.573,0.256c-0.867,0.811-1.572,1.938-1.58,2.971
	c-0.006,0.894,0.02,1.869-0.02,2.789c-0.012,0.268-0.462,0.601-0.303,0.812c0.803,1.081,1.109,2.393,2.002,3.102
	c0.947,0.753,2.82,0.628,3.984,0.028c0.736-0.377,1.16,0.696,1.803,0.989c0.803,0.364-0.08,1.912,0.424,2.73
	c0.846,1.374,1.34,3.211,0.881,4.237c-0.99,2.213,0.902,4.553,0.506,6.787c0.499,0.089,1.055-0.219,1.503,0.215l0.431,0.215
	l2.254-2.094l2.148-2.148l1.934-2.309l-0.108-0.752c-0.765-1.067-0.678-2.457-0.242-3.344c1.134-2.305,3.923-4.087,3.679-6.965
	c-1.58,1.586-3.227-0.421-3.709-1.773c-0.729-2.036-1.816-3.714-2.932-5.539c-0.111-0.185,0.034-0.352,0.203-0.4
	c0.203-0.057,0.502-0.091,0.598,0.018c1.629,1.871,2.422,4.064,3.682,6.198c0.174,0.295,0.47,0.277,0.625,0.166
	c0.766-0.548,1.224-1.455,2.008-1.783c0.443-0.186,1.025-0.296,1.175-0.772c0.206-0.663,0.194-1.431,0.007-2.109
	c-0.295-1.064-1.312,0.278-2.097-0.433c-0.636-0.577-1.113-1.203-1.481-1.953c-0.095-0.193,0.051-0.385,0.205-0.391
	c0.989-0.043,1.193,1.148,1.953,1.406c0.733,0.249,2.012-0.009,2.108,0.343l0.823,0.205L105.264,47.17z"/>
<path class="st2" d="M91.734,83.941c1.182-0.652,1.825-1.63,3.759-2.936c1.933-1.303,3.328-2.391,3.328-2.391
	c0.538-1.412,0.644-1.957,0.967-2.39c0.321-0.437,0.429-2.936,0.644-5.328c0.195-2.168,1.504-4.892,1.504-4.892
	c-0.859-1.086-0.322-4.347,0.215-5.543c0.537-1.195,3.223-2.935,4.188-2.608c0.967,0.326,2.148,7.608,2.041,9.348
	s-0.216,10.761-0.752,12.501c-0.537,1.738-3.222,7.5-5.477,10c-2.255,2.499-9.879,9.348-12.135,10.979
	c-2.256,1.63-8.021,5.975-9.342,7.608c-0.967,1.195-0.215,2.936-0.215,2.936H63.707c0-2.5,1.717-3.262,1.717-5.219
	c0-3.261-1.717-3.912-1.717-7.826c0-3.913,2.791-6.521,5.584-8.261c2.791-1.74,6.657-2.609,9.021-5.218
	c2.362-2.608,7.409-7.935,9.235-9.782c1.77-1.793,3.65-1.956,5.369-1.305c1.717,0.65,2.362,1.739,1.932,3.805
	c-0.199,0.963-3.758,4.13-6.12,7.175c-2.362,3.043-4.011,6.466-4.869,8.857c0.858-2.392,2.649-5.925,5.011-8.968L91.734,83.941"/>
<path class="st2" d="M12.806,42.384c0.406,1.287,0.572,2.94,0.244,4.135c-0.344,1.256-1.295,1.496-2.356,0.931
	c-1.303-0.693-2.497-1.964-3.231-3.441c-0.673-1.375-1.209-3.339-0.825-4.742c0.223-0.812,0.705-1.231,1.476-0.905l0.46,1.274
	c-0.662-0.311-1.378-0.325-1.605,0.499c-0.307,1.119,0.21,2.51,0.861,3.506c0.685,1.056,1.709,2.024,2.714,2.559
	c0.927,0.495,1.886,0.413,2.197-0.719c0.277-1.01,0.068-2.277-0.232-3.354L12.806,42.384"/>
<path class="st2" d="M10.987,37.869c-0.08-0.398-0.128-0.847,0.002-1.198c0.113-0.306,0.293-0.397,0.568-0.425l-0.864-1.045
	c-0.094,0.11-0.192,0.233-0.244,0.373c-0.142,0.388-0.01,0.896,0.082,1.332l0.122,0.678c-0.149-0.135-0.449-0.512-0.597-0.618
	c-0.084-0.059-0.151-0.018-0.182,0.064c-0.073,0.199,0.068,2.091,0.128,2.504l0.255,0.211c-0.002-0.283-0.076-0.839,0.014-1.086
	c0.06-0.164,0.166-0.162,0.303-0.064c0.284,0.202,0.873,0.875,1.133,1.179l1.945,2.188l0.022-1.109L10.987,37.869"/>
<path class="st2" d="M11.958,33.562c0.116-0.256,0.376-0.151,0.567,0.017c0.748,0.659,0.713,1.845,0.855,2.765
	C12.941,35.893,11.67,34.196,11.958,33.562 M14.891,34.276c0.118,0.728,0.358,1.983,0.096,2.562
	c-0.277,0.612-0.878,0.208-1.287-0.184l-0.025-0.224l-0.296-2.428c-0.123-0.561-0.292-1.083-0.711-1.452
	c-0.36-0.317-0.7-0.337-0.892,0.087c-0.293,0.645-0.059,2.13,0.28,2.863c0.367,0.823,1.195,1.896,1.814,2.441
	c0.55,0.483,1.131,0.652,1.444-0.038c0.378-0.834,0.108-2.365-0.153-3.391L14.891,34.276z"/>
<path class="st2" d="M16.441,33.529c-0.148,0.257-0.457-0.021-0.633-0.216c-0.517-0.576-0.938-1.267-1.299-2.007
	c-0.297-0.617-0.624-1.286-0.311-1.83c0.166-0.289,0.396-0.505,0.601-0.731l0.899,1.492l0.784,1.245
	C16.494,31.935,16.606,33.241,16.441,33.529 M17.844,30.032l-0.258-0.287c-0.002,0.318,0.039,1.459-0.061,1.636
	c-0.06,0.102-0.195-0.03-0.259-0.104c-0.387-0.432-1.534-2.334-1.906-2.953l-0.236-0.38l-0.161-0.669
	c-0.313,0.31-0.611,0.668-0.853,1.09c-0.337,0.587-0.35,0.741-0.33,1.522c0.013,0.504,0.003,1.101,0.186,1.625
	c0.31,0.885,1.199,2.366,1.78,3.015c0.239,0.268,0.807,0.782,1.02,0.412c0.224-0.391,0.042-2.365,0.033-2.982l0.374,0.534
	c0.118,0.165,0.248,0.36,0.377,0.505c0.101,0.113,0.211,0.185,0.288,0.052C17.992,32.778,17.855,30.567,17.844,30.032"/>
<path class="st2" d="M19.697,27.522l-0.2-0.279l-0.024,0.452c-0.027,0.316-0.128,1.366-0.202,1.469
	c-0.147,0.205-0.393-0.175-0.535-0.372c-0.159-0.222-0.428-0.802-0.56-1.06l-0.803-1.604l0.32-0.447l0.31-0.501l-0.005-0.714
	l-0.87,1.211l-0.758-1.598l-0.291-0.666l-0.157,0.823l-0.077,0.341l0.824,1.669l-0.263,0.436l-0.092,0.151l-0.02,0.772l0.637-0.862
	l0.797,1.612c0.248,0.495,0.642,1.341,0.951,1.773c0.169,0.254,0.673,0.714,0.847,0.472c0.163-0.201,0.136-0.91,0.154-1.239
	l-0.006-0.735L19.697,27.522"/>
<path class="st2" d="M17.482,19.279l0.673,0.479l0.112,0.062l-0.049,1.225c-0.269-0.136-0.56-0.289-0.809-0.536L17.482,19.279"/>
<path class="st2" d="M21.793,25.569l-0.084,0.616l-0.078,0.607c-0.037,0.325-0.15,1.343-0.324,1.547
	c-0.165,0.196-0.393-0.117-0.523-0.332c-0.267-0.439-0.634-1.453-0.836-1.948l-0.273-0.714c-0.132-0.34-0.42-1.101-0.588-1.377
	c-0.068-0.114-0.16-0.243-0.239-0.15c-0.115,0.136-0.197,0.858-0.252,1.095l-0.199-0.368c0.057-0.499,0.259-2.227,0.454-2.457
	c0.058-0.067,0.117-0.052,0.178,0.05c0.084,0.139,0.317,0.748,0.395,0.937l1.056,2.596c0.101,0.249,0.264,0.66,0.394,0.874
	c0.084,0.138,0.25,0.352,0.359,0.222c0.115-0.134,0.235-0.813,0.275-1.055l0.1-0.527L21.793,25.569"/>
<path class="st2" d="M22.01,24.934c-0.202-0.646-0.772-2.576-1.032-3.107c-0.046-0.095-0.115-0.188-0.186-0.122
	c-0.109,0.104-0.245,0.573-0.307,0.752l-0.071,0.228l-0.151-0.375c0.104-0.398,0.553-2.143,0.678-2.262
	c0.062-0.062,0.143-0.037,0.196,0.071c0.08,0.164,0.237,0.692,0.293,0.879l0.209,0.659l0.47-1.984
	c0.065-0.262,0.223-0.993,0.372-1.134c0.077-0.074,0.182-0.094,0.269,0.083c0.073,0.15,0.134,0.391,0.185,0.541l0.598,1.966
	c0.163,0.543,0.457,1.539,0.691,2.016c0.067,0.137,0.194,0.372,0.312,0.262c0.124-0.12,0.245-0.713,0.294-0.939l0.164-0.695
	l0.147,0.439c-0.166,1.017-0.354,2.033-0.655,2.938c-0.185-0.143-0.325-0.288-0.452-0.547c-0.193-0.395-0.545-1.555-0.69-2.015
	l-0.33-1.023c-0.115-0.35-0.302-0.989-0.456-1.302c-0.046-0.094-0.117-0.168-0.178-0.108c-0.149,0.142-0.45,1.725-0.544,2.113
	l1.135,3.646l-0.39,0.931L22.01,24.934"/>
<path class="st2" d="M27.157,26.361c-0.277,0.201-0.894,0.573-1.151-0.113c-0.217-0.585,0.037-1.586,0.155-2.099l0.355-1.593
	l0.543-2.231l0.643,2.84C28.104,24.897,28.214,25.595,27.157,26.361 M25.875,21.238c-0.234-0.629-0.479-1.918-0.555-2.606
	c-0.132-1.038,0.153-1.244,0.635-1.612l0.755-0.546l-0.023,0.109c-0.246,0.94-0.2,0.979,0.023,2.119l0.22,1.047l-0.358,1.355
	l-0.195,0.791C26.116,21.771,26.016,21.617,25.875,21.238 M28.106,21.962l-0.758-3.202l-0.156-0.704l-0.349-1.68
	c0.174-0.162,0.125-0.665,0.133-0.987l0.004-0.133l-0.219,0.158l-0.752,0.582c-0.369,0.268-0.585,0.404-0.778,0.973
	c-0.19,0.546-0.362,1.117-0.411,1.784c-0.054,0.855,0.343,2.835,0.659,3.682c0.131,0.352,0.326,0.674,0.564,0.854l-0.052,0.261
	l-0.431,2.187c-0.085,0.489-0.196,1.163,0.006,1.703c0.279,0.745,1.041,0.305,1.335,0.091c0.487-0.353,0.851-0.746,1.14-1.455
	c0.223-0.516,0.472-1.42,0.442-2.103C28.462,23.432,28.238,22.516,28.106,21.962"/>
<path class="st2" d="M31.632,19.012c-0.225,0.103-0.375-0.366-0.445-0.665c-0.206-0.876-0.289-1.775-0.3-2.67
	c-0.006-0.743-0.017-1.553,0.459-1.771c0.252-0.114,0.53-0.119,0.791-0.152l0.166,1.937l0.167,1.639
	C32.302,17.718,31.883,18.896,31.632,19.012 M34.077,16.717c-0.126,0.265-0.541,1.252-0.694,1.321
	c-0.09,0.041-0.15-0.175-0.176-0.283c-0.155-0.657-0.367-3.127-0.435-3.928l-0.048-0.498l0.127-0.683
	c-0.383,0.018-0.774,0.094-1.141,0.262c-0.513,0.234-0.585,0.353-0.875,1.022c-0.187,0.434-0.43,0.926-0.483,1.504
	c-0.088,0.978,0.074,2.896,0.306,3.882c0.097,0.407,0.369,1.271,0.693,1.123c0.341-0.155,0.964-1.948,1.199-2.472l0.103,0.732
	c0.034,0.228,0.066,0.492,0.118,0.711c0.04,0.17,0.103,0.316,0.22,0.263c0.235-0.107,0.988-2.064,1.189-2.52L34.077,16.717z"/>
<path class="st2" d="M38.128,9.11c-0.72,0.153-1.738,0.154-1.591,1.89c0.048,0.559,0.216,1.076,0.407,1.542l-0.62,0.883
	c-0.172-0.453-0.311-0.979-0.358-1.518c-0.081-0.966,0.152-1.801,0.547-2.413c0.506-0.781,1.03-0.884,1.686-1.009l1.107-0.184
	c-0.122,0.236-0.265,0.459-0.435,0.587l-0.04,1.433l-0.058,5.802l2.195-7.881L41.436,7.8l0.243,4.424l0.22,3.582
	c0.734-1.997,2.06-5.32,1.845-7.856c-0.05-0.573-0.203-2.584-0.49-2.935c0.146-0.306,0.314-0.566,0.516-0.766
	c0.137,0.044,0.266,0.105,0.388,0.2c0.161,0.323,0.223,2.151,0.257,2.559c0.251,2.945-1.943,7.59-2.597,10.204l-0.518,0.401
	l-0.463-7.689l-1.886,6.717l-0.315,1.098l-0.565,0.425L38.128,9.11"/>
<path class="st2" d="M45.714,16.629c-0.492-0.008-0.636-0.917-0.63-1.609c0.006-0.79,0.135-1.678,0.35-2.366
	c0.184-0.624,0.57-1.491,1.013-1.484c0.492,0.008,0.626,0.966,0.62,1.658C47.058,14.028,46.555,16.641,45.714,16.629 M46.917,10.452
	c-0.521-0.01-1.474,0.981-1.82,1.651c-0.45,0.866-0.728,2.428-0.737,3.58c-0.007,0.957,0.251,1.719,0.837,1.728
	c0.53,0.009,1.569-1.029,1.896-1.732c0.403-0.852,0.71-2.562,0.719-3.665C47.819,11.059,47.456,10.46,46.917,10.452"/>
<path class="st2" d="M48.777,14.176c0.103-0.452,0.328-1.465,0.355-1.91c0.013-0.213-0.026-0.35-0.158-0.365
	c-0.198-0.023-0.539,0.283-0.726,0.394l0.043-0.408c0.252-0.234,1.456-1.133,1.616-1.113c0.066,0.008,0.119,0.08,0.11,0.212
	c-0.013,0.229-0.151,0.759-0.184,1.002l0.404-0.413c0.255-0.285,0.543-0.647,0.854-0.61c0.113,0.013,0.232,0.094,0.341,0.173
	l-0.368,1.511c-0.121-0.346-0.252-0.543-0.497-0.572c-0.282-0.033-0.562,0.198-0.796,0.45l-0.966,4.597l-0.745,0.392L48.777,14.176"
	/>
<path class="st2" d="M52.137,13.844l0.291-1.207l0.897-3.46c0.183-0.645,0.315-1.334,0.792-1.235
	c0.178,0.037,0.348,0.14,0.508,0.257l0.485-0.782c-0.151-0.098-0.307-0.164-0.476-0.199c-0.215-0.045-0.407-0.035-0.615,0.121
	c-0.301,0.221-0.823,0.812-1.074,1.192c-0.343,0.528-0.785,2.503-0.977,3.312l-1.095,4.603c-0.038,0.174-0.081,0.315-0.101,0.495
	c-0.038,0.358,0.007,1,0.259,1.053c0.198,0.042,0.704-0.503,0.885-0.665l0.604-0.557l0.406-0.398l0.039-0.359
	c-0.229,0.17-1.043,0.899-1.24,0.858c-0.168-0.035-0.137-0.411-0.113-0.641C51.675,15.646,51.986,14.444,52.137,13.844"/>
<path class="st2" d="M55.103,16.834c-0.281,0.16-1.051,0.851-1.3,0.768c-0.22-0.074-0.14-0.539-0.093-0.811
	c0.211-1.218,1.084-4.076,1.975-3.777c0.212,0.07,0.31,0.29,0.419,0.564L55.103,16.834 M59.312,8.91
	c-0.322-0.108-0.472-0.023-0.795,0.207c-0.277,0.196-0.556,0.406-0.817,0.676c-0.649,0.662-0.771,1.197-1.111,2.269l-0.162,0.488
	c-0.114-0.071-0.235-0.163-0.363-0.206c-0.24-0.081-0.585,0.177-0.823,0.317c-0.36,0.218-0.783,0.533-1.068,0.996
	c-0.406,0.661-1.073,2.556-1.228,3.452c-0.058,0.337-0.103,1.321,0.164,1.411s1.487-0.89,1.821-1.134l-0.077,0.331l-0.17,0.756
	c-0.038,0.224-0.066,0.554,0.109,0.611c0.23,0.077,1.685-0.975,2.013-1.238l0.111-0.472c-0.248,0.138-1.095,0.82-1.298,0.751
	c-0.119-0.04-0.091-0.317-0.063-0.479c0.042-0.24,0.155-0.609,0.236-0.854l0.413-1.385l1.185-3.756
	c0.258-0.761,0.68-2.246,1.305-2.036c0.147,0.05,0.294,0.148,0.433,0.248l0.477-0.79C59.517,9.013,59.412,8.944,59.312,8.91"/>
<path class="st2" d="M59.648,17.995c-0.535,0.614-1.369,1.298-0.606,2.685c0.244,0.443,0.574,0.777,0.904,1.046l-0.183,1.172
	c-0.308-0.272-0.617-0.628-0.854-1.059c-0.424-0.771-0.542-1.645-0.444-2.433c0.125-1.008,0.518-1.448,1.01-1.993l0.841-0.899
	c-0.014,0.284-0.048,0.571-0.141,0.795l0.498,1.252l2.096,5.007l-1.112-8.217l0.219-0.693l1.834,3.627l1.504,2.919
	c-0.136-2.201-0.275-5.935-1.391-7.963c-0.251-0.457-0.588-0.844-0.953-0.952c0.006-0.36,0.047-0.696,0.139-1.001
	c0.129-0.055,0.258-0.089,0.393-0.089c0.251,0.169,0.444,0.461,0.625,0.787c1.294,2.354,1.211,7.801,1.642,10.476l-0.277,0.691
	l-3.222-6.273l0.936,7.014l0.147,1.151l-0.307,0.74L59.648,17.995"/>
<path class="st2" d="M66.354,14.822c-0.119-0.683-0.33-1.742-0.378-2.416c-0.038-0.733,0.188-1.505,0.369-2.105
	c0.178-0.615,0.25-0.786,0.662-1.041c0.131-0.081,0.258-0.143,0.4-0.159l-0.052,1.132c-0.19,0.048-0.396,0.085-0.576,0.196
	c-0.271,0.167-0.358,0.476-0.335,0.982c0.027,0.704,0.268,1.979,0.402,2.71l0.349,1.983l0.083-0.232
	c0.162-0.479,0.855-2.497,1.109-2.654c0.082-0.052,0.197-0.031,0.254,0.148c0.076,0.241,0.26,1.426,0.303,1.688
	c0.126,0.733,0.389,2.446,0.596,3.093c0.049,0.151,0.137,0.402,0.252,0.33c0.148-0.092,0.477-1.035,0.571-1.292l0.058-0.161
	l0.09,0.468l-0.933,2.688c-0.172-0.199-0.265-0.34-0.362-0.641c-0.195-0.616-0.521-2.526-0.65-3.24
	c-0.057-0.36-0.168-1.049-0.27-1.365c-0.037-0.121-0.105-0.241-0.188-0.189c-0.09,0.056-0.227,0.429-0.271,0.565l-0.515,1.438
	l0.692,3.771l-0.459,0.809L66.354,14.822"/>
<path class="st2" d="M71.069,16.095c-0.128-0.739-0.328-3.172,0.161-3.386c0.197-0.087,0.343,0.229,0.41,0.527
	C71.905,14.416,71.365,15.274,71.069,16.095 M73.082,15.92c-0.229,0.653-0.598,1.817-1.044,2.012
	c-0.471,0.207-0.737-0.645-0.868-1.312l0.08-0.188l0.836-2.095c0.153-0.534,0.256-1.078,0.107-1.739
	c-0.128-0.566-0.37-0.891-0.695-0.749c-0.498,0.218-0.97,1.548-1.039,2.406c-0.088,0.953,0.057,2.514,0.275,3.488
	c0.195,0.864,0.549,1.521,1.081,1.288c0.644-0.281,1.11-1.678,1.362-2.687L73.082,15.92z"/>
<path class="st2" d="M73.844,14.712c-0.004-0.472-0.017-1.53-0.086-1.964c-0.035-0.21-0.1-0.325-0.222-0.286
	c-0.184,0.057-0.428,0.488-0.573,0.67l-0.047-0.409c0.178-0.326,1.074-1.669,1.225-1.717c0.061-0.018,0.123,0.029,0.144,0.157
	c0.036,0.226,0.026,0.786,0.048,1.033l0.277-0.561c0.17-0.374,0.354-0.835,0.643-0.928c0.105-0.031,0.23-0.003,0.346,0.029
	l-0.012,1.59c-0.183-0.281-0.344-0.417-0.57-0.346c-0.264,0.082-0.467,0.417-0.625,0.753l0.107,4.78l-0.593,0.674L73.844,14.712"/>
<path class="st2" d="M77.193,11.011c0.205-0.04,0.312,0.303,0.346,0.613c0.129,1.224-0.504,1.95-0.888,2.696
	C76.608,13.562,76.687,11.114,77.193,11.011 M78.658,14.593c-0.301,0.594-0.797,1.661-1.259,1.756
	c-0.488,0.101-0.656-0.799-0.709-1.488l0.099-0.17l1.065-1.882c0.211-0.493,0.374-1.01,0.302-1.694
	c-0.062-0.587-0.263-0.962-0.602-0.894c-0.516,0.105-1.133,1.315-1.299,2.148c-0.194,0.921-0.229,2.495-0.123,3.505
	c0.095,0.897,0.371,1.624,0.922,1.512c0.666-0.137,1.285-1.412,1.65-2.354L78.658,14.593z"/>
<path class="st2" d="M85.057,11.521L84.725,12l-0.411,0.051l-0.952,0.105l-0.025,0.198c-0.254,1.846-0.272,2.028-1.004,3.333
	l-0.127,0.232l2.229-0.015c0.242,0,0.566,0.013,0.789-0.054c0.199-0.067,0.297-0.249,0.296-0.626
	c-0.001-0.216-0.029-0.446-0.048-0.66l0.662-0.465c0.02,0.131,0.039,0.246,0.039,0.378c0.002,0.561-0.348,1.106-0.554,1.469
	c-0.348,0.58-0.455,0.761-0.94,0.765l-0.853-0.028l-1.481-0.057l-1.213-0.026l0.34-0.546c0.843-0.251,0.92-1.356,1.095-2.658
	l0.149-1.17l-0.261,0.034l0.339-0.745l0.473-3.691c-0.709,0.036-1.715,0.158-1.709,1.872c0.002,0.46,0.057,0.922,0.121,1.383
	l-0.644,0.811c-0.073-0.46-0.165-0.938-0.167-1.433c-0.003-1.17,0.506-2.062,1.034-2.576c0.448-0.43,1.004-0.6,1.507-0.586
	l0.618-0.382l-0.043,0.329l1.921-0.061c0.171,0.098,0.253,0.327,0.271,0.624l-0.58,1.059c-0.291-1.301-0.344-1.151-1.1-1.114
	l-0.574,0.004l-0.473,3.775L85.057,11.521"/>
<path class="st2" d="M86.611,12.829c0.12-0.549,0.359-1.674,0.561-2.06c0.123-0.232,0.439-0.106,0.573-0.089l0.685,0.144
	c0.162,0.022,0.375,0.052,0.502-0.213l0.091,0.012c-0.005,0.065,0.001,0.116-0.002,0.166l-0.009,0.132
	c-0.678,1.148-1.344,2.548-1.463,4.237c-0.028,0.427,0.027,1.029,0.314,1.068c0.447,0.062,1.061-1.113,1.312-1.724
	c0.357-0.863,0.6-1.873,0.674-2.938c0.031-0.442,0.01-0.776-0.088-1.188c0.201-0.155,0.391-0.293,0.603-0.363
	c0.171,0.271,0.224,0.542,0.194,0.97c-0.084,1.196-0.627,2.778-1.061,3.695c-0.488,1.026-1.447,2.484-2.217,2.381
	c-0.357-0.05-0.445-0.723-0.408-1.264c0.059-0.837,0.287-1.783,0.57-2.473c0.253-0.644,0.605-1.159,0.915-1.713
	c-0.231,0.067-0.456,0.053-0.679,0.023c-0.109,0.002-0.286-0.039-0.391,0.013c-0.207,0.137-0.335,0.667-0.421,1.002l-0.129,0.546
	L86.611,12.829"/>
<path class="st2" d="M92.397,11.728c0.202,0.051,0.228,0.426,0.188,0.734c-0.158,1.216-0.923,1.627-1.457,2.162
	C91.26,13.887,91.894,11.602,92.397,11.728 M91.176,15.038l1.438-1.314c0.312-0.373,0.586-0.79,0.674-1.471
	c0.076-0.585-0.029-1.029-0.367-1.113c-0.513-0.13-1.373,0.742-1.722,1.461c-0.394,0.787-0.785,2.262-0.915,3.268
	c-0.115,0.893-0.02,1.703,0.529,1.842c0.662,0.165,1.542-0.77,2.102-1.499l0.057-0.438c-0.422,0.43-1.135,1.223-1.594,1.107
	c-0.486-0.122-0.44-1.049-0.334-1.725L91.176,15.038z"/>
<path class="st2" d="M94.057,15.165c0.15-0.422,0.48-1.377,0.559-1.808c0.038-0.207,0.018-0.351-0.104-0.394
	c-0.184-0.064-0.541,0.168-0.729,0.236l0.09-0.394c0.264-0.179,1.5-0.812,1.648-0.761c0.061,0.021,0.102,0.104,0.078,0.232
	c-0.041,0.223-0.232,0.717-0.293,0.949l0.43-0.324c0.273-0.227,0.586-0.524,0.874-0.423c0.104,0.035,0.206,0.141,0.299,0.242
	l-0.526,1.413c-0.071-0.366-0.17-0.587-0.396-0.668c-0.262-0.093-0.552,0.077-0.802,0.278l-1.452,4.329l-0.746,0.231L94.057,15.165"
	/>
<path class="st2" d="M99.361,14.448l-1.412,3.559l-0.294,0.156c-0.207,0.111-0.819,0.48-1.015,0.389
	c-0.153-0.073-0.119-0.404-0.062-0.639c0.149-0.608,0.684-1.868,0.922-2.451l0.368-0.888c0.083-0.221,0.372-0.902,0.427-1.12
	c0.029-0.125,0.012-0.204-0.058-0.236c-0.119-0.056-1.405,0.552-1.655,0.677l-0.128,0.409l0.104-0.038
	c0.145-0.053,0.459-0.165,0.594-0.101c0.085,0.04,0.107,0.139,0.07,0.294c-0.11,0.453-0.448,1.215-0.623,1.62l-0.344,0.827
	c-0.176,0.44-0.416,1.003-0.535,1.487c-0.084,0.343-0.152,0.937,0.084,1.05c0.162,0.077,0.552-0.156,0.718-0.251l0.554-0.294
	l0.734-0.436l-0.661,1.774c-0.197,0.534-0.606,1.662-0.899,2.011c-0.266,0.309-0.642,0.218-0.896,0.096
	c-0.34-0.16-0.641-0.443-0.938-0.741l-0.597,0.883l0.921,0.579c0.536,0.253,0.812,0.245,1.368-0.239
	c0.424-0.374,0.899-0.81,1.215-1.478c0.308-0.637,0.606-1.47,0.866-2.183l2.059-5.044L99.361,14.448"/>
<path class="st2" d="M102.194,18.107c-0.356,1.094-1.551,3.215-2.278,2.754c-0.427-0.269-0.287-1.177-0.082-1.808
	c0.233-0.72,0.604-1.462,0.989-1.979c0.34-0.472,0.927-1.06,1.312-0.815C102.56,16.528,102.399,17.477,102.194,18.107
	 M102.75,15.852c-0.449-0.284-1.565,0.112-2.06,0.543c-0.644,0.551-1.337,1.831-1.681,2.883c-0.282,0.869-0.278,1.704,0.229,2.024
	c0.458,0.29,1.663-0.105,2.15-0.574c0.598-0.562,1.359-1.963,1.688-2.968C103.359,16.889,103.217,16.147,102.75,15.852"/>
<path class="st2" d="M105.566,21.516l1.016-1.591c0.075-0.13,0.205-0.31,0.272-0.465c0.077-0.185,0.024-0.305-0.052-0.369
	c-0.147-0.122-0.67,0-0.861,0.033l-1.438,0.28l0.336-0.544c0.097-0.15,0.371-0.574,0.444-0.744c0.048-0.113,0.033-0.223-0.028-0.274
	c-0.125-0.102-1.403,0.101-1.695,0.146l-0.18,0.349l0.172-0.011c0.136-0.001,0.485-0.036,0.594,0.053
	c0.068,0.059,0.037,0.185-0.006,0.282c-0.236,0.553-1.242,2.096-1.573,2.626l-0.992,1.534l0.74,0.079l1.876-2.987
	c0.283-0.052,1.402-0.368,1.549-0.246c0.061,0.05,0.042,0.169,0,0.268c-0.141,0.327-0.472,0.836-0.65,1.128l-0.521,0.853
	c-0.234,0.38-0.836,1.318-1.014,1.727c-0.114,0.271-0.152,0.507-0.172,0.798c0.689-0.022,1.406-0.23,2.115-0.467l0.221-0.371
	l-0.504,0.1c-0.162,0.037-0.584,0.146-0.707,0.043c-0.117-0.096-0.016-0.356,0.045-0.498
	C104.766,22.749,105.284,21.953,105.566,21.516"/>
<path class="st2" d="M108.688,22.776c-0.534,0.985-1.35,0.871-2,1.011c0.355-0.573,1.662-2.214,2.07-1.784
	C108.922,22.177,108.822,22.526,108.688,22.776 M109.416,21.809c-0.416-0.438-1.468-0.203-2.011,0.217
	c-0.606,0.455-1.435,1.524-1.876,2.34c-0.393,0.723-0.568,1.506-0.125,1.973c0.538,0.565,1.624,0.285,2.359-0.013l0.193-0.355
	c-0.514,0.119-1.408,0.376-1.781-0.017c-0.395-0.414-0.053-1.21,0.262-1.748l0.158-0.02l1.707-0.267
	c0.4-0.135,0.779-0.335,1.08-0.887C109.637,22.559,109.688,22.095,109.416,21.809"/>
<path class="st2" d="M114.836,26.527c-0.457-0.723-0.979-1.859-1.945-0.75c-0.309,0.356-0.537,0.827-0.719,1.295l-0.847-0.211
	c0.185-0.439,0.429-0.882,0.729-1.228c0.537-0.618,1.158-0.812,1.729-0.703c0.727,0.139,1.055,0.67,1.465,1.335l0.674,1.139
	c-0.203-0.009-0.41-0.047-0.574-0.168l-0.881,0.736l-3.515,3.097l5.853-1.841l0.502,0.282l-2.532,2.682l-2.039,2.196
	c1.574-0.267,4.245-0.593,5.658-2.216c0.319-0.366,0.585-0.851,0.649-1.362c0.258-0.004,0.5,0.042,0.723,0.159
	c0.044,0.178,0.072,0.354,0.076,0.544c-0.11,0.356-0.312,0.635-0.541,0.897c-1.642,1.886-5.549,1.962-7.451,2.656l-0.506-0.362
	l4.383-4.708l-4.994,1.552l-0.821,0.245l-0.543-0.398L114.836,26.527"/>
<path class="st2" d="M120.144,34.622l-0.458,0.829l-0.062,0.141l-0.844-0.234c0.145-0.338,0.305-0.704,0.523-1.001L120.144,34.622"
	/>
<path class="st2" d="M114.971,39.479l-0.416-0.196l-0.407-0.186c-0.22-0.095-0.907-0.386-1.017-0.644
	c-0.105-0.248,0.154-0.507,0.328-0.65c0.355-0.294,1.129-0.641,1.51-0.84l0.549-0.265c0.261-0.128,0.844-0.406,1.066-0.591
	c0.092-0.076,0.199-0.179,0.149-0.298c-0.074-0.171-0.562-0.38-0.716-0.484l0.293-0.215c0.337,0.146,1.501,0.652,1.626,0.943
	c0.036,0.086,0.014,0.161-0.068,0.229c-0.11,0.094-0.577,0.319-0.725,0.396l-2.003,1.043c-0.189,0.1-0.506,0.261-0.68,0.402
	c-0.111,0.093-0.291,0.284-0.223,0.446c0.073,0.172,0.525,0.425,0.686,0.511l0.349,0.206L114.971,39.479"/>
<path class="st2" d="M115.379,39.852c0.487-0.184,1.938-0.688,2.355-0.964c0.074-0.05,0.15-0.13,0.117-0.231
	c-0.055-0.157-0.36-0.399-0.473-0.502l-0.148-0.126l0.289-0.149c0.261,0.188,1.404,1.009,1.467,1.189
	c0.031,0.09,0,0.193-0.085,0.249c-0.128,0.086-0.524,0.226-0.665,0.275l-0.498,0.191l1.309,0.879
	c0.172,0.12,0.655,0.424,0.729,0.639c0.039,0.113,0.035,0.254-0.104,0.346c-0.117,0.078-0.297,0.128-0.41,0.176l-1.479,0.537
	c-0.407,0.146-1.157,0.408-1.53,0.654c-0.107,0.072-0.295,0.211-0.236,0.38c0.061,0.181,0.455,0.418,0.607,0.512l0.457,0.306
	l-0.334,0.139c-0.682-0.352-1.361-0.732-1.943-1.247c0.133-0.227,0.259-0.394,0.461-0.527c0.31-0.205,1.184-0.521,1.531-0.654
	l0.772-0.305c0.265-0.106,0.745-0.272,0.989-0.436c0.076-0.049,0.139-0.132,0.106-0.224c-0.073-0.214-1.13-0.815-1.386-0.993
	l-2.749,1.034l-0.584-0.637L115.379,39.852"/>
<path class="st2" d="M117.107,44.811l-0.17,0.072c-0.422,0.214-0.85-1.068-0.713-0.587c0.119,0.416,0.664,2.517,1.107,2.291
	c0.713-0.361,0.426-1.694,1.348-2.162c0.777-0.395,1.975,0.289,2.182,1.076c0.089,0.34,0.038,0.675-0.163,1.015
	c-0.259-0.028-0.487-0.139-0.719-0.248c0.196-0.312,0.342-0.665,0.253-1.007c-0.107-0.41-0.536-0.555-0.913-0.362
	c-0.821,0.417-0.382,1.713-1.259,2.158c-1.055,0.535-2.217-2.162-2.49-3.112c-0.146-0.514,0.086,0.657,0.619,0.386l0.214-0.095
	L117.107,44.811"/>
<path class="st3" d="M63.707,96.996c0-3.114-41.881-25.021-41.881-44.351c0-19.329,12.457-26.632,24.913-26.632
	c12.457,0,16.968,6.659,16.968,7.947c0-1.288,4.51-7.947,16.967-7.947s24.912,7.303,24.912,26.632
	C105.586,71.976,63.707,93.882,63.707,96.996z"/>
<path class="st4" d="M35.679,83.626c-1.181-0.644-1.825-1.61-3.758-2.899c-1.934-1.288-3.33-2.362-3.33-2.362
	c-0.537-1.396-0.644-1.933-0.966-2.362c-0.322-0.429-0.429-2.898-0.644-5.262c-0.195-2.14-1.504-4.832-1.504-4.832
	c0.859-1.074,0.322-4.295-0.215-5.477c-0.536-1.182-3.221-2.9-4.188-2.577c-0.966,0.321-2.147,7.517-2.04,9.234
	c0.107,1.72,0.215,10.632,0.752,12.35c0.536,1.719,3.221,7.41,5.476,9.879c2.256,2.471,9.88,9.235,12.135,10.847
	c2.255,1.611,8.022,5.903,9.342,7.517c0.967,1.181,0.215,2.899,0.215,2.899h16.753c0-2.47-1.719-3.222-1.719-5.153
	c0-3.223,1.719-3.867,1.719-7.732c0-3.866-2.792-6.444-5.584-8.161c-2.792-1.719-6.658-2.577-9.02-5.155
	c-2.363-2.577-7.41-7.839-9.235-9.664c-1.771-1.771-3.652-1.934-5.369-1.29c-1.719,0.646-2.363,1.72-1.933,3.76
	c0.2,0.951,3.758,4.08,6.121,7.087c2.362,3.007,4.009,6.389,4.868,8.752c-0.859-2.363-2.648-5.853-5.011-8.86L35.679,83.626"/>
<path class="st1" d="M35.679,83.626c-1.181-0.644-1.825-1.61-3.758-2.899c-1.934-1.288-3.33-2.362-3.33-2.362
	c-0.537-1.396-0.644-1.933-0.966-2.362c-0.322-0.429-0.429-2.898-0.644-5.262c-0.195-2.14-1.504-4.832-1.504-4.832
	c0.859-1.074,0.322-4.295-0.215-5.477c-0.536-1.182-3.221-2.9-4.188-2.577c-0.966,0.321-2.147,7.517-2.04,9.234
	c0.107,1.72,0.215,10.632,0.752,12.35c0.536,1.719,3.221,7.41,5.476,9.879c2.256,2.471,9.88,9.235,12.135,10.847
	c2.255,1.611,8.022,5.903,9.342,7.517c0.967,1.181,0.215,2.899,0.215,2.899h16.753c0-2.47-1.719-3.222-1.719-5.153
	c0-3.223,1.719-3.867,1.719-7.732c0-3.866-2.792-6.444-5.584-8.161c-2.792-1.719-6.658-2.577-9.02-5.155
	c-2.363-2.577-7.41-7.839-9.235-9.664c-1.771-1.771-3.652-1.934-5.369-1.29c-1.719,0.646-2.363,1.72-1.933,3.76
	c0.2,0.951,3.758,4.08,6.121,7.087c2.362,3.007,4.009,6.389,4.868,8.752c-0.859-2.363-2.648-5.853-5.011-8.86L35.679,83.626z"/>
<path class="st2" d="M11.578,122.009H9.124v-0.285c0.382-0.067,0.65-0.113,0.65-0.804v-2.604H8.032v2.604
	c0,0.69,0.268,0.736,0.65,0.804v0.285H6.25v-0.285c0.383-0.079,0.614-0.135,0.614-0.804v-5.48c0-0.736-0.31-0.759-0.614-0.804
	v-0.283h2.433v0.283c-0.318,0.034-0.65,0.056-0.65,0.804v2.345h1.741v-2.345c0-0.748-0.332-0.77-0.65-0.804v-0.283h2.455v0.283
	c-0.311,0.034-0.635,0.067-0.635,0.804v5.48c0,0.681,0.251,0.725,0.635,0.804V122.009"/>
<path class="st2" d="M16.775,114.636c-0.397,0.09-0.563,0.215-0.563,0.962v3.613c0,0.668-0.102,1.676-0.404,2.186
	c-0.361,0.612-0.99,0.826-1.423,0.826c-0.318,0-0.996-0.067-1.465-0.713c-0.311-0.431-0.499-0.826-0.499-2.049v-3.783
	c0-0.952-0.188-0.975-0.591-1.042v-0.283h2.44v0.283c-0.477,0.034-0.701,0.045-0.701,1.042v3.783c0,0.645,0,2.207,1.04,2.207
	c1.271,0,1.285-1.733,1.285-2.457v-3.454c0-0.69-0.086-1.076-0.707-1.121v-0.283h1.588V114.636"/>
<path class="st2" d="M23.576,122.009h-2.397v-0.285c0.433-0.067,0.642-0.101,0.642-0.848v-5.708h-0.014l-1.805,6.841h-0.195
	l-1.804-6.671h-0.015v5.266c0,0.793,0.13,1.064,0.729,1.12v0.285h-1.689v-0.285c0.562-0.079,0.656-0.248,0.656-0.904v-5.38
	c0-0.589-0.129-0.748-0.642-0.804v-0.283h1.827l1.444,5.345l1.443-5.345h1.82v0.283c-0.404,0.045-0.635,0.067-0.635,1.042v5.006
	c0,0.905,0.159,0.939,0.635,1.04V122.009"/>
<path class="st2" d="M29.069,121.724c0.434-0.079,0.636-0.158,0.636-0.904v-5.369c-0.405-0.78-0.52-0.814-0.614-0.814v-0.283h1.523
	l2.506,4.835h0.014v-3.431c0-0.681-0.086-1.054-0.671-1.121v-0.283h1.552v0.283c-0.52,0.102-0.563,0.361-0.563,0.905v6.669H33.25
	l-3.213-6.136h-0.014v4.529c0,0.815,0.151,1.03,0.685,1.12v0.285h-1.639V121.724"/>
<path class="st2" d="M40.504,122.009h-2.339v-0.285c0.447-0.056,0.577-0.067,0.577-0.44c0-0.307-0.231-1.144-0.332-1.507h-1.625
	c-0.201,0.815-0.318,1.279-0.318,1.462c0,0.43,0.347,0.464,0.593,0.485v0.285h-1.466v-0.285c0.39-0.09,0.491-0.475,0.708-1.323
	l1.602-6.206h0.203l1.61,5.957c0.325,1.211,0.44,1.596,0.787,1.572V122.009"/>
<path class="st2" d="M46.718,114.636c-0.253,0.034-0.411,0.306-0.498,0.725l-1.444,6.816h-0.195l-1.213-5.299h-0.051l-1.313,5.299
	h-0.202l-1.531-6.816c-0.123-0.544-0.195-0.657-0.498-0.725v-0.283h2.123v0.283c-0.261,0.034-0.463,0.056-0.463,0.475
	c0,0.126,0.022,0.25,0.051,0.374l0.859,4.089h0.015l0.844-3.455l-0.253-1.086c-0.093-0.25-0.173-0.375-0.52-0.396v-0.283h2.253
	v0.283c-0.31,0.034-0.52,0.045-0.52,0.431c0,0.136,0.058,0.407,0.101,0.622l0.773,3.772h0.014l0.802-3.852
	c0.022-0.114,0.05-0.237,0.05-0.476c0-0.464-0.252-0.477-0.498-0.498v-0.283h1.314V114.636"/>
<path class="st2" d="M50.945,122.009h-2.338v-0.285c0.447-0.056,0.577-0.067,0.577-0.44c0-0.307-0.231-1.144-0.332-1.507h-1.625
	c-0.202,0.815-0.318,1.279-0.318,1.462c0,0.43,0.347,0.464,0.593,0.485v0.285h-1.466v-0.285c0.39-0.09,0.491-0.475,0.708-1.323
	l1.603-6.206h0.202l1.609,5.957c0.326,1.211,0.441,1.596,0.787,1.572V122.009"/>
<path class="st2" d="M56.18,122.009H54.7l-1.495-3.546H53.01v2.221c0,0.905,0.159,0.939,0.636,1.04v0.285h-2.441v-0.285
	c0.491-0.09,0.636-0.123,0.636-1.04v-5.006c0-0.975-0.224-0.997-0.636-1.042v-0.283h2.325c0.506,0,2.037,0.09,2.037,1.993
	c0,1.393-0.745,1.744-1.134,1.936l1.451,3.229c0.101,0.203,0.209,0.214,0.296,0.214V122.009"/>
<path class="st2" d="M56.567,114.353h4.166v2.276h-0.181c-0.166-1.608-0.678-1.892-1.653-1.892c-0.397,0-0.527,0.045-0.527,0.532
	v2.627c0.693,0.011,1.061-0.283,1.17-1.688h0.187v3.828h-0.187c-0.087-1.415-0.455-1.756-1.17-1.756v2.741
	c0,0.499,0.137,0.634,0.606,0.634c0.708,0,1.445-0.294,1.899-2.004h0.202l-0.288,2.356h-4.224v-0.285
	c0.411-0.067,0.635-0.101,0.635-0.804v-5.48c0-0.748-0.303-0.77-0.635-0.804V114.353"/>
<path class="st2" d="M61.383,121.724c0.433-0.079,0.635-0.158,0.635-0.904v-5.369c-0.405-0.78-0.52-0.814-0.614-0.814v-0.283h1.524
	l2.505,4.835h0.015v-3.431c0-0.681-0.087-1.054-0.672-1.121v-0.283h1.552v0.283c-0.52,0.102-0.562,0.361-0.562,0.905v6.669h-0.201
	l-3.214-6.136h-0.014v4.529c0,0.815,0.151,1.03,0.686,1.12v0.285h-1.639V121.724"/>
<path class="st2" d="M66.762,114.353h4.166v2.276h-0.18c-0.168-1.608-0.68-1.892-1.654-1.892c-0.397,0-0.527,0.045-0.527,0.532
	v2.627c0.693,0.011,1.062-0.283,1.17-1.688h0.188v3.828h-0.188c-0.087-1.415-0.455-1.756-1.17-1.756v2.741
	c0,0.499,0.137,0.634,0.607,0.634c0.707,0,1.442-0.294,1.897-2.004h0.203l-0.289,2.356h-4.224v-0.285
	c0.412-0.067,0.636-0.101,0.636-0.804v-5.48c0-0.748-0.304-0.77-0.636-0.804V114.353"/>
<path class="st2" d="M75.03,116.629c-0.129-0.793-0.563-2.095-1.415-2.095c-0.375,0-0.771,0.339-0.771,1.075
	c0,0.611,0.137,0.861,0.744,1.337l1.061,0.825c0.246,0.193,0.794,0.851,0.794,2.084c0,0.997-0.462,2.367-1.79,2.367
	c-0.686,0-1.012-0.385-1.236-0.385c-0.152,0-0.187,0.204-0.216,0.385h-0.21v-2.796h0.21c0.144,1.143,0.563,2.424,1.479,2.424
	c0.867,0,0.904-1.123,0.904-1.271c0-0.759-0.341-1.031-0.81-1.381l-0.483-0.362c-1.234-0.93-1.234-1.903-1.234-2.423
	c0-0.691,0.224-2.23,1.596-2.23c0.577,0,0.917,0.372,1.126,0.372c0.166,0,0.202-0.168,0.237-0.385h0.218v2.458H75.03"/>
<path class="st2" d="M78.935,116.629c-0.13-0.793-0.563-2.095-1.415-2.095c-0.376,0-0.774,0.339-0.774,1.075
	c0,0.611,0.138,0.861,0.745,1.337l1.061,0.825c0.246,0.193,0.795,0.851,0.795,2.084c0,0.997-0.463,2.367-1.791,2.367
	c-0.686,0-1.01-0.385-1.234-0.385c-0.15,0-0.188,0.204-0.217,0.385h-0.209v-2.796h0.209c0.145,1.143,0.564,2.424,1.48,2.424
	c0.866,0,0.902-1.123,0.902-1.271c0-0.759-0.339-1.031-0.809-1.381l-0.483-0.362c-1.235-0.93-1.235-1.903-1.235-2.423
	c0-0.691,0.225-2.23,1.596-2.23c0.578,0,0.916,0.372,1.127,0.372c0.166,0,0.201-0.168,0.238-0.385h0.217v2.458H78.935"/>
<path class="st2" d="M84.519,122.009h-2.526v-0.285c0.391-0.056,0.671-0.101,0.671-0.804v-5.48c0-0.748-0.339-0.77-0.671-0.804
	v-0.283h2.526v0.283c-0.339,0.021-0.685,0.034-0.685,0.804v5.48c0,0.725,0.289,0.759,0.685,0.804V122.009"/>
<path class="st2" d="M84.771,121.724c0.433-0.079,0.635-0.158,0.635-0.904v-5.369c-0.404-0.78-0.52-0.814-0.613-0.814v-0.283h1.523
	l2.505,4.835h0.015v-3.431c0-0.681-0.086-1.054-0.67-1.121v-0.283h1.551v0.283c-0.52,0.102-0.562,0.361-0.562,0.905v6.669h-0.202
	l-3.214-6.136h-0.014v4.529c0,0.815,0.152,1.03,0.686,1.12v0.285h-1.639V121.724"/>
<path class="st2" d="M92.995,116.629c-0.131-0.793-0.563-2.095-1.416-2.095c-0.375,0-0.772,0.339-0.772,1.075
	c0,0.611,0.138,0.861,0.744,1.337l1.062,0.825c0.245,0.193,0.794,0.851,0.794,2.084c0,0.997-0.462,2.367-1.791,2.367
	c-0.686,0-1.01-0.385-1.234-0.385c-0.151,0-0.188,0.204-0.215,0.385h-0.211v-2.796h0.211c0.144,1.143,0.562,2.424,1.479,2.424
	c0.866,0,0.901-1.123,0.901-1.271c0-0.759-0.338-1.031-0.809-1.381l-0.482-0.362c-1.236-0.93-1.236-1.903-1.236-2.423
	c0-0.691,0.225-2.23,1.596-2.23c0.578,0,0.917,0.372,1.127,0.372c0.166,0,0.202-0.168,0.238-0.385h0.217v2.458H92.995"/>
<path class="st2" d="M97.53,122.009h-2.577v-0.285c0.527-0.067,0.7-0.09,0.7-1.04v-5.969c-0.505,0.045-1.249,0.102-1.394,1.914
	h-0.209l0.021-2.276h4.332l0.016,2.276h-0.209c-0.146-1.812-0.89-1.869-1.388-1.914v5.969c0,0.961,0.173,0.984,0.707,1.04V122.009"
	/>
<path class="st2" d="M101.424,122.009h-2.525v-0.285c0.389-0.056,0.671-0.101,0.671-0.804v-5.48c0-0.748-0.339-0.77-0.671-0.804
	v-0.283h2.525v0.283c-0.338,0.021-0.686,0.034-0.686,0.804v5.48c0,0.725,0.29,0.759,0.686,0.804V122.009"/>
<path class="st2" d="M105.377,122.009h-2.578v-0.285c0.526-0.067,0.699-0.09,0.699-1.04v-5.969
	c-0.505,0.045-1.248,0.102-1.393,1.914h-0.209l0.021-2.276h4.332l0.014,2.276h-0.209c-0.145-1.812-0.889-1.869-1.385-1.914v5.969
	c0,0.961,0.172,0.984,0.707,1.04V122.009"/>
<path class="st2" d="M111.604,114.636c-0.397,0.09-0.563,0.215-0.563,0.962v3.613c0,0.668-0.101,1.676-0.404,2.186
	c-0.36,0.612-0.988,0.826-1.422,0.826c-0.317,0-0.996-0.067-1.465-0.713c-0.311-0.431-0.498-0.826-0.498-2.049v-3.783
	c0-0.952-0.188-0.975-0.594-1.042v-0.283h2.441v0.283c-0.477,0.034-0.701,0.045-0.701,1.042v3.783c0,0.645,0,2.207,1.041,2.207
	c1.27,0,1.285-1.733,1.285-2.457v-3.454c0-0.69-0.088-1.076-0.709-1.121v-0.283h1.589V114.636"/>
<path class="st2" d="M115.516,122.009h-2.578v-0.285c0.527-0.067,0.701-0.09,0.701-1.04v-5.969c-0.506,0.045-1.25,0.102-1.395,1.914
	h-0.209l0.021-2.276h4.332l0.015,2.276h-0.21c-0.145-1.812-0.889-1.869-1.387-1.914v5.969c0,0.961,0.175,0.984,0.709,1.04V122.009"
	/>
<path class="st2" d="M116.688,114.353h4.166v2.276h-0.182c-0.166-1.608-0.678-1.892-1.652-1.892c-0.398,0-0.527,0.045-0.527,0.532
	v2.627c0.693,0.011,1.061-0.283,1.17-1.688h0.188v3.828h-0.188c-0.087-1.415-0.455-1.756-1.17-1.756v2.741
	c0,0.499,0.139,0.634,0.605,0.634c0.709,0,1.445-0.294,1.9-2.004h0.202l-0.29,2.356h-4.223v-0.285
	c0.41-0.067,0.635-0.101,0.635-0.804v-5.48c0-0.748-0.302-0.77-0.635-0.804V114.353"/>
<path class="st2" d="M28.716,122.009h-2.339v-0.285c0.447-0.056,0.577-0.067,0.577-0.44c0-0.307-0.231-1.144-0.332-1.507h-1.624
	c-0.202,0.815-0.318,1.279-0.318,1.462c0,0.43,0.346,0.464,0.592,0.485v0.285h-1.466v-0.285c0.39-0.09,0.491-0.475,0.708-1.323
	l1.602-6.206h0.203l1.61,5.957c0.325,1.211,0.44,1.596,0.787,1.572V122.009"/>
<polygon class="st4" points="26.514,119.335 25.784,116.583 25.106,119.335 "/>
<polygon class="st6" points="26.514,119.335 25.784,116.583 25.106,119.335 "/>
<polygon class="st4" points="38.301,119.335 37.572,116.583 36.895,119.335 "/>
<polygon class="st6" points="38.301,119.335 37.572,116.583 36.895,119.335 "/>
<polygon class="st4" points="48.744,119.335 48.014,116.583 47.336,119.335 "/>
<polygon class="st6" points="48.744,119.335 48.014,116.583 47.336,119.335 "/>
<path class="st4" d="M53.01,118.102c0.946-0.012,1.322-0.262,1.322-1.734c0-1.142-0.296-1.63-0.874-1.63
	c-0.397,0-0.412,0.124-0.448,0.477V118.102"/>
<path class="st6" d="M53.01,118.102c0.946-0.012,1.322-0.262,1.322-1.734c0-1.142-0.296-1.63-0.874-1.63
	c-0.397,0-0.412,0.124-0.448,0.477V118.102z"/>
</svg>
