<?xml version="1.0" encoding="UTF-8" standalone="no"?>
<svg xmlns="http://www.w3.org/2000/svg" xmlns:xlink="http://www.w3.org/1999/xlink" viewBox=".397 .397 126.166 124.728" stroke-width="1.289">
<defs>
 <path id="U" d="m0 114.636c-0.397 0.09-0.563 0.215-0.563 0.962v3.613c0 0.668-0.102 1.676-0.404 2.186-0.361 0.612-0.99 0.826-1.423 0.826-0.318 0-0.996-0.067-1.465-0.713-0.311-0.431-0.499-0.826-0.499-2.049v-3.783c0-0.952-0.188-0.975-0.591-1.042v-0.283h2.44v0.283c-0.477 0.034-0.701 0.045-0.701 1.042v3.783c0 0.645 0 2.207 1.04 2.207 1.271 0 1.285-1.733 1.285-2.457v-3.454c0-0.69-0.086-1.076-0.707-1.121v-0.283h1.588v0.283"/>
 <path id="N" d="m0 121.724c0.433-0.079 0.635-0.158 0.635-0.904v-5.369c-0.405-0.78-0.52-0.814-0.614-0.814v-0.283h1.524l2.505 4.835h0.015v-3.431c0-0.681-0.087-1.054-0.672-1.121v-0.283h1.552v0.283c-0.52 0.102-0.562 0.361-0.562 0.905v6.669h-0.201l-3.214-6.136h-0.014v4.529c0 0.815 0.151 1.03 0.686 1.12v0.285h-1.639v-0.285"/>
 <path id="I" d="m0 122.009h-2.526v-0.285c0.391-0.056 0.671-0.101 0.671-0.804v-5.48c0-0.748-0.339-0.77-0.671-0.804v-0.283h2.526v0.283c-0.339 0.021-0.685 0.034-0.685 0.804v5.48c0 0.725 0.289 0.759 0.685 0.804v0.285"/>
 <path id="T" d="m0 122.009h-2.577v-0.285c0.527-0.067 0.7-0.09 0.7-1.04v-5.969c-0.505 0.045-1.249 0.102-1.394 1.914h-0.209l0.021-2.276h4.332l0.016 2.276h-0.209c-0.146-1.812-0.89-1.869-1.388-1.914v5.969c0 0.961 0.173 0.984 0.707 1.04v0.285"/>
 <path id="E" d="m0 114.353h4.166v2.276h-0.181c-0.166-1.608-0.678-1.892-1.653-1.892-0.397 0-0.527 0.045-0.527 0.532v2.627c0.693 0.011 1.061-0.283 1.17-1.688h0.187v3.828h-0.187c-0.087-1.415-0.455-1.756-1.17-1.756v2.741c0 0.499 0.137 0.634 0.606 0.634 0.708 0 1.445-0.294 1.899-2.004h0.202l-0.288 2.356h-4.224v-0.285c0.411-0.067 0.635-0.101 0.635-0.804v-5.48c0-0.748-0.303-0.77-0.635-0.804v-0.281"/>
 <path id="S" d="m0 116.629c-0.129-0.793-0.563-2.095-1.415-2.095-0.375 0-0.771 0.339-0.771 1.075 0 0.611 0.137 0.861 0.744 1.337l1.061 0.825c0.246 0.193 0.794 0.851 0.794 2.084 0 0.997-0.462 2.367-1.79 2.367-0.686 0-1.012-0.385-1.236-0.385-0.152 0-0.187 0.204-0.216 0.385h-0.21v-2.796h0.21c0.144 1.143 0.563 2.424 1.479 2.424 0.867 0 0.904-1.123 0.904-1.271 0-0.759-0.341-1.031-0.81-1.381l-0.483-0.362c-1.234-0.93-1.234-1.903-1.234-2.423 0-0.691 0.224-2.23 1.596-2.23 0.577 0 0.917 0.372 1.126 0.372 0.166 0 0.202-0.168 0.237-0.385h0.218v2.458h-0.204"/>
 <path id="A" d="m0 122.009h-2.339v-0.285c0.447-0.056 0.577-0.067 0.577-0.44 0-0.307-0.231-1.144-0.332-1.507h-1.624c-0.202 0.815-0.318 1.279-0.318 1.462 0 0.43 0.346 0.464 0.592 0.485v0.285h-1.466v-0.285c0.39-0.09 0.491-0.475 0.708-1.323l1.602-6.206h0.203l1.61 5.957c0.325 1.211 0.44 1.596 0.787 1.572v0.285m-2.202-2.674-0.73-2.752-0.678 2.752"/>
</defs>

 <rect fill="#9e3127" height="126.166" width="124.728" y=".397" x=".397"/>
 <g fill="#9e3127" stroke="#fff">
  <path d="m63.707 96.996c0-3.114-41.881-25.021-41.881-44.351 0-19.329 12.457-26.632 24.913-26.632 12.457 0 16.968 6.659 16.968 7.947 0-1.288 4.51-7.947 16.967-7.947s24.912 7.303 24.912 26.632c0 19.331-41.879 41.237-41.879 44.351z"/>
  <path d="m35.679 83.626c-1.181-0.644-1.825-1.61-3.758-2.899-1.934-1.288-3.33-2.362-3.33-2.362-0.537-1.396-0.644-1.933-0.966-2.362s-0.429-2.898-0.644-5.262c-0.195-2.14-1.504-4.832-1.504-4.832 0.859-1.074 0.322-4.295-0.215-5.477-0.536-1.182-3.221-2.9-4.188-2.577-0.966 0.321-2.147 7.517-2.04 9.234 0.107 1.72 0.215 10.632 0.752 12.35 0.536 1.719 3.221 7.41 5.476 9.879 2.256 2.471 9.88 9.235 12.135 10.847 2.255 1.611 8.022 5.903 9.342 7.517 0.967 1.181 0.215 2.899 0.215 2.899h16.753c0-2.47-1.719-3.222-1.719-5.153 0-3.223 1.719-3.867 1.719-7.732 0-3.866-2.792-6.444-5.584-8.161-2.792-1.719-6.658-2.577-9.02-5.155-2.363-2.577-7.41-7.839-9.235-9.664-1.771-1.771-3.652-1.934-5.369-1.29-1.719 0.646-2.363 1.72-1.933 3.76 0.2 0.951 3.758 4.08 6.121 7.087 2.362 3.007 4.009 6.389 4.868 8.752-0.859-2.363-2.648-5.853-5.011-8.86l-2.865-0.539z"/>
 </g>
<g fill="#fff">
 <path d="m91.734 83.941c1.182-0.652 1.825-1.63 3.759-2.936 1.933-1.303 3.328-2.391 3.328-2.391 0.538-1.412 0.644-1.957 0.967-2.39 0.321-0.437 0.429-2.936 0.644-5.328 0.195-2.168 1.504-4.892 1.504-4.892-0.859-1.086-0.322-4.347 0.215-5.543 0.537-1.195 3.223-2.935 4.188-2.608 0.967 0.326 2.148 7.608 2.041 9.348s-0.216 10.761-0.752 12.501c-0.537 1.738-3.222 7.5-5.477 10-2.255 2.499-9.879 9.348-12.135 10.979-2.256 1.63-8.021 5.975-9.342 7.608-0.967 1.195-0.215 2.936-0.215 2.936h-16.752c0-2.5 1.717-3.262 1.717-5.219 0-3.261-1.717-3.912-1.717-7.826 0-3.913 2.791-6.521 5.584-8.261 2.791-1.74 6.657-2.609 9.021-5.218 2.362-2.608 7.409-7.935 9.235-9.782 1.77-1.793 3.65-1.956 5.369-1.305 1.717 0.65 2.362 1.739 1.932 3.805-0.199 0.963-3.758 4.13-6.12 7.175-2.362 3.043-4.011 6.466-4.869 8.857 0.858-2.392 2.649-5.925 5.011-8.968l2.864-0.542"/>
 <path d="m77.11 40.641c-0.419 0.098-1.082-0.167-0.99-0.763 0.067-0.436 0.564-0.509 1.011-0.44-0.386 0.55 0.785 1.013-0.021 1.203"/>
 <path d="m66.338 30.417l-1.719 1.772-0.912 1.771-0.645-1.396-1.288-1.529-2.121-1.665-1.611-0.913c-0.599 0.326-1.503 1.209-1.648 1.938-0.11 0.547-1.034-0.014-1.308 0.306-0.394 0.456-0.383 1.221-0.579 1.843-0.235 0.743-1.121 0.752-1.861 0.881 1.354 0.462 2.998-0.684 4.151-1.388 1.195-0.728 2.025 0.356 2.668 1.42 0.299 0.496-0.184 0.906-0.591 1.257 0.143 0.143 0.399 0.315 0.372 0.413-0.377 1.365 0.917 2.751-0.044 3.789-0.113 0.122-0.036-0.81-0.263-0.663-1.156 0.738-1.368 2.104-2.049 3.219-0.498 0.815-0.513 2.033-0.378 3.121 0.361-0.076 0.538 0.273 0.578 0.445 0.361 1.576-0.177 3.557 0.925 4.71-0.269-0.983-0.828-1.956-0.215-3.007 0.846 0.913 0.652 2.198 1.41 3.287 0.282 0.406-0.054 1.142 0.167 1.618 0.523 1.124 1.857 1.297 2.797 1.796 1.529 0.811 2.905 2.192 3.517 4.203 0.066 0.212 0.533 0.65 0.915 0.907-0.547 0.149-0.382 0.814-0.75 1.184-0.328 0.33 0.067 1.261-0.198 1.777-0.347 0.675-0.523 1.43-1.091 2.076-0.327 0.372-0.108 1.191-0.108 1.836 1.245-0.078 0.857 1.228 1.454 1.771 0.146 0.133-0.034 0.56 0.091 0.783 0.641 1.15 2.291 1.597 2.5 2.649 0.573 2.877 0.588 5.785 1.412 8.447 0.334 1.074 0.795 2.292 1.176 3.469 0.446 1.385 2.035 2.37 3.677 1.994-0.681 0.025-1.32-0.384-1.386-0.875-0.268-2.017-1.17-4.677 1.338-5.881 0.084-0.039-0.321-0.518-0.308-0.757 0.027-0.411 0.696-0.326 0.923-0.521 0.426-0.37 0.655-0.971 1.064-1.483 0.477-0.597 0.064-1.646 0.441-2.198 0.453-0.663 1.697-0.175 1.904-1.19 0.252-1.23 0.235-2.54 0.705-3.55 0.371-0.795 1.371-1.628 1.053-2.639-0.422-1.341-1.791-1.758-3.156-1.807-0.223-0.008-0.4-0.415-0.662-0.547-0.174-0.086-0.459 0.044-0.604-0.064-0.478-0.357-0.65-0.989-0.992-1.372-1.06-1.187-2.582-1.831-4.017-2.592-0.455-0.242-1.101-0.045-1.673-0.099-0.346-0.033-0.098-0.61-0.43-0.592-0.616 0.037-0.562 0.946-1.285 0.598-0.379-0.183-0.176-0.554-0.221-0.847-0.805 0.169-1.363 0.131-1.642-0.672-0.169-0.488-0.423-1.085-0.351-1.444 0.281-1.393-0.338-2.085-1.103-2.938-0.42-0.468 0.22-1.274 0.733-1.819-0.881-0.759-1.241 0.76-1.948 1.038-0.762 0.299-1.424-0.506-1.569-1.072-0.478-1.864 0.986-3.343 2.503-4.389 0.045-0.033 0.336 0.43 0.598 0.512 0.515 0.163 0.66-0.904 1.249-0.557 0.827 0.488 1.29 1.361 1.099 2.32 0.145 0 0.375 0.021 0.383-0.011 0.142-0.637-0.168-1.424 0.155-1.839 0.675-0.863 1.909-1.448 2.272-2.314 0.369-0.88 1.152-1.538 1.769-2.447 0.097-0.14 0.593 0.051 0.743-0.096 0.559-0.54 0.812-1.485 1.764-1.428 0.334 0.021 0.297 0.67 0.629 0.565 0.473-0.151 0.896-0.491 1.307-0.808-0.295-0.044-0.764 0.158-0.799-0.22-0.068-0.719-1.276-0.953-0.815-1.388 1.004-0.949 3.215 0.358 3.543-1.229 0.176-0.857-0.681-1.865-0.642-2.962-0.33 0.057-0.58 0.245-0.867 0.413-0.188 0.11-0.397-0.055-0.379-0.192 0.127-0.987-0.598-2.237-1.465-1.785-1.076 0.562-0.83 2.242-2.119 3.213-0.291 0.219-0.002 1.208-0.571 1.513-0.238 0.128-0.747-0.162-0.74-0.365 0.04-1.203-0.803-1.822-1.471-2.674-0.713-0.911 0.633-1.447 1.319-2.12 0.14-0.137-0.33-0.599-0.274-0.763 0.237-0.703 0.953 0.31 1.387-0.062 0.14-0.12-0.038-0.295-0.188-0.398 0.574-0.579 1.193 0.369 1.688-0.038 0.497-0.412 1.325-0.388 1.467-1.051 0.06-0.271-0.343-0.184-0.576-0.2 0.059 0.209-0.053 0.376-0.219 0.402-1.636 0.261-0.234-1.813-1.115-2.491-0.168-0.128-0.777-0.182-0.721 0.14 0.131 0.752 0.342 1.943-0.326 2.042-1.189 0.175-2.424 0.133-3.623 0.022l-1.029-0.651-1.181 0.538"/>
 <path d="m78.028 30.187c0.229 0.595 0.774 1.133 0.735 1.729-0.034 0.524-0.645 0.24-1.024 0.146-0.878-0.218-0.022 1.76-0.989 1.433-0.636-0.215-0.689-1.165-1.554-1.358 0.653 0.088 1.089-0.357 1.247-0.872 0.08-0.259 0.21-0.735-0.18-0.792-0.894-0.129-1.104-0.786-1.463-1.363-0.101-0.161-0.088-0.526-0.006-0.564 0.748-0.339 0.696 0.606 1.047 1.015 0.225-0.726 0.854-0.466 1.502-0.645 0.095 0.489 0.507 0.806 0.685 1.271"/>
 <path d="m85.918 33.387c-0.406 0.191-1.101 0.033-1.143-0.201-0.141-0.785 0.906-0.326 1.375-0.621 0.013 0.307 0.057 0.685-0.232 0.822"/>
 <path d="m86.35 37.948c0.914 1.019-0.619 1.116-1.273 1.275 0.918-0.808-0.059-2.003 0.43-3.008 0.229 0.536 0.483 0.88 0.478 1.504-0.003 0.072 0.263 0.116 0.365 0.229"/>
 <path d="m83.812 37.94c0.102-0.406 0.558-0.273 0.836-0.437-0.093 0.428 0.266 0.975-0.233 1.258-0.166 0.096-0.498 0.103-0.578-0.005-0.145-0.19-0.097-0.538-0.025-0.816"/>
 <path d="m69.387 52.737c-0.184 0.11-0.344-0.035-0.403-0.204-0.045-0.129-0.054-0.356 0.004-0.386 0.231-0.116 0.646-0.136 0.791 0.01 0.21 0.214-0.163 0.441-0.392 0.58"/>
 <path d="m67.682 51.451c-0.666-0.104-0.943-0.968-1.719-0.846 1.17-0.648 1.562 1.04 2.576 0.859-0.287 0.001-0.57 0.03-0.857-0.013"/>
 <path d="m55.223 65.425c-0.682-0.586-1.239-0.844-2.191-0.593-0.393 0.103-0.546-0.729-0.697-1.314-0.19-0.729-1.382-0.639-1.701-1.18-0.188-0.318-0.617-0.873-0.351-1.424 0.763 0.487 1.337 1.988 2.148 0.645 0.215 0.215 0.397 0.533 0.657 0.589 1.549 0.328 2.622 1.775 2.135 3.277"/>
 <path d="m52.853 68.215c0.183-0.493 0.102-1.055 0.438-1.502 0.218 2.007 1.115 3.768 1.492 5.802 0.193 1.047 0.056 2.172-0.381 2.897-0.922 1.529-2.186 2.807-3.739 3.902-0.301 0.213-0.873 0.2-1.199 0.005-1.064-0.631-0.171-2.279-1.169-2.842-0.559-0.314-1.237-0.843-1.848-0.651-1.312 0.408-2.547 0.608-3.895 0.553-0.052-2.012-0.497-4.316 1.38-5.432 1.494-0.888 2.576-1.957 3.757-3.179 0.423-0.438 0.947 0.022 1.269-0.241 0.388-0.319 0.4-1.142 0.898-1.148 0.459-0.006 0.989 0.232 1.502 0.334-1.039 0.872-0.302 2.301 0.875 2.474 0.348 0.051 0.471-0.578 0.62-0.972"/>
 <path d="m49.412 81.292c-0.182 0.079-0.418 0.025-0.632 0.025 0.015-0.233-0.112-0.55 0.22-0.619 0.357-0.073 0.843-0.146 0.997 0.036 0.273 0.319-0.314 0.44-0.585 0.558"/>
 <path d="m54.311 83.833c-0.295 0.257-0.767 0.027-1.02-0.367 1.604 0.158 2.135-1.734 3.651-1.934-0.178 1.357-1.745 1.527-2.631 2.301"/>
 <path d="m42.981 64.137c-0.545 0.142-0.975-0.335-1.503-0.215 0.863 0.133 2.342-0.387 2.397 0.441 0.04 0.599-0.492-0.33-0.894-0.226"/>
 <path d="m41.269 62.639c-0.123 0.138-0.241 0.308-0.423 0.19-0.26-0.169-0.574-0.401-0.59-0.63-0.07-1.057-0.771-1.575-1.309-2.39-0.138-0.208 0.012-0.557-0.075-0.818-0.058-0.174-0.257-0.295-0.4-0.439 0.208 0.059 0.325-0.064 0.43-0.215 1.024 1.146 1.647 2.539 2.743 3.698 0.209 0.221-0.197 0.401-0.376 0.604"/>
 <path d="m44.486 62.215c-1.224 0.194-1.981-1.035-1.526-1.563 0.792-0.919 1.464-3.09 3.027-2.314-0.689 1.176-0.873 2.56-0.858 3.866-0.216-0.001-0.427-0.023-0.643 0.011"/>
 <path d="m46.837 62.18c-0.205 0.086-0.522-0.078-0.621 0.242-0.041 0.133-0.013 0.283-0.013 0.426-0.104-0.762 0.469-1.434 0-2.147 0.414-0.16 0.835-0.286 1.288-0.216-0.293 0.046-0.736-0.174-0.81 0.226-0.059 0.32 0.519 0.067 0.588 0.421 0.091 0.457-0.003 0.864-0.432 1.048"/>
 <path d="m48.097 57.833c-0.523 0.273-0.604-0.589-1.035-0.784 0.549 0.025 0.779-0.589 1.288-0.645-0.043 0.506 0.221 1.183-0.253 1.429"/>
 <path d="m46.015 52.973c0.047-0.293-0.295-0.681 0.188-0.864v1.075c-0.073-0.074-0.198-0.151-0.188-0.211"/>
 <path d="m45.343 50.391v-1.073c0.435 0.357 0.166 0.714 0 1.073"/>
 <path d="m47.491 45.021c-0.053 0.275-0.09 0.628-0.428 0.612-0.155-0.008-0.326-0.279-0.191-0.351 0.183-0.094 0.42-0.144 0.619-0.261"/>
 <path d="m48.116 43.064c0.655-0.521-0.265-1.121 0.02-1.694 0.788 0.692 0.958 1.653 0.765 2.559-0.161 0.763-1.164 0.382-1.839 0.448 0.256-0.408 0.446-0.843 0.681-1.267 0.034-0.063 0.282 0.027 0.373-0.046"/>
 <path d="m48.337 40.293c-0.147 0.503-0.573 0.092-0.846 0.219 0-0.286-0.097-0.665 0.049-0.812 0.171-0.172 0.47 0.311 0.81 0.167 0 0.144 0.026 0.291-0.013 0.426"/>
 <path d="m47.281 28.456c-1.926-0.317-3.902 0.422-5.494-0.21-0.88-0.349-1.839 0.651-2.647-0.214-0.135-0.145 0.023-0.347 0.195-0.382 0.358-0.074 0.728 0.045 1.058-0.061l2.051-1.36-3.973 0.911-3.276 1.289-0.59 0.269-4.296 2.793-3.221 3.329-2.792 4.778-1.718 5.262-0.483 3.329-0.269 4.456 0.537 3.759 0.493-1.91c-0.022-0.334 0.61-0.762 1.024-1.078 0.242-0.186 0.547 0.134 0.9-0.17 1.25-1.072 1.451-2.904-0.088-3.394-0.222-0.07-0.673 0.496-0.997 0.263-0.488-0.353-1.605-0.931-0.902-1.657 0.48 0.597 1.155 0.99 1.954 0.702 0.08-0.029 0.266 0.325 0.406 0.322 1.618-0.028 3.138 0.009 3.947 1.73 0.052 0.111 0.539-0.053 0.752 0.082 0.822 0.518 0.546 1.572 1.004 2.373 0.42 0.737 0.331 1.717 0.788 2.494 0.203 0.347 0.754 0.92 0.881 0.611 0.38-0.929 0.463-2.123 0.755-3.108 0.363-1.223 1.416-2.746 2.628-2.82 0.82-0.052 1.229 1.511 1.575 2.523 0.03 0.089 0.61-0.062 0.704 0.076 1.397 2.083 0.742 4.792 2.861 6.396 0-0.43 0.146-0.99-0.073-1.218-0.97-1.001-1.44-1.971-1.385-3.291 0.007-0.148 0.241-0.287 0.384-0.431 0.469 0.543 1.168 0.914 1.289 1.718 2.296-1.299 0.691-3.6-0.157-5.396-0.029-0.062 0.269-0.374 0.351-0.344 1.215 0.441 2.096-0.816 2.714-1.636 1.105-1.468 0.387-3.406-0.923-4.704-0.264-0.26 0.122-0.575 0.377-0.807-0.556-0.086-1.166-0.128-1.47-0.662-0.206-0.364 0.141-0.61 0.396-0.841 0.255 0.403 0.891 0.362 1.282 0.379 0.794 0.035 0.663 1.534 1.525 1.955 0.175 0.086 0.534 0.082 0.569 0.002 0.457-1.041-0.506-1.612-1.116-2.421-0.678-0.896 0.597-1.022 1.053-1.714 0.528-0.802-0.395-2.173 0.434-2.798 0.191-0.144-0.127 0.715 0.334 0.945 0.227-1.342-0.846-2.401-1.933-3.006 0.258 0.254 0.342 0.614 0.618 0.886 0.138 0.133-0.095 0.393-0.157 0.354-0.749-0.479-1.028-1.005-1.939-1.166-0.644-0.113-0.686-1.318-0.338-1.679 0.703-0.731 1.692-0.972 2.503-1.789 0.171-0.173 0.601 0.102 0.817-0.257 0.425 0.405 0.339 0.994 0.499 1.479 0.303 0.919 1.136 1.506 1.883 2.147 0.153 0.131 0.388-0.051 0.367-0.184-0.18-1.145-0.711-1.949-1.461-2.8 0.752-0.39 1.089-1.279 1.074-2.147-0.571 0.158-1.147-0.258-0.819-0.836 0.392-0.69 1.173 0.344 1.356-0.07 0.411-0.929-1.002-0.917-1.821-1.051"/>
 <path d="m88.273 27.928c-0.594-0.048-1.778 0.981-2.234 1.897-0.053 0.105 0.568 0.244 0.756 0.592-0.468 0.15-0.838-0.32-1.283-0.195-0.17 0.048-0.312 0.214-0.205 0.401 0.1 0.174 0.271 0.296 0.414 0.438-0.416 0.159-0.918 0.122-1.243 0.298-0.718 0.39-1.412 0.884-2.113 1.332-0.771 0.492-1.313 1.391-1.938 2.115-0.277 0.324-0.463-0.706-0.934-0.953 0.337-0.086 0.289-0.508 0.326-0.668 0.217-0.952-0.318-1.865 0.682-2.638 0.269-0.208-0.127-0.665-0.283-1.024-0.192-0.448-0.025-1.137-0.533-1.427-0.223-0.125-0.549-0.042-0.836-0.042 0.162-0.512 0.505-0.904 0.859-1.289-1.191-0.478-2.584 0.25-3.521 0.963-0.388 0.294-1.183-0.039-1.669-0.128-1.079-0.198-2.461 0.036-3.344 0.939-0.265 0.269 0.213 1.004-0.295 1.16-0.666 0.206-1.145-0.533-1.863-0.595l-0.905-0.03 3.167-1.45 3.65-1.127 4.297-0.484 4.562 0.216 3.651 0.483 2.147 0.644-1.312 0.572"/>
 <path d="m101.782 44.416c0.033 0.039-0.17 0.211-0.384 0.188-0.359-0.036-0.809 0.108-1.023-0.072-0.589-0.498-0.07-1.451-0.527-2.051-0.385-0.505-0.891-0.979-0.52-1.483 0.541-0.735 2.133-0.817 2.245 0.376 0.015 0.142-0.192 0.303-0.38 0.196-0.174-0.101-0.303-0.373-0.436-0.363-0.215 0.019-0.354 0.323-0.207 0.586 0.281 0.5 1.049 0.446 1.201 0.893 0.216 0.635-0.542 1.04 0.031 1.73m3.482 2.754l-1.342-5.209-1.289-3.544-3.597-5.153-2.577-2.202-0.254 1c0.533 0.961-1.878 2.012-2.154 0.473-0.047-0.257 1.14-0.189 1.177-0.425 0.198-1.25-2.052-0.99-3.126-1.576-0.258-0.14-0.885 0.116-1.223 0.531-1.166 1.432-3.136 2.576-2.945 4.261 0.054 0.479 1.964 0.065 1.867 1.535 0.375-0.506 0.125-1.114 0.859-1.288-0.374-1.376 0.713-2.104 1.289-3.222 0.357 0.214 0.285 0.657 0.156 0.81-0.408 0.482-0.514 1.054-0.299 1.521 0.435 0.949 1.246-0.658 1.837 0.052 0.071 0.088 0.053 0.353 0.009 0.368-1.221 0.401-1.33 1.283-2.2 2.119-0.918 0.883-2.264 0.756-2.725-0.573 0.163 0.766-0.111 1.601-1.074 1.502 0.126 0.281-0.201 0.424-0.285 0.613-0.394 0.897-1.819 0.832-2.155 1.595-0.11 0.248 0.955 0.61 0.651 1.192-0.385 0.737-1.694 0.325-1.998 1.141-0.235 0.633-0.321 1.603 0.043 2.009 0.295 0.327 1.409 0.326 1.681 0.001 0.961-1.15 1.582-3.062 3.322-2.576 0.762 0.211 1.152 1.081 1.521 1.83 0.096 0.194-0.04 0.349-0.207 0.41-0.129 0.044-0.282 0.014-0.426 0.014 0.562 0.06 1.067-0.05 1.504-0.429-0.611-0.611-1.373-1.138-1.66-1.954-0.029-0.083 0.3-0.373 0.33-0.352 1.164 0.812 2.398 1.576 2.188 3.164 0.216 0 0.531 0.065 0.591-0.032 0.213-0.351-0.131-0.724-0.375-1.042 0.385-0.275 0.937-0.259 1.223-0.505 0.541-0.467 0.295-1.398 0.574-2.037 0.332-0.757 1.052 0.439 1.605 0.122 0.116-0.065 0.066-0.603 0.184-0.508 0.791 0.656 1.194 1.562 2.213 1.854-1.533 0.641-4.748-0.505-4.112 1.885 0.217 0.814 1.862-0.335 2.319 0.725 0.34 0.787 0.201 1.938-0.273 2.411-0.939 0.937-2.521 0.364-3.732-0.079 0.072 0.442-0.117 1.212-0.606 0.988-0.683-0.31-1.097-0.981-1.95-1.117-0.579-0.093 0.143-1.331-0.68-1.53-1.565-0.381-2.946 0.498-4.446 0.817-0.655 0.139-1.062 1.111-1.16 2.125-0.03 0.317-0.438 0.129-0.573 0.256-0.867 0.811-1.572 1.938-1.58 2.971-0.006 0.894 0.02 1.869-0.02 2.789-0.012 0.268-0.462 0.601-0.303 0.812 0.803 1.081 1.109 2.393 2.002 3.102 0.947 0.753 2.82 0.628 3.984 0.028 0.736-0.377 1.16 0.696 1.803 0.989 0.803 0.364-0.08 1.912 0.424 2.73 0.846 1.374 1.34 3.211 0.881 4.237-0.99 2.213 0.902 4.553 0.506 6.787 0.499 0.089 1.055-0.219 1.503 0.215l0.431 0.215 2.254-2.094 2.148-2.148 1.934-2.309-0.108-0.752c-0.765-1.067-0.678-2.457-0.242-3.344 1.134-2.305 3.923-4.087 3.679-6.965-1.58 1.586-3.227-0.421-3.709-1.773-0.729-2.036-1.816-3.714-2.932-5.539-0.111-0.185 0.034-0.352 0.203-0.4 0.203-0.057 0.502-0.091 0.598 0.018 1.629 1.871 2.422 4.064 3.682 6.198 0.174 0.295 0.47 0.277 0.625 0.166 0.766-0.548 1.224-1.455 2.008-1.783 0.443-0.186 1.025-0.296 1.175-0.772 0.206-0.663 0.194-1.431 0.007-2.109-0.295-1.064-1.312 0.278-2.097-0.433-0.636-0.577-1.113-1.203-1.481-1.953-0.095-0.193 0.051-0.385 0.205-0.391 0.989-0.043 1.193 1.148 1.953 1.406 0.733 0.249 2.012-0.009 2.108 0.343l0.823 0.205-0.164-2.417z"/>
 <path d="m12.806 42.384c0.406 1.287 0.572 2.94 0.244 4.135-0.344 1.256-1.295 1.496-2.356 0.931-1.303-0.693-2.497-1.964-3.231-3.441-0.673-1.375-1.209-3.339-0.825-4.742 0.223-0.812 0.705-1.231 1.476-0.905l0.46 1.274c-0.662-0.311-1.378-0.325-1.605 0.499-0.307 1.119 0.21 2.51 0.861 3.506 0.685 1.056 1.709 2.024 2.714 2.559 0.927 0.495 1.886 0.413 2.197-0.719 0.277-1.01 0.068-2.277-0.232-3.354l0.297 0.257"/>
 <path d="m10.987 37.869c-0.08-0.398-0.128-0.847 0.002-1.198 0.113-0.306 0.293-0.397 0.568-0.425l-0.864-1.045c-0.094 0.11-0.192 0.233-0.244 0.373-0.142 0.388-0.01 0.896 0.082 1.332l0.122 0.678c-0.149-0.135-0.449-0.512-0.597-0.618-0.084-0.059-0.151-0.018-0.182 0.064-0.073 0.199 0.068 2.091 0.128 2.504l0.255 0.211c-0.002-0.283-0.076-0.839 0.014-1.086 0.06-0.164 0.166-0.162 0.303-0.064 0.284 0.202 0.873 0.875 1.133 1.179l1.945 2.188 0.022-1.109-2.687-2.984"/>
 <path d="m11.958 33.562c0.116-0.256 0.376-0.151 0.567 0.017 0.748 0.659 0.713 1.845 0.855 2.765-0.439-0.451-1.71-2.148-1.422-2.782m2.933 0.714c0.118 0.728 0.358 1.983 0.096 2.562-0.277 0.612-0.878 0.208-1.287-0.184l-0.025-0.224-0.296-2.428c-0.123-0.561-0.292-1.083-0.711-1.452-0.36-0.317-0.7-0.337-0.892 0.087-0.293 0.645-0.059 2.13 0.28 2.863 0.367 0.823 1.195 1.896 1.814 2.441 0.55 0.483 1.131 0.652 1.444-0.038 0.378-0.834 0.108-2.365-0.153-3.391l-0.27-0.236z"/>
 <path d="m16.441 33.529c-0.148 0.257-0.457-0.021-0.633-0.216-0.517-0.576-0.938-1.267-1.299-2.007-0.297-0.617-0.624-1.286-0.311-1.83 0.166-0.289 0.396-0.505 0.601-0.731l0.899 1.492 0.784 1.245c0.012 0.453 0.124 1.759-0.041 2.047m1.403-3.497l-0.258-0.287c-0.002 0.318 0.039 1.459-0.061 1.636-0.06 0.102-0.195-0.03-0.259-0.104-0.387-0.432-1.534-2.334-1.906-2.953l-0.236-0.38-0.161-0.669c-0.313 0.31-0.611 0.668-0.853 1.09-0.337 0.587-0.35 0.741-0.33 1.522 0.013 0.504 0.003 1.101 0.186 1.625 0.31 0.885 1.199 2.366 1.78 3.015 0.239 0.268 0.807 0.782 1.02 0.412 0.224-0.391 0.042-2.365 0.033-2.982l0.374 0.534c0.118 0.165 0.248 0.36 0.377 0.505 0.101 0.113 0.211 0.185 0.288 0.052 0.154-0.27 0.017-2.481 0.006-3.016"/>
 <path d="m19.697 27.522l-0.2-0.279-0.024 0.452c-0.027 0.316-0.128 1.366-0.202 1.469-0.147 0.205-0.393-0.175-0.535-0.372-0.159-0.222-0.428-0.802-0.56-1.06l-0.803-1.604 0.32-0.447 0.31-0.501-0.005-0.714-0.87 1.211-0.758-1.598-0.291-0.666-0.157 0.823-0.077 0.341 0.824 1.669-0.263 0.436-0.092 0.151-0.02 0.772 0.637-0.862 0.797 1.612c0.248 0.495 0.642 1.341 0.951 1.773 0.169 0.254 0.673 0.714 0.847 0.472 0.163-0.201 0.136-0.91 0.154-1.239l-0.006-0.735 0.023-1.104"/>
 <path d="m17.482 19.279l0.673 0.479 0.112 0.062-0.049 1.225c-0.269-0.136-0.56-0.289-0.809-0.536l0.073-1.23"/>
 <path d="m21.793 25.569l-0.084 0.616-0.078 0.607c-0.037 0.325-0.15 1.343-0.324 1.547-0.165 0.196-0.393-0.117-0.523-0.332-0.267-0.439-0.634-1.453-0.836-1.948l-0.273-0.714c-0.132-0.34-0.42-1.101-0.588-1.377-0.068-0.114-0.16-0.243-0.239-0.15-0.115 0.136-0.197 0.858-0.252 1.095l-0.199-0.368c0.057-0.499 0.259-2.227 0.454-2.457 0.058-0.067 0.117-0.052 0.178 0.05 0.084 0.139 0.317 0.748 0.395 0.937l1.056 2.596c0.101 0.249 0.264 0.66 0.394 0.874 0.084 0.138 0.25 0.352 0.359 0.222 0.115-0.134 0.235-0.813 0.275-1.055l0.1-0.527 0.185 0.384"/>
 <path d="m22.01 24.934c-0.202-0.646-0.772-2.576-1.032-3.107-0.046-0.095-0.115-0.188-0.186-0.122-0.109 0.104-0.245 0.573-0.307 0.752l-0.071 0.228-0.151-0.375c0.104-0.398 0.553-2.143 0.678-2.262 0.062-0.062 0.143-0.037 0.196 0.071 0.08 0.164 0.237 0.692 0.293 0.879l0.209 0.659 0.47-1.984c0.065-0.262 0.223-0.993 0.372-1.134 0.077-0.074 0.182-0.094 0.269 0.083 0.073 0.15 0.134 0.391 0.185 0.541l0.598 1.966c0.163 0.543 0.457 1.539 0.691 2.016 0.067 0.137 0.194 0.372 0.312 0.262 0.124-0.12 0.245-0.713 0.294-0.939l0.164-0.695 0.147 0.439c-0.166 1.017-0.354 2.033-0.655 2.938-0.185-0.143-0.325-0.288-0.452-0.547-0.193-0.395-0.545-1.555-0.69-2.015l-0.33-1.023c-0.115-0.35-0.302-0.989-0.456-1.302-0.046-0.094-0.117-0.168-0.178-0.108-0.149 0.142-0.45 1.725-0.544 2.113l1.135 3.646-0.39 0.931-0.571-1.911"/>
 <path d="m27.157 26.361c-0.277 0.201-0.894 0.573-1.151-0.113-0.217-0.585 0.037-1.586 0.155-2.099l0.355-1.593 0.543-2.231 0.643 2.84c0.402 1.732 0.512 2.43-0.545 3.196m-1.282-5.123c-0.234-0.629-0.479-1.918-0.555-2.606-0.132-1.038 0.153-1.244 0.635-1.612l0.755-0.546-0.023 0.109c-0.246 0.94-0.2 0.979 0.023 2.119l0.22 1.047-0.358 1.355-0.195 0.791c-0.261-0.124-0.361-0.278-0.502-0.657m2.231 0.724l-0.758-3.202-0.156-0.704-0.349-1.68c0.174-0.162 0.125-0.665 0.133-0.987l0.004-0.133-0.219 0.158-0.752 0.582c-0.369 0.268-0.585 0.404-0.778 0.973-0.19 0.546-0.362 1.117-0.411 1.784-0.054 0.855 0.343 2.835 0.659 3.682 0.131 0.352 0.326 0.674 0.564 0.854l-0.052 0.261-0.431 2.187c-0.085 0.489-0.196 1.163 0.006 1.703 0.279 0.745 1.041 0.305 1.335 0.091 0.487-0.353 0.851-0.746 1.14-1.455 0.223-0.516 0.472-1.42 0.442-2.103-0.021-0.541-0.245-1.457-0.377-2.011"/>
 <path d="m31.632 19.012c-0.225 0.103-0.375-0.366-0.445-0.665-0.206-0.876-0.289-1.775-0.3-2.67-0.006-0.743-0.017-1.553 0.459-1.771 0.252-0.114 0.53-0.119 0.791-0.152l0.166 1.937 0.167 1.639c-0.168 0.388-0.587 1.566-0.838 1.682m2.445-2.295c-0.126 0.265-0.541 1.252-0.694 1.321-0.09 0.041-0.15-0.175-0.176-0.283-0.155-0.657-0.367-3.127-0.435-3.928l-0.048-0.498 0.127-0.683c-0.383 0.018-0.774 0.094-1.141 0.262-0.513 0.234-0.585 0.353-0.875 1.022-0.187 0.434-0.43 0.926-0.483 1.504-0.088 0.978 0.074 2.896 0.306 3.882 0.097 0.407 0.369 1.271 0.693 1.123 0.341-0.155 0.964-1.948 1.199-2.472l0.103 0.732c0.034 0.228 0.066 0.492 0.118 0.711 0.04 0.17 0.103 0.316 0.22 0.263 0.235-0.107 0.988-2.064 1.189-2.52l-0.103-0.436z"/>
 <path d="m38.128 9.11c-0.72 0.153-1.738 0.154-1.591 1.89 0.048 0.559 0.216 1.076 0.407 1.542l-0.62 0.883c-0.172-0.453-0.311-0.979-0.358-1.518-0.081-0.966 0.152-1.801 0.547-2.413 0.506-0.781 1.03-0.884 1.686-1.009l1.107-0.184c-0.122 0.236-0.265 0.459-0.435 0.587l-0.04 1.433-0.058 5.802 2.195-7.881 0.468-0.442 0.243 4.424 0.22 3.582c0.734-1.997 2.06-5.32 1.845-7.856-0.05-0.573-0.203-2.584-0.49-2.935 0.146-0.306 0.314-0.566 0.516-0.766 0.137 0.044 0.266 0.105 0.388 0.2 0.161 0.323 0.223 2.151 0.257 2.559 0.251 2.945-1.943 7.59-2.597 10.204l-0.518 0.401-0.463-7.689-1.886 6.717-0.315 1.098-0.565 0.425 0.057-9.054"/>
 <path d="m45.714 16.629c-0.492-0.008-0.636-0.917-0.63-1.609 0.006-0.79 0.135-1.678 0.35-2.366 0.184-0.624 0.57-1.491 1.013-1.484 0.492 0.008 0.626 0.966 0.62 1.658-0.009 1.2-0.512 3.813-1.353 3.801m1.203-6.177c-0.521-0.01-1.474 0.981-1.82 1.651-0.45 0.866-0.728 2.428-0.737 3.58-0.007 0.957 0.251 1.719 0.837 1.728 0.53 0.009 1.569-1.029 1.896-1.732 0.403-0.852 0.71-2.562 0.719-3.665 0.007-0.955-0.356-1.554-0.895-1.562"/>
 <path d="m48.777 14.176c0.103-0.452 0.328-1.465 0.355-1.91 0.013-0.213-0.026-0.35-0.158-0.365-0.198-0.023-0.539 0.283-0.726 0.394l0.043-0.408c0.252-0.234 1.456-1.133 1.616-1.113 0.066 0.008 0.119 0.08 0.11 0.212-0.013 0.229-0.151 0.759-0.184 1.002l0.404-0.413c0.255-0.285 0.543-0.647 0.854-0.61 0.113 0.013 0.232 0.094 0.341 0.173l-0.368 1.511c-0.121-0.346-0.252-0.543-0.497-0.572-0.282-0.033-0.562 0.198-0.796 0.45l-0.966 4.597-0.745 0.392 0.717-3.34"/>
 <path d="m52.137 13.844l0.291-1.207 0.897-3.46c0.183-0.645 0.315-1.334 0.792-1.235 0.178 0.037 0.348 0.14 0.508 0.257l0.485-0.782c-0.151-0.098-0.307-0.164-0.476-0.199-0.215-0.045-0.407-0.035-0.615 0.121-0.301 0.221-0.823 0.812-1.074 1.192-0.343 0.528-0.785 2.503-0.977 3.312l-1.095 4.603c-0.038 0.174-0.081 0.315-0.101 0.495-0.038 0.358 0.007 1 0.259 1.053 0.198 0.042 0.704-0.503 0.885-0.665l0.604-0.557 0.406-0.398 0.039-0.359c-0.229 0.17-1.043 0.899-1.24 0.858-0.168-0.035-0.137-0.411-0.113-0.641 0.063-0.586 0.374-1.788 0.525-2.388"/>
 <path d="m55.103 16.834c-0.281 0.16-1.051 0.851-1.3 0.768-0.22-0.074-0.14-0.539-0.093-0.811 0.211-1.218 1.084-4.076 1.975-3.777 0.212 0.07 0.31 0.29 0.419 0.564l-1.001 3.256m4.209-7.924c-0.322-0.108-0.472-0.023-0.795 0.207-0.277 0.196-0.556 0.406-0.817 0.676-0.649 0.662-0.771 1.197-1.111 2.269l-0.162 0.488c-0.114-0.071-0.235-0.163-0.363-0.206-0.24-0.081-0.585 0.177-0.823 0.317-0.36 0.218-0.783 0.533-1.068 0.996-0.406 0.661-1.073 2.556-1.228 3.452-0.058 0.337-0.103 1.321 0.164 1.411s1.487-0.89 1.821-1.134l-0.077 0.331-0.17 0.756c-0.038 0.224-0.066 0.554 0.109 0.611 0.23 0.077 1.685-0.975 2.013-1.238l0.111-0.472c-0.248 0.138-1.095 0.82-1.298 0.751-0.119-0.04-0.091-0.317-0.063-0.479 0.042-0.24 0.155-0.609 0.236-0.854l0.413-1.385 1.185-3.756c0.258-0.761 0.68-2.246 1.305-2.036 0.147 0.05 0.294 0.148 0.433 0.248l0.477-0.79c-0.087-0.06-0.192-0.129-0.292-0.163"/>
 <path d="m59.648 17.995c-0.535 0.614-1.369 1.298-0.606 2.685 0.244 0.443 0.574 0.777 0.904 1.046l-0.183 1.172c-0.308-0.272-0.617-0.628-0.854-1.059-0.424-0.771-0.542-1.645-0.444-2.433 0.125-1.008 0.518-1.448 1.01-1.993l0.841-0.899c-0.014 0.284-0.048 0.571-0.141 0.795l0.498 1.252 2.096 5.007-1.112-8.217 0.219-0.693 1.834 3.627 1.504 2.919c-0.136-2.201-0.275-5.935-1.391-7.963-0.251-0.457-0.588-0.844-0.953-0.952 0.006-0.36 0.047-0.696 0.139-1.001 0.129-0.055 0.258-0.089 0.393-0.089 0.251 0.169 0.444 0.461 0.625 0.787 1.294 2.354 1.211 7.801 1.642 10.476l-0.277 0.691-3.222-6.273 0.936 7.014 0.147 1.151-0.307 0.74-3.298-7.79"/>
 <path d="m66.354 14.822c-0.119-0.683-0.33-1.742-0.378-2.416-0.038-0.733 0.188-1.505 0.369-2.105 0.178-0.615 0.25-0.786 0.662-1.041 0.131-0.081 0.258-0.143 0.4-0.159l-0.052 1.132c-0.19 0.048-0.396 0.085-0.576 0.196-0.271 0.167-0.358 0.476-0.335 0.982 0.027 0.704 0.268 1.979 0.402 2.71l0.349 1.983 0.083-0.232c0.162-0.479 0.855-2.497 1.109-2.654 0.082-0.052 0.197-0.031 0.254 0.148 0.076 0.241 0.26 1.426 0.303 1.688 0.126 0.733 0.389 2.446 0.596 3.093 0.049 0.151 0.137 0.402 0.252 0.33 0.148-0.092 0.477-1.035 0.571-1.292l0.058-0.161 0.09 0.468-0.933 2.688c-0.172-0.199-0.265-0.34-0.362-0.641-0.195-0.616-0.521-2.526-0.65-3.24-0.057-0.36-0.168-1.049-0.27-1.365-0.037-0.121-0.105-0.241-0.188-0.189-0.09 0.056-0.227 0.429-0.271 0.565l-0.515 1.438 0.692 3.771-0.459 0.809-1.201-6.506"/>
 <path d="m71.069 16.095c-0.128-0.739-0.328-3.172 0.161-3.386 0.197-0.087 0.343 0.229 0.41 0.527 0.265 1.18-0.275 2.038-0.571 2.859m2.013-0.175c-0.229 0.653-0.598 1.817-1.044 2.012-0.471 0.207-0.737-0.645-0.868-1.312l0.08-0.188 0.836-2.095c0.153-0.534 0.256-1.078 0.107-1.739-0.128-0.566-0.37-0.891-0.695-0.749-0.498 0.218-0.97 1.548-1.039 2.406-0.088 0.953 0.057 2.514 0.275 3.488 0.195 0.864 0.549 1.521 1.081 1.288 0.644-0.281 1.11-1.678 1.362-2.687l-0.095-0.424z"/>
 <path d="m73.844 14.712c-0.004-0.472-0.017-1.53-0.086-1.964-0.035-0.21-0.1-0.325-0.222-0.286-0.184 0.057-0.428 0.488-0.573 0.67l-0.047-0.409c0.178-0.326 1.074-1.669 1.225-1.717 0.061-0.018 0.123 0.029 0.144 0.157 0.036 0.226 0.026 0.786 0.048 1.033l0.277-0.561c0.17-0.374 0.354-0.835 0.643-0.928 0.105-0.031 0.23-0.003 0.346 0.029l-0.012 1.59c-0.183-0.281-0.344-0.417-0.57-0.346-0.264 0.082-0.467 0.417-0.625 0.753l0.107 4.78-0.593 0.674-0.062-3.475"/>
 <path d="m77.193 11.011c0.205-0.04 0.312 0.303 0.346 0.613 0.129 1.224-0.504 1.95-0.888 2.696-0.043-0.758 0.036-3.206 0.542-3.309m1.465 3.582c-0.301 0.594-0.797 1.661-1.259 1.756-0.488 0.101-0.656-0.799-0.709-1.488l0.099-0.17 1.065-1.882c0.211-0.493 0.374-1.01 0.302-1.694-0.062-0.587-0.263-0.962-0.602-0.894-0.516 0.105-1.133 1.315-1.299 2.148-0.194 0.921-0.229 2.495-0.123 3.505 0.095 0.897 0.371 1.624 0.922 1.512 0.666-0.137 1.285-1.412 1.65-2.354l-0.046-0.439z"/>
 <path d="m85.057 11.521l-0.332 0.479-0.411 0.051-0.952 0.105-0.025 0.198c-0.254 1.846-0.272 2.028-1.004 3.333l-0.127 0.232 2.229-0.015c0.242 0 0.566 0.013 0.789-0.054 0.199-0.067 0.297-0.249 0.296-0.626-0.001-0.216-0.029-0.446-0.048-0.66l0.662-0.465c0.02 0.131 0.039 0.246 0.039 0.378 0.002 0.561-0.348 1.106-0.554 1.469-0.348 0.58-0.455 0.761-0.94 0.765l-0.853-0.028-1.481-0.057-1.213-0.026 0.34-0.546c0.843-0.251 0.92-1.356 1.095-2.658l0.149-1.17-0.261 0.034 0.339-0.745 0.473-3.691c-0.709 0.036-1.715 0.158-1.709 1.872 0.002 0.46 0.057 0.922 0.121 1.383l-0.644 0.811c-0.073-0.46-0.165-0.938-0.167-1.433-0.003-1.17 0.506-2.062 1.034-2.576 0.448-0.43 1.004-0.6 1.507-0.586l0.618-0.382-0.043 0.329 1.921-0.061c0.171 0.098 0.253 0.327 0.271 0.624l-0.58 1.059c-0.291-1.301-0.344-1.151-1.1-1.114l-0.574 0.004-0.473 3.775 1.608-0.008"/>
 <path d="m86.611 12.829c0.12-0.549 0.359-1.674 0.561-2.06 0.123-0.232 0.439-0.106 0.573-0.089l0.685 0.144c0.162 0.022 0.375 0.052 0.502-0.213l0.091 0.012c-0.005 0.065 0.001 0.116-0.002 0.166l-0.009 0.132c-0.678 1.148-1.344 2.548-1.463 4.237-0.028 0.427 0.027 1.029 0.314 1.068 0.447 0.062 1.061-1.113 1.312-1.724 0.357-0.863 0.6-1.873 0.674-2.938 0.031-0.442 0.01-0.776-0.088-1.188 0.201-0.155 0.391-0.293 0.603-0.363 0.171 0.271 0.224 0.542 0.194 0.97-0.084 1.196-0.627 2.778-1.061 3.695-0.488 1.026-1.447 2.484-2.217 2.381-0.357-0.05-0.445-0.723-0.408-1.264 0.059-0.837 0.287-1.783 0.57-2.473 0.253-0.644 0.605-1.159 0.915-1.713-0.231 0.067-0.456 0.053-0.679 0.023-0.109 0.002-0.286-0.039-0.391 0.013-0.207 0.137-0.335 0.667-0.421 1.002l-0.129 0.546-0.126-0.364"/>
 <path d="m92.397 11.728c0.202 0.051 0.228 0.426 0.188 0.734-0.158 1.216-0.923 1.627-1.457 2.162 0.132-0.737 0.766-3.022 1.269-2.896m-1.221 3.31l1.438-1.314c0.312-0.373 0.586-0.79 0.674-1.471 0.076-0.585-0.029-1.029-0.367-1.113-0.513-0.13-1.373 0.742-1.722 1.461-0.394 0.787-0.785 2.262-0.915 3.268-0.115 0.893-0.02 1.703 0.529 1.842 0.662 0.165 1.542-0.77 2.102-1.499l0.057-0.438c-0.422 0.43-1.135 1.223-1.594 1.107-0.486-0.122-0.44-1.049-0.334-1.725l0.132-0.118z"/>
 <path d="m94.057 15.165c0.15-0.422 0.48-1.377 0.559-1.808 0.038-0.207 0.018-0.351-0.104-0.394-0.184-0.064-0.541 0.168-0.729 0.236l0.09-0.394c0.264-0.179 1.5-0.812 1.648-0.761 0.061 0.021 0.102 0.104 0.078 0.232-0.041 0.223-0.232 0.717-0.293 0.949l0.43-0.324c0.273-0.227 0.586-0.524 0.874-0.423 0.104 0.035 0.206 0.141 0.299 0.242l-0.526 1.413c-0.071-0.366-0.17-0.587-0.396-0.668-0.262-0.093-0.552 0.077-0.802 0.278l-1.452 4.329-0.746 0.231 1.07-3.138"/>
 <path d="m99.361 14.448l-1.412 3.559-0.294 0.156c-0.207 0.111-0.819 0.48-1.015 0.389-0.153-0.073-0.119-0.404-0.062-0.639 0.149-0.608 0.684-1.868 0.922-2.451l0.368-0.888c0.083-0.221 0.372-0.902 0.427-1.12 0.029-0.125 0.012-0.204-0.058-0.236-0.119-0.056-1.405 0.552-1.655 0.677l-0.128 0.409 0.104-0.038c0.145-0.053 0.459-0.165 0.594-0.101 0.085 0.04 0.107 0.139 0.07 0.294-0.11 0.453-0.448 1.215-0.623 1.62l-0.344 0.827c-0.176 0.44-0.416 1.003-0.535 1.487-0.084 0.343-0.152 0.937 0.084 1.05 0.162 0.077 0.552-0.156 0.718-0.251l0.554-0.294 0.734-0.436-0.661 1.774c-0.197 0.534-0.606 1.662-0.899 2.011-0.266 0.309-0.642 0.218-0.896 0.096-0.34-0.16-0.641-0.443-0.938-0.741l-0.597 0.883 0.921 0.579c0.536 0.253 0.812 0.245 1.368-0.239 0.424-0.374 0.899-0.81 1.215-1.478 0.308-0.637 0.606-1.47 0.866-2.183l2.059-5.044-0.887 0.328"/>
 <path d="m102.194 18.107c-0.356 1.094-1.551 3.215-2.278 2.754-0.427-0.269-0.287-1.177-0.082-1.808 0.233-0.72 0.604-1.462 0.989-1.979 0.34-0.472 0.927-1.06 1.312-0.815 0.425 0.269 0.264 1.218 0.059 1.848m0.556-2.255c-0.449-0.284-1.565 0.112-2.06 0.543-0.644 0.551-1.337 1.831-1.681 2.883-0.282 0.869-0.278 1.704 0.229 2.024 0.458 0.29 1.663-0.105 2.15-0.574 0.598-0.562 1.359-1.963 1.688-2.968 0.283-0.871 0.141-1.613-0.326-1.908"/>
 <path d="m105.566 21.516l1.016-1.591c0.075-0.13 0.205-0.31 0.272-0.465 0.077-0.185 0.024-0.305-0.052-0.369-0.147-0.122-0.67 0-0.861 0.033l-1.438 0.28 0.336-0.544c0.097-0.15 0.371-0.574 0.444-0.744 0.048-0.113 0.033-0.223-0.028-0.274-0.125-0.102-1.403 0.101-1.695 0.146l-0.18 0.349 0.172-0.011c0.136-0.001 0.485-0.036 0.594 0.053 0.068 0.059 0.037 0.185-0.006 0.282-0.236 0.553-1.242 2.096-1.573 2.626l-0.992 1.534 0.74 0.079 1.876-2.987c0.283-0.052 1.402-0.368 1.549-0.246 0.061 0.05 0.042 0.169 0 0.268-0.141 0.327-0.472 0.836-0.65 1.128l-0.521 0.853c-0.234 0.38-0.836 1.318-1.014 1.727-0.114 0.271-0.152 0.507-0.172 0.798 0.689-0.022 1.406-0.23 2.115-0.467l0.221-0.371-0.504 0.1c-0.162 0.037-0.584 0.146-0.707 0.043-0.117-0.096-0.016-0.356 0.045-0.498 0.213-0.499 0.731-1.295 1.013-1.732"/>
 <path d="m108.688 22.776c-0.534 0.985-1.35 0.871-2 1.011 0.355-0.573 1.662-2.214 2.07-1.784 0.164 0.174 0.064 0.523-0.07 0.773m0.728-0.967c-0.416-0.438-1.468-0.203-2.011 0.217-0.606 0.455-1.435 1.524-1.876 2.34-0.393 0.723-0.568 1.506-0.125 1.973 0.538 0.565 1.624 0.285 2.359-0.013l0.193-0.355c-0.514 0.119-1.408 0.376-1.781-0.017-0.395-0.414-0.053-1.21 0.262-1.748l0.158-0.02 1.707-0.267c0.4-0.135 0.779-0.335 1.08-0.887 0.255-0.473 0.306-0.937 0.034-1.223"/>
 <path d="m114.836 26.527c-0.457-0.723-0.979-1.859-1.945-0.75-0.309 0.356-0.537 0.827-0.719 1.295l-0.847-0.211c0.185-0.439 0.429-0.882 0.729-1.228 0.537-0.618 1.158-0.812 1.729-0.703 0.727 0.139 1.055 0.67 1.465 1.335l0.674 1.139c-0.203-0.009-0.41-0.047-0.574-0.168l-0.881 0.736-3.515 3.097 5.853-1.841 0.502 0.282-2.532 2.682-2.039 2.196c1.574-0.267 4.245-0.593 5.658-2.216 0.319-0.366 0.585-0.851 0.649-1.362 0.258-0.004 0.5 0.042 0.723 0.159 0.044 0.178 0.072 0.354 0.076 0.544-0.11 0.356-0.312 0.635-0.541 0.897-1.642 1.886-5.549 1.962-7.451 2.656l-0.506-0.362 4.383-4.708-4.994 1.552-0.821 0.245-0.543-0.398 5.467-4.868"/>
 <path d="m120.144 34.622l-0.458 0.829-0.062 0.141-0.844-0.234c0.145-0.338 0.305-0.704 0.523-1.001l0.841 0.265"/>
 <path d="m114.971 39.479l-0.416-0.196-0.407-0.186c-0.22-0.095-0.907-0.386-1.017-0.644-0.105-0.248 0.154-0.507 0.328-0.65 0.355-0.294 1.129-0.641 1.51-0.84l0.549-0.265c0.261-0.128 0.844-0.406 1.066-0.591 0.092-0.076 0.199-0.179 0.149-0.298-0.074-0.171-0.562-0.38-0.716-0.484l0.293-0.215c0.337 0.146 1.501 0.652 1.626 0.943 0.036 0.086 0.014 0.161-0.068 0.229-0.11 0.094-0.577 0.319-0.725 0.396l-2.003 1.043c-0.189 0.1-0.506 0.261-0.68 0.402-0.111 0.093-0.291 0.284-0.223 0.446 0.073 0.172 0.525 0.425 0.686 0.511l0.349 0.206-0.301 0.193"/>
 <path d="m115.379 39.852c0.487-0.184 1.938-0.688 2.355-0.964 0.074-0.05 0.15-0.13 0.117-0.231-0.055-0.157-0.36-0.399-0.473-0.502l-0.148-0.126 0.289-0.149c0.261 0.188 1.404 1.009 1.467 1.189 0.031 0.09 0 0.193-0.085 0.249-0.128 0.086-0.524 0.226-0.665 0.275l-0.498 0.191 1.309 0.879c0.172 0.12 0.655 0.424 0.729 0.639 0.039 0.113 0.035 0.254-0.104 0.346-0.117 0.078-0.297 0.128-0.41 0.176l-1.479 0.537c-0.407 0.146-1.157 0.408-1.53 0.654-0.107 0.072-0.295 0.211-0.236 0.38 0.061 0.181 0.455 0.418 0.607 0.512l0.457 0.306-0.334 0.139c-0.682-0.352-1.361-0.732-1.943-1.247 0.133-0.227 0.259-0.394 0.461-0.527 0.31-0.205 1.184-0.521 1.531-0.654l0.772-0.305c0.265-0.106 0.745-0.272 0.989-0.436 0.076-0.049 0.139-0.132 0.106-0.224-0.073-0.214-1.13-0.815-1.386-0.993l-2.749 1.034-0.584-0.637 1.435-0.511"/>
 <path d="m117.107 44.811l-0.17 0.072c-0.422 0.214-0.85-1.068-0.713-0.587 0.119 0.416 0.664 2.517 1.107 2.291 0.713-0.361 0.426-1.694 1.348-2.162 0.777-0.395 1.975 0.289 2.182 1.076 0.089 0.34 0.038 0.675-0.163 1.015-0.259-0.028-0.487-0.139-0.719-0.248 0.196-0.312 0.342-0.665 0.253-1.007-0.107-0.41-0.536-0.555-0.913-0.362-0.821 0.417-0.382 1.713-1.259 2.158-1.055 0.535-2.217-2.162-2.49-3.112-0.146-0.514 0.086 0.657 0.619 0.386l0.214-0.095 0.704 0.575"/>
</g>
<g fill="#fff">
 <!-- Rocky Extra Cond Medium: HUMAN AWARENESS INSTITUTE -->
 <path d="m11.578 122.009h-2.454v-0.285c0.382-0.067 0.65-0.113 0.65-0.804v-2.604h-1.742v2.604c0 0.69 0.268 0.736 0.65 0.804v0.285h-2.432v-0.285c0.383-0.079 0.614-0.135 0.614-0.804v-5.48c0-0.736-0.31-0.759-0.614-0.804v-0.283h2.433v0.283c-0.318 0.034-0.65 0.056-0.65 0.804v2.345h1.741v-2.345c0-0.748-0.332-0.77-0.65-0.804v-0.283h2.455v0.283c-0.311 0.034-0.635 0.067-0.635 0.804v5.48c0 0.681 0.251 0.725 0.635 0.804v0.285"/>
 <use xlink:href="#U" transform="translate(16.775)"/>
 <path d="m23.576 122.009h-2.397v-0.285c0.433-0.067 0.642-0.101 0.642-0.848v-5.708h-0.014l-1.805 6.841h-0.195l-1.804-6.671h-0.015v5.266c0 0.793 0.13 1.064 0.729 1.12v0.285h-1.689v-0.285c0.562-0.079 0.656-0.248 0.656-0.904v-5.38c0-0.589-0.129-0.748-0.642-0.804v-0.283h1.827l1.444 5.345 1.443-5.345h1.82v0.283c-0.404 0.045-0.635 0.067-0.635 1.042v5.006c0 0.905 0.159 0.939 0.635 1.04v0.285"/>
 <use xlink:href="#A" transform="translate(28.716)"/>
 <use xlink:href="#N" transform="translate(29.069)"/>

 <use xlink:href="#A" transform="translate(40.504)"/>
 <path d="m46.718 114.636c-0.253 0.034-0.411 0.306-0.498 0.725l-1.444 6.816h-0.195l-1.213-5.299h-0.051l-1.313 5.299h-0.202l-1.531-6.816c-0.123-0.544-0.195-0.657-0.498-0.725v-0.283h2.123v0.283c-0.261 0.034-0.463 0.056-0.463 0.475 0 0.126 0.022 0.25 0.051 0.374l0.859 4.089h0.015l0.844-3.455-0.253-1.086c-0.093-0.25-0.173-0.375-0.52-0.396v-0.283h2.253v0.283c-0.31 0.034-0.52 0.045-0.52 0.431 0 0.136 0.058 0.407 0.101 0.622l0.773 3.772h0.014l0.802-3.852c0.022-0.114 0.05-0.237 0.05-0.476 0-0.464-0.252-0.477-0.498-0.498v-0.283h1.314v0.283"/>
 <use xlink:href="#A" transform="translate(50.945)"/>
 <path d="m56.18 122.009h-1.48l-1.495-3.546h-0.195v2.221c0 0.905 0.159 0.939 0.636 1.04v0.285h-2.441v-0.285c0.491-0.09 0.636-0.123 0.636-1.04v-5.006c0-0.975-0.224-0.997-0.636-1.042v-0.283h2.325c0.506 0 2.037 0.09 2.037 1.993 0 1.393-0.745 1.744-1.134 1.936l1.451 3.229c0.101 0.203 0.209 0.214 0.296 0.214v0.284m-3.17-3.907c0.946-0.012 1.322-0.262 1.322-1.734 0-1.142-0.296-1.63-0.874-1.63-0.397 0-0.412 0.124-0.448 0.477v2.887z"/>
 <use xlink:href="#E" transform="translate(56.567)"/>
 <use xlink:href="#N" transform="translate(61.383)"/>
 <use xlink:href="#E" transform="translate(66.762)"/>
 <use xlink:href="#S" transform="translate(75.03)"/>
 <use xlink:href="#S" transform="translate(78.935)"/>

 <use xlink:href="#I" transform="translate(84.519)"/>
 <use xlink:href="#N" transform="translate(84.771)"/>
 <use xlink:href="#S" transform="translate(92.995)"/>
 <use xlink:href="#T" transform="translate(97.53)"/>
 <use xlink:href="#I" transform="translate(101.424)"/>
 <use xlink:href="#T" transform="translate(105.377)"/>
 <use xlink:href="#U" transform="translate(111.604)"/>
 <use xlink:href="#T" transform="translate(115.516)"/>
 <use xlink:href="#E" transform="translate(116.688)"/>
</g>
</svg>
