<svg xmlns="http://www.w3.org/2000/svg" viewBox="0 0 1253.333 555.333">
  <g clip-rule="evenodd" fill-rule="evenodd">
    <path d="m1245.667 275c1.334 7.667.334 16.5-8 20-4.833.667-43.654.531-63 9-21.94 9.605-37.56 25.378-60 28-29.666 3.466-47.821-15.2-45-45 1.125-11.881 9.965-24.202 3-35-19.943-5.446-38.138 4.267-53 12-14.831 7.717-30.479 16.497-43 26-13.781 10.459-25.274 23.788-39 33 46.19 4.249 64.854 25.713 73 67 4.743 24.043 5.218 48.593 27 55 32.92 9.683 63.768-18.787 100-10 7.615 1.847 17.951 7.735 25 14 4.555 4.048 15.736 13.93 15 24-.539 7.369-8.07 14.215-19 13-11.699-1.3-16.696-16.513-28-20-24.63-7.598-55.408 8.991-76 11-43.442 4.239-59.289-24.34-68-55-5.881-20.698-8.444-52.005-28-62-11.013-5.629-46.475-9.502-66-6-8.644 1.55-16.108 8.875-24 13-8.491 4.438-16.462 7.348-25 12 6.407 6.55 12.68 8.708 18 14 15.641 15.557 23.391 40.597 16 70-2.563 10.192-7.925 20.986-5 34 5.49 24.43 52.133 18.265 78 24 12.836 2.846 28.529 10.869 18 26-8.38 12.041-21.456 3.333-33 1-20.373-4.117-43.583.146-60-6-14.787-5.536-33.18-23.229-35-41-2.225-21.709 10.585-34.084 10-57-.691-27.06-28.143-47.534-55-45-6.391.603-12.996 3.776-20 6-67.617 21.467-164.746 28.131-244 12-19.237-3.916-40.299-9.644-59-16-6.814-2.316-13.398-5.548-19-6-21.183-1.711-43.943 12.131-50 27-10.213 25.073 12.594 57.892 4 84-4.878 14.817-18.823 25.086-34 31-16.721 6.516-38.313 3.06-58 7-7.576 1.517-13.314 7.468-24 5-4.562-1.054-14.206-9.446-12-20 2.219-10.617 27.202-16.718 46-18 23.463-1.6 47.21 1.105 53-16 5.375-15.879-6.438-33.927-8-48-.577-5.195-.431-10.658 0-15 2.55-25.695 16.109-41.097 37-57-13.856-9.477-30.333-16.333-44-26-35.264 1.339-71.213-2.366-85 20-6.993 11.345-6.824 24.309-9 35-8.558 42.045-30.495 77.063-86 68-14.528-2.373-28.587-9.339-44-11-8.893-.958-16.722.234-23 3-5.3 2.335-7.6 5.629-12 10-3.501 3.478-7.221 7.496-13 8-10.158.887-17.332-6.234-18-13-1.154-11.682 14.608-24.981 22-30 8.982-6.099 19.438-9.299 30-10 32.788-2.176 50.16 16.133 78 14 46.491-3.563 31.269-76.84 56-103 13.714-14.507 30.827-18.282 59-21-18.361-21.607-52.336-38.526-81-55-17.54-10.081-40.76-28.04-61-14-4.521 12.541 4.29 24.67 5 36 1.354 21.612-11.758 42.23-34 43-30.566 1.058-46.33-19.6-69-29-11.981-4.968-25.708-6.11-38-7-12.052-.873-27.063 1.979-35-10-1.75-4-1.25-8.5 0-13 3.935-12.495 30.937-10.414 47-9 8.671.763 18.781 2.901 25 5 25.106 8.474 43.55 30.327 71 31 5.86-14.578-4.34-26.908-5-40-.815-16.167 7.625-30.306 21-37 30.81-15.42 63.187 2.266 88 16 19.215 10.635 36.694 23.513 53 30 63.966-51.034 138.122-91.878 235-110-2.737-7.596-7.215-13.451-11-20-37.848-4.576-70.872-28.239-66-71 6.353-55.763 84.222-76.234 120-35 10.279 11.847 18.853 32.163 14 54-4.854 21.843-19.133 36.29-39 47 4.726 4.15 4.519 17.475 13 20 5.18 1.542 18.11-2.326 28-3 29.559-2.016 66.168-1.461 90 2 4.232-7.101 8.637-14.029 12-22-28.924-10.179-49.983-45.024-37-80 6.741-18.161 21.338-32.262 37-39 27.933-12.017 61.617-.549 80 19 15.995 17.01 19.87 46.479 9 69-8.289 17.175-27.297 30.241-47 34-2.794.533-11.56.765-12 1-5.758 3.082-8.769 17.364-12 22 99.269 17.065 173.565 59.102 238 111 25.934-12.409 67.588-50.625 111-46 19.152 2.041 37.547 15.532 39 36 1.216 17.128-9.559 26.934-6 45 22.971 1.799 38.994-14.442 63-24 8.975-3.573 21.162-6.883 35-9 15.013-2.297 44.381-6.358 46 8zm-558-199c3.752 19.945 27.329 34.883 54 30 30.122-5.515 36.054-45.059 17-63-7.879-7.418-23.761-11.233-35-10-23.087 2.533-40.28 20.252-36 43zm-194 11c12.946 27.572 60.446 26.632 74 2 13.557-24.637-5.967-50.754-31-54-5.364-.696-13.716.642-16 1-23.459 3.683-38.962 25.525-27 51zm129 92c-30.024 1.507-62.289 4.476-91 11-54.206 12.317-100.953 31.651-142 56-20.933 12.417-41.784 25.175-58 42 74.994 56.291 169.869 107 301 107 97.647 0 178.652-28.981 240-66 21.664-13.073 42.236-27.387 59-44-74.311-58.222-176.443-112.653-309-106z"/>
    <path d="m723.667 49c12.567-2.468 22.768 2.331 26 7 6.001 8.668 4.281 22.631-3 30-13.892 14.06-48.185 5.065-42-22 1.439-6.298 8.398-12.918 19-15z"/>
    <path d="m523.667 51c20.483-4.426 32.035 7.586 32 21-.065 25.296-41.336 30.078-48 9-4.387-13.874 3.958-27.062 16-30z"/>
    <path d="m675.667 193c7.817 4.939 26.227 51.847 14 68-5.938 7.845-19.646 6.197-31 3-7.244-7.541-7.479-23.008-18-27-8.307-3.152-25.993-1.237-28 7-3.229 13.254 19.835 23.011 28 27 11.912 5.819 27.844 13.321 32 25 3.255 9.146 6.501 31.58 3 45-2.4 9.202-11.603 17.093-20 25-7.531 7.091-16.645 15.798-26 19-19.801 6.778-43.327-.117-66-2-10.099-15.621-20.999-35.597-19-60 26.048-7.213 31.564 16.556 55 14 8.558-.934 19.155-5.702 20-11 1.304-8.181-15.507-19.302-23-24-10.096-6.33-21.539-11.574-27-19-9.49-12.903-18.614-42.469-7-63 6.592-11.653 41.779-34.811 60-36 17.96-1.172 33.917 7.689 53 9z"/>
    <path d="m729.667 207c37.447-5.114 32.784 31.882 47 50 14.905-8.342 14.457-28.109 30-32 4.314-1.08 20.031-.675 24 3 7.227 6.692 20.892 36.592 24 51 1.712 7.936 1.884 16.603 2 23 .155 8.527.291 20.623-2 26-3.433 8.056-16.11 11.164-28 12-8.347-16.986-10.793-39.874-18-58-5.658 3.178-9.313 8.866-14 14-4.371 4.787-8.699 11.458-15 12-13.867 1.193-21.533-15.954-34-21-4.086 24.914-1.809 56.191-5 82-6.545 6.516-23.656 10.655-35 6-4.813-16.406-6.169-35.694-7-54-1.293-28.474 4.032-49.44 11-72 4.471-14.475 10.732-28.817 17-39 .559-1.44 1.559-2.44 3-3z"/>
    <path d="m540.667 265c-8.128.128-14.624-1.376-21-3-2.665-2.515-.195-7.932-4-11-7.567-3.1-19.62-1.714-30-2-2.208 6.125-.425 16.242-1 24 15.739-.073 32.352-1.019 41 6 .794 13.907.065 28.464-4 41-15.386-.614-24.241-7.759-37-11-1.774 15.88-1.623 43.606-15 47-5.945 1.508-14.652-2.195-21-5-5.874-2.596-11.197-6.275-16-9-4.013-26.956-13.488-56.772-13-86 .085-5.076.287-12.623 3-17 4.443-7.167 24.916-12.189 41-18 16.938-6.119 34.126-10.647 46-12 8.103-.923 18.177-1.943 24 2 12.718 8.612 10.184 35.661 7 54z"/>
    <path d="m332.667 721c4.675.014 4.921 6.208 6 9 9.137 23.655 17.12 52.025 26 77 4.666-3.367 5.3-12.098 7-18 5.413-18.794 11.942-38.177 15-59-1.796-3.87-10.023-1.311-13-4-.709-6.121 10.018-3.025 16-3 7.045.029 14.612-1.989 17 1 .959 4.96-6.321 1.68-8 4-13.846 31.821-21.935 69.398-32 105h-8c-8.736-28.931-19.532-55.802-29-84-13.493 25.84-22.98 55.687-34 84h-7c-8.418-34.248-15.818-69.516-24-104-2.011-2.989-9.463-.537-11-4 .956-4.343 11.01-2.035 19-2 8.018.036 18.807-2.759 21 2-1.401 4.266-10.785.549-13 4 4.221 27.112 11.339 51.327 16 78 12.927-27.073 23.119-56.881 34-86h2z"/>
    <path d="m488.667 721c6.347 4.679 6.626 14.029 9 21 7.142 20.975 16.124 43.897 23 66 9.091-23.909 15.295-50.705 22-77-1.205-5.461-12.17-1.164-14-6 .772-4.674 9.604-2.056 16-2 6.802.059 14.557-1.771 17 1 1.452 4.785-4.181 2.485-7 3-14.12 31.881-22.84 69.16-32 106h-9c-7.587-29.746-19.993-54.674-28-84-5.542 5.012-7.268 13.389-10 20-8.344 20.187-16.735 41.983-24 64h-8c-7.912-34.755-15.311-70.022-24-104-1.705-2.628-7.658-1.009-10-3-1.06-6.353 7.098-3.018 12-3 9.556.034 22.288-1.692 28 1-.079 5.921-11.067.933-13 5 2.948 27.719 10.942 50.392 15 77 5.844-5.041 6.22-13.075 9-20 8.056-20.068 17.734-43.159 26-65h2z"/>
    <path d="m723.667 728c-3.106 5.227-1.023 15.643-4 21-7.709 1.376-1.659-11.008-5-14-17.992-14.211-50.484-6.84-50 15 .671 30.259 52.058 9.48 63 33 11.235 24.15-12.512 46.986-34 50-15.685 2.199-28.586-.972-41-6 3.019-5.648-1.816-19.149 3-23 4.909-1.008 2.637 5.097 3 7 1.584 8.303 7.845 13.459 17 15 15.049 2.532 34.782-3.104 39-14 3.419-8.831 2.361-19.882-5-25-10.668-7.416-35.055-.359-49-10-8.116-5.611-10.406-17.782-9-28 3.836-27.885 44.969-35.914 72-21z"/>
    <path d="m1030.667 804c-8.958.903-9.735-9.427-9-15 1.715-12.997 24.105-22.599 24-40-.076-12.527-13.251-20.847-26-16-6.564 2.495-5.636 8.641-12 13-4.926-3.975 2.724-14.85 4-20 26.391-13.731 54.642 1.723 48 28-3.927 15.534-28.895 23.561-31 38-.669 4.59 2.709 8.988 2 12z"/>
    <path d="m644.667 723c.179 4.846-.794 8.539-2 12-.74 3.926 2.11 11.443-3 11-5.699-.301-1.565-10.435-4-14-9.328-3.68-26.276-3.919-38-2-2.219 12.448-.417 28.916-1 43 10.578-.089 21.828.494 31-1 3.197-2.803-.521-12.521 5-13 5.635.305 2.038 6.988 2 12-.033 4.322.056 9.271 0 14-.048 4.043 2.061 10.247-2 10-6.514.18-.464-12.203-5-14-7.601-2.175-21.402-3.117-30-1-1.809 12.481-1.47 31.465 0 44 2.089 3.911 10.158 1.842 14 4 1.051 6.705-7.371 3.035-12 3-6.958-.053-15.008-.128-21 0-4.925.105-11.956 3.131-12-1 .115-5.885 10.143-1.856 13-5 3.88-27.619 2.034-65.739 1-95-1.833-3.524-13.969-1.998-14-4v-2c-1.135-.19-.555-1.003 0-1 22.62.837 53.379-2.949 78 0z"/>
    <path d="m804.667 808c14.689-27.644 27.101-57.566 41-86 4.302 1.215 9.943 1.004 16 1 4.867-.004 12.5-3.165 13 2-1.131 4.202-9.882.785-13 3-1.506 30.433-1.884 69.449 0 97 2.059 3.274 9.988.678 13 3 .884 6.796-6.911 2.945-11 3-5.248.07-11.924-.146-18 0-5.361.129-11.9 2.398-14-1 .314-5.686 10.609-1.391 13-5 1.843-26.157.681-55.319 1-83-4.951 6.438-8.579 14.486-12 22-8.579 18.844-17.143 38.64-26 59-1.524 3.505-3.279 8.402-7 10-5.767-6.031-7.657-14.646-11-22-9.774-21.503-22.188-44.138-32-67-1.918 24.586-1.315 55.314 0 80 2.111 4.222 11.562 1.104 14 5 .124 5.203-6.665 2.026-11 2-4.522-.027-9.73-.024-14 0-4.384.025-11.805 3.514-12-2 .91-4.09 9.063-.937 12-3 5.282-27.072 2.922-65.92 2-96-2.3-3.7-10.006-1.994-14-4v-3c6.793-1.128 21.628.392 28 0 5.482 5.62 7.684 13.926 11 21 9.754 20.808 20.332 43.298 31 64z"/>
    <path d="m887.667 831c-.802-6.135 6.449-4.218 7-9 1.207-28.37 2.656-65.202-1-92-3.003-3.663-14.164.831-13-7 .81-.19.997-1.003 2-1 57.158.088 117.311-6.841 110 59-1.445 13.02-7.781 25.354-15 33-19.362 20.508-52.31 19.313-90 17zm74-15c18.022-14.838 22.929-57.298 4-76-10.429-10.305-33.244-13.012-52-10-4.825 5.124-3 13.869-3 21 0 24.489-.694 51.457 1 73 20.82 1.939 37.877 1.979 50-8z"/>
    <path d="m1025.667 816c15.588-5.836 16.048 19.85 1 17-5.546-1.05-10.984-13.263-1-17z"/>
    <path d="m852.667 964c-1.995-1.005-1.578-4.422-5-4 .515-3.485 6.533-1.467 10-2 .745 3.078-2.745 1.922-2 5l-1.833-.5-1.167 1.5z"/>
    <path d="m858.5 975.5l1.167-1.5c.973.027.775 1.225 1 2l-.5 1.5 1.5-.5c.319 2.319-.161 3.839-1 5-3.744.078-3.411-3.922-4-7l1.833.5z"/>
    <path d="m865.667 968h-1c2.224-2.954-.291-7.853-4-8 .708-3.626 7.288-1.379 11-2-4.112 4.758.116 13.153 4 16l-.5 1 .5 1c.723 3.056-1.022 3.645-1 6-5.136-1.531-4.89-8.444-7-13h-2v-1z"/>
    <path d="m889.667 963c-1.714-1.286-3.933-2.067-4-5 3.396.271 8.107-.774 10 1-.111 1.889-3.306.694-3 3l-1.833-.5-1.167 1.5z"/>
    <path d="m896.5 977.5l1.167-1.5h1l-.5 1.5 1.5-.5c-.564 2.436-.856 5.144-4 5 .409-2.409-1.826-2.174-1-5l1.833.5z"/>
    <path d="m903.167 968l-.5-1c.396-4.396-1.229-6.771-5-7 .723-3.408 9.772-2.25 12-1-6.127 2.702.185 7.609 0 13l-1.833-.5-1.167 1.5c-2.059-.274-.941-3.726-3-4h-1l0.5-1z"/>
    <path d="m908.5 973.5l1.167-1.5c1.018.649 1.034 2.299 3 2l-.5 1.5 1.5-.5c.101 3.101-1.223 4.777-2 7-3.458-1.209-4.293-5.04-5-9l1.833.5z"/>
    <path d="m974.667 965c-1.171-2.829-4.35-3.65-5-7 3.675.325 8.854-.854 11 1-.895 1.771-4.059 1.274-3 5l-1.833-.5-1.167 1.5z"/>
    <path d="m980.5 974.5l1.167-1.5c1.018.649 1.034 2.299 3 2l-.5 1 .5 1c-.564 2.436-.856 5.144-4 5-.152-3.181-2.268-4.399-2-8l1.833.5z"/>
    <path d="m1010.667 959c4.017.983 6.132 3.868 6 9h-4l.5-1.5-1.5-.5c-1.02-1.313-.98-3.687-2-5l1.5-.5-0.5-1.5z"/>
    <path d="m1002.167 967l.5 1h-1c-.094 6.761 3.369 9.965 11 9l-.5 1.5 1.5.5c-9.733 10.355-22.674-7.329-14-16l.5 1.5 1.5-.5v2l0.5 1z"/>
    <path d="m1025.667 982h-6c4.41-3.22 4.41-17.78 0-21 3.548-.103 7.984-6.578 8 1v1h1c-2.972 3.149-.069 9.282-1 16l-2.5.5 0.5 2.5z"/>
    <path d="m1033.167 960.5l-1.5-.5c1.587-4.407 7.256-.529 9 1 .894 7.106-2.666 18.666 4 20-2.038 2.295-8.305.362-12 1 5.535-2.198 4.919-15.185 2-20h-2l0.5-1.5z"/>
    <path d="m1084.667 959c2.729-.729 2.013 1.987 4 2v16c-.396 2.396 4.555-.555 3 3-1.789 2.646-7.34 2.726-8-1v-1h-1c.443-.891.878-1.788 2-2-1.639-2.691 1.36-5.128-1-8l1.5-.5-.5-1.5c.409-2.409-1.826-2.174-1-5l1.5-.5-0.5-1.5z"/>
    <path d="m1078.167 980.5l1.5.5c-2.649 3.227-6.415-.852-8-2-.256-4.922.886-8.447 5-9l-.5 1.5 1.5.5c-2.158 2.143-.512 5.587 1 7l-0.5 1.5z"/>
    <path d="m1099.667 982h-6c4.842-2.158 4.169-9.831 4-17-.314-2.352-4.74-.594-4-4 3.725.666 8.72-6.955 8 1l-.5 1.5 1.5.5c-2.047 3.286-.54 10.127-1 15l-2.286.643.286 2.357z"/>
    <path d="m1135.667 958h6c-1.313 3.687-3.323 6.677-6 9l-.7-1.7-1.3-1.3c-.127-1.794 1.224-2.109 1-4l1.5-.5-0.5-1.5z"/>
    <path d="m1124.833 979.5l1.833-.5v1l-1.5.5.5 1.5h-5c-.17-2.503 1.536-3.131 3-4l1.167 1.5z"/>
    <path d="m1155.667 959c2.487-.154 3.096 1.571 5 2v16c-.396 2.396 4.555-.555 3 3-2.395 2.042-7.063 3.003-8-1l-.5-1-.5-1c2.255-.745.391-5.609 1-8l2.3-1.5-2.3-1.5c.319-2.319-.161-3.84-1-5l1.5-.5-0.5-1.5z"/>
    <path d="m1147.167 961.5l1.5.5c.197 2.863.124 5.458-3 5-1.467-1.585-2.063-7.939 2-7l-0.5 1.5z"/>
    <path d="m1196.667 960c4.064-.398 3.077 4.256 6 5 .278 5.611.105 10.772-3 13l-.5-1.5-1.5-.5c.494-5.828-.287-10.379-2-14l1.5-.5-0.5-1.5z"/>
    <path d="m1185.167 977.5l-.5 1.5c-4.692-1.376-5.911-13.839-1-16l.5 1.5 1.5-.5c-.307 4.973.158 9.175 1 13l-1.5.5z"/>
    <path d="m1207.667 979c-1.321-5.346 3.361-16.694-4-16 1.344-2.235 8.568-7.972 9-2l-.5 1.5 1.5.5c-2.784 4.697-.299 9.475-1 17l-1.5.5.5 1.5h-2l.5-2.5-2.5-.5z"/>
    <path d="m1216.167 960.5l-1.5-.5c.85-1.483 2.517-2.15 5-2 .84 1.161 1.319 2.681 1 5-2.319.319-3.84-.161-5-1l0.5-1.5z"/>
    <path d="m1240.167 961.5l1.5.5c.605 2.2 2.513 7.453-1 8l-1.167-1.5-1.833.5v-6l1.5-1.167-.5-1.833h2l-0.5 1.5z"/>
    <path d="m965.667 978v3c-6.765 4.299-6.765-7.299 0-3z"/>
    <path d="m1173.667 978v4h-4c-3.113-2.756 1.244-7.112 4-4z"/>
    <path d="m939.667 967c1.123-5.456-3.065-5.602-4-9 3.675.325 8.854-.854 11 1-4.378 1.704-1.998 5.055-1 9l-1.786-.357-1.214 1.357h-2l.5-1.5-1.5-0.5z"/>
    <path d="m944.5 970.5l1.167-1.5c2.207.793 1.3 4.7 4 5l-.5 1.5 1.5-.5c.024 3.69-.447 6.886-4 7-.384-4.949-3.807-6.859-4-12l1.833.5z"/>
    <path d="m935.167 976.5l1.5.5c.409 2.409-1.826 2.174-1 5-3.201-.133-4.399-2.268-4-6l1.833.5 1.167-1.5h1l-0.5 1.5z"/>
    <path d="m929.833 966.5l-1.167 1.5c-1.877-3.456-3.967-6.7-6-10 3.396.271 8.107-.774 10 1-3.4 1.447-1.206 4.689-1 8l-1.833-.5z"/>
    <g fill="none" stroke="#000" stroke-linecap="round">
      <path d="m875.167 975c.165-.052.33-.103.496-.154 2.146-4.982 3.554-10.166 5.504-15.346" stroke-width="1.7889"/>
      <path d="m865.667 968c-2.051 3.124-1.962 7.48-5.5 9.5" stroke-width="1.3452"/>
      <path d="m858.5 975.5c-1.508-4.382-3.196-8.61-4.666-13" stroke-width="3.6423"/>
      <path d="m898.167 977.5c2.934-2.548 2.802-6.845 5-9.5" stroke-width="1.5226"/>
      <path d="m907.833 971.5c.222.667.444 1.333.666 2" stroke-width="3.1623"/>
      <path d="m912.167 975.5c2.982-4.761 4.28-10.606 6-16" stroke-width="1.8383"/>
      <path d="m896.5 977.5c-1.726-5.398-4.071-10.552-5.666-16" stroke-width="3.6056"/>
      <path d="m984.167 976c.165-.052.33-.103.496-.154 1.751-5.518 4.987-10.409 6.004-16.179" stroke-width="1.7133"/>
      <path d="m980.5 974.5c-1.701-3.614-3.162-7.306-4.666-11" stroke-width="3.451"/>
      <path d="m1012.167 978.5c1.204-.387 2.058-1.272 2.5-2" stroke-width="1.9365"/>
      <path d="m1000.167 964.5c1.499-4.438 6.982-7.35 11-4" stroke-width="2.0931"/>
      <path d="m1002.167 967c3.65-.257 7.465.562 11-.5" stroke-width="2.1269"/>
      <path d="m1027.667 963c1.851-.905 3.396-2.151 5.5-2.5" stroke-width="1.7951"/>
      <path d="m1027.167 980.5c-.667-.262-1.333-.629-2-1" stroke-width="3.266"/>
      <path d="m1054.167 991.5c-1.735-.994-2.819-1.259-4.508-2.482-1.622-3.242 2.072-5.747 2.65-8.804" stroke-width="2.5386"/>
      <path d="m1052.309 980.214c-2.723-2.195-.146-5.68 1.107-7.964" stroke-width="2.7988"/>
      <path d="m1053.417 972.25c-1.577-2.13-2.272-4.769-2.685-7.328 1.237-3.333 4.294-6.789 8.235-5.867 1.497 1.045 2.974 2.168 4.6 3.045" stroke-width="2.9954"/>
      <path d="m1063.567 962.1c.719-.599 1.694-.848 2.6-1.1" stroke-width="2.3452"/>
      <path d="m1053.417 972.25c2.713.994 6.112 1.336 8.66-.223 2.488-2.762 3.32-6.593 1.49-9.928" stroke-width="2.9567"/>
      <path d="m1054.167 991.5h6" stroke-width="3.0822"/>
      <path d="m1060.167 991.5c3.981-.816 8.245-3.524 8.41-7.932-3.596-5.487-10.956-1.898-16.268-3.354" stroke-width="2.6159"/>
      <path d="m1076.167 971.5c2.765-1.504 5.691-4.854 9-4" stroke-width="1.854"/>
      <path d="m1075.167 962.5c1.826-3.915 6.778-4.476 10-2" stroke-width="2.1731"/>
      <path d="m1078.167 980.5c2.096-.266 3.645-1.643 5.5-2.5" stroke-width="1.7951"/>
      <path d="m1101.167 963.5c2.719-1.269 5.22-2.951 8.249-3.451 6.511 3.993 2.747 13.122 3.751 19.451" stroke-width="4.3336"/>
      <path d="m1113.167 979.5c.667.404 1.333.705 2 1" stroke-width="3.5355"/>
      <path d="m1113.167 979.5c-.667.404-1.333.705-2 1" stroke-width="3.266"/>
      <path d="m1102.167 981c-1.013-.438-1.902-.881-2.786-1.357" stroke-width="3.0414"/>
      <path d="m1125.167 980.5c4.855.777 10.154.843 15 0" stroke-width="2.205"/>
      <path d="m1124.833 979.5c3.079-4.881 6.264-9.893 10.133-14.2" stroke-width="3.6056"/>
      <path d="m1125.167 959c3.65.257 7.465-.562 11 .5" stroke-width="2.1213"/>
      <path d="m1155.167 978c-2.164 1.55-5.012 3.03-7.657 1.685-5.911-6.451 4.494-12.669 10.457-12.185" stroke-width="2.7023"/>
      <path d="m1147.167 961.5c1.96-1.522 4.131-3.073 6.786-2.452.421.287 1.29.913 2.214 1.452" stroke-width="2.1134"/>
      <path d="m1184.167 964.5c.262-.709.384-1.254.5-1.792 1.86-2.547 5.067-4.263 8.301-3.653 1.316.998 2.921 1.27 4.199 2.445" stroke-width="2.0475"/>
      <path d="m1185.167 977.5c1.458 1.399 2.806 2.394 3.567 3.173 3.928 1.201 8.616-.308 10.433-4.173" stroke-width="2.2913"/>
      <path d="m1212.167 962.5c1.404-.642 2.536-1.359 4-2" stroke-width="2"/>
      <path d="m1211.167 980.5c.667.273 1.333.391 2 .5" stroke-width="2.1602"/>
      <path d="m1208.167 980.5c.667-.262 1.333-.629 2-1" stroke-width="3.266"/>
      <path d="m1240.167 961.5c.667-.273 1.333-.391 2-.5" stroke-width="2.1602"/>
      <path d="m1227.5 980.5c4.585.135 9.222-.263 13.773.194 1.519 1.255 2.035 2.41 2.644 3.306" stroke-width="3.0107"/>
      <path d="m1229.167 991.5c-6.364-1.354-3.887-7.115-1.667-11" stroke-width="2.6173"/>
      <path d="m1227.5 980.5c-1.839-2.576.364-5.736 1.667-8" stroke-width="2.9352"/>
      <path d="m1229.167 972.5c-3.922-3.938-3.075-10.433 1.654-13.231 3.244-1.398 5.644 1.435 8.346 2.564" stroke-width="2.7988"/>
      <path d="m1229.167 972.5c3.796 1.218 9.645 1.047 10.333-4" stroke-width="2.4202"/>
      <path d="m1229.167 991.5h7" stroke-width="3.0822"/>
      <path d="m1236.167 991.5c3.438-1.205 8.009-3.017 7.75-7.5" stroke-width="2.0774"/>
      <path d="m949.167 975.5c3.724-4.058 4.416-10.726 6-16" stroke-width="1.7941"/>
      <path d="m944.5 970.5c-.217-1.009-.385-1.935-.619-2.857" stroke-width="3.1091"/>
      <path d="m933.5 976.5c-1.167-3.371-2.503-6.625-3.666-10" stroke-width="3.7295"/>
      <path d="m935.167 976.5c.621-.241 1.038-.424 1.446-.604 2.234-2.59 1.37-6.48 4.554-8.396" stroke-width="1.7353"/>
    </g>
  </g>
</svg>
