<svg xmlns="http://www.w3.org/2000/svg" viewBox="0 0 1253.333 555.333">
  <g clip-rule="evenodd" fill-rule="evenodd">
    <path d="m1245.667 275c1.334 7.667.334 16.5-8 20-4.833.667-43.654.531-63 9-21.94 9.605-37.56 25.378-60 28-29.666 3.466-47.821-15.2-45-45 1.125-11.881 9.965-24.202 3-35-19.943-5.446-38.138 4.267-53 12-14.831 7.717-30.479 16.497-43 26-13.781 10.459-25.274 23.788-39 33 46.19 4.249 64.854 25.713 73 67 4.743 24.043 5.218 48.593 27 55 32.92 9.683 63.768-18.787 100-10 7.615 1.847 17.951 7.735 25 14 4.555 4.048 15.736 13.93 15 24-.539 7.369-8.07 14.215-19 13-11.699-1.3-16.696-16.513-28-20-24.63-7.598-55.408 8.991-76 11-43.442 4.239-59.289-24.34-68-55-5.881-20.698-8.444-52.005-28-62-11.013-5.629-46.475-9.502-66-6-8.644 1.55-16.108 8.875-24 13-8.491 4.438-16.462 7.348-25 12 6.407 6.55 12.68 8.708 18 14 15.641 15.557 23.391 40.597 16 70-2.563 10.192-7.925 20.986-5 34 5.49 24.43 52.133 18.265 78 24 12.836 2.846 28.529 10.869 18 26-8.38 12.041-21.456 3.333-33 1-20.373-4.117-43.583.146-60-6-14.787-5.536-33.18-23.229-35-41-2.225-21.709 10.585-34.084 10-57-.691-27.06-28.143-47.534-55-45-6.391.603-12.996 3.776-20 6-67.617 21.467-164.746 28.131-244 12-19.237-3.916-40.299-9.644-59-16-6.814-2.316-13.398-5.548-19-6-21.183-1.711-43.943 12.131-50 27-10.213 25.073 12.594 57.892 4 84-4.878 14.817-18.823 25.086-34 31-16.721 6.516-38.313 3.06-58 7-7.576 1.517-13.314 7.468-24 5-4.562-1.054-14.206-9.446-12-20 2.219-10.617 27.202-16.718 46-18 23.463-1.6 47.21 1.105 53-16 5.375-15.879-6.438-33.927-8-48-.577-5.195-.431-10.658 0-15 2.55-25.695 16.109-41.097 37-57-13.856-9.477-30.333-16.333-44-26-35.264 1.339-71.213-2.366-85 20-6.993 11.345-6.824 24.309-9 35-8.558 42.045-30.495 77.063-86 68-14.528-2.373-28.587-9.339-44-11-8.893-.958-16.722.234-23 3-5.3 2.335-7.6 5.629-12 10-3.501 3.478-7.221 7.496-13 8-10.158.887-17.332-6.234-18-13-1.154-11.682 14.608-24.981 22-30 8.982-6.099 19.438-9.299 30-10 32.788-2.176 50.16 16.133 78 14 46.491-3.563 31.269-76.84 56-103 13.714-14.507 30.827-18.282 59-21-18.361-21.607-52.336-38.526-81-55-17.54-10.081-40.76-28.04-61-14-4.521 12.541 4.29 24.67 5 36 1.354 21.612-11.758 42.23-34 43-30.566 1.058-46.33-19.6-69-29-11.981-4.968-25.708-6.11-38-7-12.052-.873-27.063 1.979-35-10-1.75-4-1.25-8.5 0-13 3.935-12.495 30.937-10.414 47-9 8.671.763 18.781 2.901 25 5 25.106 8.474 43.55 30.327 71 31 5.86-14.578-4.34-26.908-5-40-.815-16.167 7.625-30.306 21-37 30.81-15.42 63.187 2.266 88 16 19.215 10.635 36.694 23.513 53 30 63.966-51.034 138.122-91.878 235-110-2.737-7.596-7.215-13.451-11-20-37.848-4.576-70.872-28.239-66-71 6.353-55.763 84.222-76.234 120-35 10.279 11.847 18.853 32.163 14 54-4.854 21.843-19.133 36.29-39 47 4.726 4.15 4.519 17.475 13 20 5.18 1.542 18.11-2.326 28-3 29.559-2.016 66.168-1.461 90 2 4.232-7.101 8.637-14.029 12-22-28.924-10.179-49.983-45.024-37-80 6.741-18.161 21.338-32.262 37-39 27.933-12.017 61.617-.549 80 19 15.995 17.01 19.87 46.479 9 69-8.289 17.175-27.297 30.241-47 34-2.794.533-11.56.765-12 1-5.758 3.082-8.769 17.364-12 22 99.269 17.065 173.565 59.102 238 111 25.934-12.409 67.588-50.625 111-46 19.152 2.041 37.547 15.532 39 36 1.216 17.128-9.559 26.934-6 45 22.971 1.799 38.994-14.442 63-24 8.975-3.573 21.162-6.883 35-9 15.013-2.297 44.381-6.358 46 8zm-558-199c3.752 19.945 27.329 34.883 54 30 30.122-5.515 36.054-45.059 17-63-7.879-7.418-23.761-11.233-35-10-23.087 2.533-40.28 20.252-36 43zm-194 11c12.946 27.572 60.446 26.632 74 2 13.557-24.637-5.967-50.754-31-54-5.364-.696-13.716.642-16 1-23.459 3.683-38.962 25.525-27 51zm129 92c-30.024 1.507-62.289 4.476-91 11-54.206 12.317-100.953 31.651-142 56-20.933 12.417-41.784 25.175-58 42 74.994 56.291 169.869 107 301 107 97.647 0 178.652-28.981 240-66 21.664-13.073 42.236-27.387 59-44-74.311-58.222-176.443-112.653-309-106z"/>
    <path d="m723.667 49c12.567-2.468 22.768 2.331 26 7 6.001 8.668 4.281 22.631-3 30-13.892 14.06-48.185 5.065-42-22 1.439-6.298 8.398-12.918 19-15z"/>
    <path d="m523.667 51c20.483-4.426 32.035 7.586 32 21-.065 25.296-41.336 30.078-48 9-4.387-13.874 3.958-27.062 16-30z"/>
    <path d="m675.667 193c7.817 4.939 26.227 51.847 14 68-5.938 7.845-19.646 6.197-31 3-7.244-7.541-7.479-23.008-18-27-8.307-3.152-25.993-1.237-28 7-3.229 13.254 19.835 23.011 28 27 11.912 5.819 27.844 13.321 32 25 3.255 9.146 6.501 31.58 3 45-2.4 9.202-11.603 17.093-20 25-7.531 7.091-16.645 15.798-26 19-19.801 6.778-43.327-.117-66-2-10.099-15.621-20.999-35.597-19-60 26.048-7.213 31.564 16.556 55 14 8.558-.934 19.155-5.702 20-11 1.304-8.181-15.507-19.302-23-24-10.096-6.33-21.539-11.574-27-19-9.49-12.903-18.614-42.469-7-63 6.592-11.653 41.779-34.811 60-36 17.96-1.172 33.917 7.689 53 9z"/>
    <path d="m729.667 207c37.447-5.114 32.784 31.882 47 50 14.905-8.342 14.457-28.109 30-32 4.314-1.08 20.031-.675 24 3 7.227 6.692 20.892 36.592 24 51 1.712 7.936 1.884 16.603 2 23 .155 8.527.291 20.623-2 26-3.433 8.056-16.11 11.164-28 12-8.347-16.986-10.793-39.874-18-58-5.658 3.178-9.313 8.866-14 14-4.371 4.787-8.699 11.458-15 12-13.867 1.193-21.533-15.954-34-21-4.086 24.914-1.809 56.191-5 82-6.545 6.516-23.656 10.655-35 6-4.813-16.406-6.169-35.694-7-54-1.293-28.474 4.032-49.44 11-72 4.471-14.475 10.732-28.817 17-39 .559-1.44 1.559-2.44 3-3z"/>
    <path d="m540.667 265c-8.128.128-14.624-1.376-21-3-2.665-2.515-.195-7.932-4-11-7.567-3.1-19.62-1.714-30-2-2.208 6.125-.425 16.242-1 24 15.739-.073 32.352-1.019 41 6 .794 13.907.065 28.464-4 41-15.386-.614-24.241-7.759-37-11-1.774 15.88-1.623 43.606-15 47-5.945 1.508-14.652-2.195-21-5-5.874-2.596-11.197-6.275-16-9-4.013-26.956-13.488-56.772-13-86 .085-5.076.287-12.623 3-17 4.443-7.167 24.916-12.189 41-18 16.938-6.119 34.126-10.647 46-12 8.103-.923 18.177-1.943 24 2 12.718 8.612 10.184 35.661 7 54z"/>
  </g>
</svg>
