<?xml version="1.0" encoding="utf-8"?>
<!-- Generator: Adobe Illustrator 12.0.0, SVG Export Plug-In . SVG Version: 6.00 Build 51448)  -->
<!DOCTYPE svg PUBLIC "-//W3C//DTD SVG 1.1//EN" "http://www.w3.org/Graphics/SVG/1.1/DTD/svg11.dtd" [
	<!ENTITY ns_svg "http://www.w3.org/2000/svg">
	<!ENTITY ns_xlink "http://www.w3.org/1999/xlink">
]>
<svg  version="1.1" id="Layer_1" xmlns="&ns_svg;" xmlns:xlink="&ns_xlink;" width="1253.333" height="555.333"
	 viewBox="0 0 1253.333 555.333" overflow="visible" enable-background="new 0 0 1253.333 555.333" xml:space="preserve">
<g>
	<path fill-rule="evenodd" clip-rule="evenodd" d="M1245.667,275c1.334,7.667,0.334,16.5-8,20c-4.833,0.667-43.654,0.531-63,9
		c-21.94,9.605-37.56,25.378-60,28c-29.666,3.466-47.821-15.2-45-45c1.125-11.881,9.965-24.202,3-35
		c-19.943-5.446-38.138,4.267-53,12c-14.831,7.717-30.479,16.497-43,26c-13.781,10.459-25.274,23.788-39,33
		c46.19,4.249,64.854,25.713,73,67c4.743,24.043,5.218,48.593,27,55c32.92,9.683,63.768-18.787,100-10
		c7.615,1.847,17.951,7.735,25,14c4.555,4.048,15.736,13.93,15,24c-0.539,7.369-8.07,14.215-19,13c-11.699-1.3-16.696-16.513-28-20
		c-24.63-7.598-55.408,8.991-76,11c-43.442,4.239-59.289-24.34-68-55c-5.881-20.698-8.444-52.005-28-62
		c-11.013-5.629-46.475-9.502-66-6c-8.644,1.55-16.108,8.875-24,13c-8.491,4.438-16.462,7.348-25,12c6.407,6.55,12.68,8.708,18,14
		c15.641,15.557,23.391,40.597,16,70c-2.563,10.192-7.925,20.986-5,34c5.49,24.43,52.133,18.265,78,24
		c12.836,2.846,28.529,10.869,18,26c-8.38,12.041-21.456,3.333-33,1c-20.373-4.117-43.583,0.146-60-6
		c-14.787-5.536-33.18-23.229-35-41c-2.225-21.709,10.585-34.084,10-57c-0.691-27.06-28.143-47.534-55-45
		c-6.391,0.603-12.996,3.776-20,6c-67.617,21.467-164.746,28.131-244,12c-19.237-3.916-40.299-9.644-59-16
		c-6.814-2.316-13.398-5.548-19-6c-21.183-1.711-43.943,12.131-50,27c-10.213,25.073,12.594,57.892,4,84
		c-4.878,14.817-18.823,25.086-34,31c-16.721,6.516-38.313,3.06-58,7c-7.576,1.517-13.314,7.468-24,5
		c-4.562-1.054-14.206-9.446-12-20c2.219-10.617,27.202-16.718,46-18c23.463-1.6,47.21,1.105,53-16c5.375-15.879-6.438-33.927-8-48
		c-0.577-5.195-0.431-10.658,0-15c2.55-25.695,16.109-41.097,37-57c-13.856-9.477-30.333-16.333-44-26
		c-35.264,1.339-71.213-2.366-85,20c-6.993,11.345-6.824,24.309-9,35c-8.558,42.045-30.495,77.063-86,68
		c-14.528-2.373-28.587-9.339-44-11c-8.893-0.958-16.722,0.234-23,3c-5.3,2.335-7.6,5.629-12,10c-3.501,3.478-7.221,7.496-13,8
		c-10.158,0.887-17.332-6.234-18-13c-1.154-11.682,14.608-24.981,22-30c8.982-6.099,19.438-9.299,30-10
		c32.788-2.176,50.16,16.133,78,14c46.491-3.563,31.269-76.84,56-103c13.714-14.507,30.827-18.282,59-21
		c-18.361-21.607-52.336-38.526-81-55c-17.54-10.081-40.76-28.04-61-14c-4.521,12.541,4.29,24.67,5,36
		c1.354,21.612-11.758,42.23-34,43c-30.566,1.058-46.33-19.6-69-29c-11.981-4.968-25.708-6.11-38-7
		c-12.052-0.873-27.063,1.979-35-10c-1.75-4-1.25-8.5,0-13c3.935-12.495,30.937-10.414,47-9c8.671,0.763,18.781,2.901,25,5
		c25.106,8.474,43.55,30.327,71,31c5.86-14.578-4.34-26.908-5-40c-0.815-16.167,7.625-30.306,21-37c30.81-15.42,63.187,2.266,88,16
		c19.215,10.635,36.694,23.513,53,30c63.966-51.034,138.122-91.878,235-110c-2.737-7.596-7.215-13.451-11-20
		c-37.848-4.576-70.872-28.239-66-71c6.353-55.763,84.222-76.234,120-35c10.279,11.847,18.853,32.163,14,54
		c-4.854,21.843-19.133,36.29-39,47c4.726,4.15,4.519,17.475,13,20c5.18,1.542,18.11-2.326,28-3c29.559-2.016,66.168-1.461,90,2
		c4.232-7.101,8.637-14.029,12-22c-28.924-10.179-49.983-45.024-37-80c6.741-18.161,21.338-32.262,37-39
		c27.933-12.017,61.617-0.549,80,19c15.995,17.01,19.87,46.479,9,69c-8.289,17.175-27.297,30.241-47,34
		c-2.794,0.533-11.56,0.765-12,1c-5.758,3.082-8.769,17.364-12,22c99.269,17.065,173.565,59.102,238,111
		c25.934-12.409,67.588-50.625,111-46c19.152,2.041,37.547,15.532,39,36c1.216,17.128-9.559,26.934-6,45
		c22.971,1.799,38.994-14.442,63-24c8.975-3.573,21.162-6.883,35-9C1214.68,264.703,1244.048,260.642,1245.667,275z M687.667,76
		c3.752,19.945,27.329,34.883,54,30c30.122-5.515,36.054-45.059,17-63c-7.879-7.418-23.761-11.233-35-10
		C700.58,35.533,683.387,53.252,687.667,76z M493.667,87c12.946,27.572,60.446,26.632,74,2c13.557-24.637-5.967-50.754-31-54
		c-5.364-0.696-13.716,0.642-16,1C497.208,39.683,481.705,61.525,493.667,87z M622.667,179c-30.024,1.507-62.289,4.476-91,11
		c-54.206,12.317-100.953,31.651-142,56c-20.933,12.417-41.784,25.175-58,42c74.994,56.291,169.869,107,301,107
		c97.647,0,178.652-28.981,240-66c21.664-13.073,42.236-27.387,59-44C857.356,226.778,755.224,172.347,622.667,179z"/>
	<path fill-rule="evenodd" clip-rule="evenodd" d="M723.667,49c12.567-2.468,22.768,2.331,26,7c6.001,8.668,4.281,22.631-3,30
		c-13.892,14.06-48.185,5.065-42-22C706.106,57.702,713.065,51.082,723.667,49z"/>
	<path fill-rule="evenodd" clip-rule="evenodd" d="M523.667,51c20.483-4.426,32.035,7.586,32,21c-0.065,25.296-41.336,30.078-48,9
		C503.28,67.126,511.625,53.938,523.667,51z"/>
	<path fill-rule="evenodd" clip-rule="evenodd" d="M675.667,193c7.817,4.939,26.227,51.847,14,68c-5.938,7.845-19.646,6.197-31,3
		c-7.244-7.541-7.479-23.008-18-27c-8.307-3.152-25.993-1.237-28,7c-3.229,13.254,19.835,23.011,28,27
		c11.912,5.819,27.844,13.321,32,25c3.255,9.146,6.501,31.58,3,45c-2.4,9.202-11.603,17.093-20,25c-7.531,7.091-16.645,15.798-26,19
		c-19.801,6.778-43.327-0.117-66-2c-10.099-15.621-20.999-35.597-19-60c26.048-7.213,31.564,16.556,55,14
		c8.558-0.934,19.155-5.702,20-11c1.304-8.181-15.507-19.302-23-24c-10.096-6.33-21.539-11.574-27-19
		c-9.49-12.903-18.614-42.469-7-63c6.592-11.653,41.779-34.811,60-36C640.627,182.828,656.584,191.689,675.667,193z"/>
	<path fill-rule="evenodd" clip-rule="evenodd" d="M729.667,207c37.447-5.114,32.784,31.882,47,50c14.905-8.342,14.457-28.109,30-32
		c4.314-1.08,20.031-0.675,24,3c7.227,6.692,20.892,36.592,24,51c1.712,7.936,1.884,16.603,2,23c0.155,8.527,0.291,20.623-2,26
		c-3.433,8.056-16.11,11.164-28,12c-8.347-16.986-10.793-39.874-18-58c-5.658,3.178-9.313,8.866-14,14
		c-4.371,4.787-8.699,11.458-15,12c-13.867,1.193-21.533-15.954-34-21c-4.086,24.914-1.809,56.191-5,82
		c-6.545,6.516-23.656,10.655-35,6c-4.813-16.406-6.169-35.694-7-54c-1.293-28.474,4.032-49.44,11-72
		c4.471-14.475,10.732-28.817,17-39C727.226,208.56,728.226,207.56,729.667,207z"/>
	<path fill-rule="evenodd" clip-rule="evenodd" d="M540.667,265c-8.128,0.128-14.624-1.376-21-3c-2.665-2.515-0.195-7.932-4-11
		c-7.567-3.1-19.62-1.714-30-2c-2.208,6.125-0.425,16.242-1,24c15.739-0.073,32.352-1.019,41,6c0.794,13.907,0.065,28.464-4,41
		c-15.386-0.614-24.241-7.759-37-11c-1.774,15.88-1.623,43.606-15,47c-5.945,1.508-14.652-2.195-21-5
		c-5.874-2.596-11.197-6.275-16-9c-4.013-26.956-13.488-56.772-13-86c0.085-5.076,0.287-12.623,3-17
		c4.443-7.167,24.916-12.189,41-18c16.938-6.119,34.126-10.647,46-12c8.103-0.923,18.177-1.943,24,2
		C546.385,219.612,543.851,246.661,540.667,265z"/>
	<path fill-rule="evenodd" clip-rule="evenodd" d="M332.667,721c4.675,0.014,4.921,6.208,6,9c9.137,23.655,17.12,52.025,26,77
		c4.666-3.367,5.3-12.098,7-18c5.413-18.794,11.942-38.177,15-59c-1.796-3.87-10.023-1.311-13-4c-0.709-6.121,10.018-3.025,16-3
		c7.045,0.029,14.612-1.989,17,1c0.959,4.96-6.321,1.68-8,4c-13.846,31.821-21.935,69.398-32,105c-2.667,0-5.333,0-8,0
		c-8.736-28.931-19.532-55.802-29-84c-13.493,25.84-22.98,55.687-34,84c-2.333,0-4.667,0-7,0c-8.418-34.248-15.818-69.516-24-104
		c-2.011-2.989-9.463-0.537-11-4c0.956-4.343,11.01-2.035,19-2c8.018,0.036,18.807-2.759,21,2c-1.401,4.266-10.785,0.549-13,4
		c4.221,27.112,11.339,51.327,16,78c12.927-27.073,23.119-56.881,34-86C331.333,721,332,721,332.667,721z"/>
	<path fill-rule="evenodd" clip-rule="evenodd" d="M488.667,721c6.347,4.679,6.626,14.029,9,21c7.142,20.975,16.124,43.897,23,66
		c9.091-23.909,15.295-50.705,22-77c-1.205-5.461-12.17-1.164-14-6c0.772-4.674,9.604-2.056,16-2c6.802,0.059,14.557-1.771,17,1
		c1.452,4.785-4.181,2.485-7,3c-14.12,31.881-22.84,69.16-32,106c-3,0-6,0-9,0c-7.587-29.746-19.993-54.674-28-84
		c-5.542,5.012-7.268,13.389-10,20c-8.344,20.187-16.735,41.983-24,64c-2.667,0-5.333,0-8,0c-7.912-34.755-15.311-70.022-24-104
		c-1.705-2.628-7.658-1.009-10-3c-1.06-6.353,7.098-3.018,12-3c9.556,0.034,22.288-1.692,28,1c-0.079,5.921-11.067,0.933-13,5
		c2.948,27.719,10.942,50.392,15,77c5.844-5.041,6.22-13.075,9-20c8.056-20.068,17.734-43.159,26-65
		C487.333,721,488,721,488.667,721z"/>
	<path fill-rule="evenodd" clip-rule="evenodd" d="M723.667,728c-3.106,5.227-1.023,15.643-4,21c-7.709,1.376-1.659-11.008-5-14
		c-17.992-14.211-50.484-6.84-50,15c0.671,30.259,52.058,9.48,63,33c11.235,24.15-12.512,46.986-34,50
		c-15.685,2.199-28.586-0.972-41-6c3.019-5.648-1.816-19.149,3-23c4.909-1.008,2.637,5.097,3,7c1.584,8.303,7.845,13.459,17,15
		c15.049,2.532,34.782-3.104,39-14c3.419-8.831,2.361-19.882-5-25c-10.668-7.416-35.055-0.359-49-10
		c-8.116-5.611-10.406-17.782-9-28C655.503,721.115,696.636,713.086,723.667,728z"/>
	<path fill-rule="evenodd" clip-rule="evenodd" d="M1030.667,804c-8.958,0.903-9.735-9.427-9-15c1.715-12.997,24.105-22.599,24-40
		c-0.076-12.527-13.251-20.847-26-16c-6.564,2.495-5.636,8.641-12,13c-4.926-3.975,2.724-14.85,4-20
		c26.391-13.731,54.642,1.723,48,28c-3.927,15.534-28.895,23.561-31,38C1027.998,796.59,1031.376,800.988,1030.667,804z"/>
	<path fill-rule="evenodd" clip-rule="evenodd" d="M644.667,723c0.179,4.846-0.794,8.539-2,12c-0.74,3.926,2.11,11.443-3,11
		c-5.699-0.301-1.565-10.435-4-14c-9.328-3.68-26.276-3.919-38-2c-2.219,12.448-0.417,28.916-1,43c10.578-0.089,21.828,0.494,31-1
		c3.197-2.803-0.521-12.521,5-13c5.635,0.305,2.038,6.988,2,12c-0.033,4.322,0.056,9.271,0,14c-0.048,4.043,2.061,10.247-2,10
		c-6.514,0.18-0.464-12.203-5-14c-7.601-2.175-21.402-3.117-30-1c-1.809,12.481-1.47,31.465,0,44c2.089,3.911,10.158,1.842,14,4
		c1.051,6.705-7.371,3.035-12,3c-6.958-0.053-15.008-0.128-21,0c-4.925,0.105-11.956,3.131-12-1c0.115-5.885,10.143-1.856,13-5
		c3.88-27.619,2.034-65.739,1-95c-1.833-3.524-13.969-1.998-14-4c0-0.667,0-1.333,0-2c-1.135-0.19-0.555-1.003,0-1
		C589.287,723.837,620.046,720.051,644.667,723z"/>
	<path fill-rule="evenodd" clip-rule="evenodd" d="M804.667,808c14.689-27.644,27.101-57.566,41-86c4.302,1.215,9.943,1.004,16,1
		c4.867-0.004,12.5-3.165,13,2c-1.131,4.202-9.882,0.785-13,3c-1.506,30.433-1.884,69.449,0,97c2.059,3.274,9.988,0.678,13,3
		c0.884,6.796-6.911,2.945-11,3c-5.248,0.07-11.924-0.146-18,0c-5.361,0.129-11.9,2.398-14-1c0.314-5.686,10.609-1.391,13-5
		c1.843-26.157,0.681-55.319,1-83c-4.951,6.438-8.579,14.486-12,22c-8.579,18.844-17.143,38.64-26,59c-1.524,3.505-3.279,8.402-7,10
		c-5.767-6.031-7.657-14.646-11-22c-9.774-21.503-22.188-44.138-32-67c-1.918,24.586-1.315,55.314,0,80
		c2.111,4.222,11.562,1.104,14,5c0.124,5.203-6.665,2.026-11,2c-4.522-0.027-9.73-0.024-14,0c-4.384,0.025-11.805,3.514-12-2
		c0.91-4.09,9.063-0.937,12-3c5.282-27.072,2.922-65.92,2-96c-2.3-3.7-10.006-1.994-14-4c0-1,0-2,0-3c6.793-1.128,21.628,0.392,28,0
		c5.482,5.62,7.684,13.926,11,21C783.421,764.808,793.999,787.298,804.667,808z"/>
	<path fill-rule="evenodd" clip-rule="evenodd" d="M887.667,831c-0.802-6.135,6.449-4.218,7-9c1.207-28.37,2.656-65.202-1-92
		c-3.003-3.663-14.164,0.831-13-7c0.81-0.19,0.997-1.003,2-1c57.158,0.088,117.311-6.841,110,59c-1.445,13.02-7.781,25.354-15,33
		C958.305,834.508,925.357,833.313,887.667,831z M961.667,816c18.022-14.838,22.929-57.298,4-76c-10.429-10.305-33.244-13.012-52-10
		c-4.825,5.124-3,13.869-3,21c0,24.489-0.694,51.457,1,73C932.487,825.939,949.544,825.979,961.667,816z"/>
	<path fill-rule="evenodd" clip-rule="evenodd" d="M1025.667,816c15.588-5.836,16.048,19.85,1,17
		C1021.121,831.95,1015.683,819.737,1025.667,816z"/>
	<path fill-rule="evenodd" clip-rule="evenodd" d="M852.667,964c-1.995-1.005-1.578-4.422-5-4c0.515-3.485,6.533-1.467,10-2
		c0.745,3.078-2.745,1.922-2,5l-1.833-0.5L852.667,964z"/>
	<path fill-rule="evenodd" clip-rule="evenodd" d="M858.5,975.5l1.167-1.5c0.973,0.027,0.775,1.225,1,2l-0.5,1.5l1.5-0.5
		c0.319,2.319-0.161,3.839-1,5c-3.744,0.078-3.411-3.922-4-7L858.5,975.5z"/>
	<path fill-rule="evenodd" clip-rule="evenodd" d="M865.667,968h-1c2.224-2.954-0.291-7.853-4-8c0.708-3.626,7.288-1.379,11-2
		c-4.112,4.758,0.116,13.153,4,16l-0.5,1l0.5,1c0.723,3.056-1.022,3.645-1,6c-5.136-1.531-4.89-8.444-7-13c-0.667,0-1.333,0-2,0V968
		z"/>
	<path fill-rule="evenodd" clip-rule="evenodd" d="M889.667,963c-1.714-1.286-3.933-2.067-4-5c3.396,0.271,8.107-0.774,10,1
		c-0.111,1.889-3.306,0.694-3,3l-1.833-0.5L889.667,963z"/>
	<path fill-rule="evenodd" clip-rule="evenodd" d="M896.5,977.5l1.167-1.5c0.333,0,0.667,0,1,0l-0.5,1.5l1.5-0.5
		c-0.564,2.436-0.856,5.144-4,5c0.409-2.409-1.826-2.174-1-5L896.5,977.5z"/>
	<path fill-rule="evenodd" clip-rule="evenodd" d="M903.167,968l-0.5-1c0.396-4.396-1.229-6.771-5-7c0.723-3.408,9.772-2.25,12-1
		c-6.127,2.702,0.185,7.609,0,13l-1.833-0.5l-1.167,1.5c-2.059-0.274-0.941-3.726-3-4c-0.333,0-0.667,0-1,0L903.167,968z"/>
	<path fill-rule="evenodd" clip-rule="evenodd" d="M908.5,973.5l1.167-1.5c1.018,0.649,1.034,2.299,3,2l-0.5,1.5l1.5-0.5
		c0.101,3.101-1.223,4.777-2,7c-3.458-1.209-4.293-5.04-5-9L908.5,973.5z"/>
	<path fill-rule="evenodd" clip-rule="evenodd" d="M974.667,965c-1.171-2.829-4.35-3.65-5-7c3.675,0.325,8.854-0.854,11,1
		c-0.895,1.771-4.059,1.274-3,5l-1.833-0.5L974.667,965z"/>
	<path fill-rule="evenodd" clip-rule="evenodd" d="M980.5,974.5l1.167-1.5c1.018,0.649,1.034,2.299,3,2l-0.5,1l0.5,1
		c-0.564,2.436-0.856,5.144-4,5c-0.152-3.181-2.268-4.399-2-8L980.5,974.5z"/>
	<path fill-rule="evenodd" clip-rule="evenodd" d="M1010.667,959c4.017,0.983,6.132,3.868,6,9c-1.333,0-2.667,0-4,0l0.5-1.5
		l-1.5-0.5c-1.02-1.313-0.98-3.687-2-5l1.5-0.5L1010.667,959z"/>
	<path fill-rule="evenodd" clip-rule="evenodd" d="M1002.167,967l0.5,1c-0.333,0-0.667,0-1,0c-0.094,6.761,3.369,9.965,11,9
		l-0.5,1.5l1.5,0.5c-9.733,10.355-22.674-7.329-14-16l0.5,1.5l1.5-0.5c0,0.667,0,1.333,0,2L1002.167,967z"/>
	<path fill-rule="evenodd" clip-rule="evenodd" d="M1025.667,982c-2,0-4,0-6,0c4.41-3.22,4.41-17.78,0-21
		c3.548-0.103,7.984-6.578,8,1v1h1c-2.972,3.149-0.069,9.282-1,16l-2.5,0.5L1025.667,982z"/>
	<path fill-rule="evenodd" clip-rule="evenodd" d="M1033.167,960.5l-1.5-0.5c1.587-4.407,7.256-0.529,9,1
		c0.894,7.106-2.666,18.666,4,20c-2.038,2.295-8.305,0.362-12,1c5.535-2.198,4.919-15.185,2-20c-0.667,0-1.333,0-2,0L1033.167,960.5
		z"/>
	<path fill-rule="evenodd" clip-rule="evenodd" d="M1084.667,959c2.729-0.729,2.013,1.987,4,2c0,5.333,0,10.667,0,16
		c-0.396,2.396,4.555-0.555,3,3c-1.789,2.646-7.34,2.726-8-1v-1h-1c0.443-0.891,0.878-1.788,2-2c-1.639-2.691,1.36-5.128-1-8
		l1.5-0.5l-0.5-1.5c0.409-2.409-1.826-2.174-1-5l1.5-0.5L1084.667,959z"/>
	<path fill-rule="evenodd" clip-rule="evenodd" d="M1078.167,980.5l1.5,0.5c-2.649,3.227-6.415-0.852-8-2
		c-0.256-4.922,0.886-8.447,5-9l-0.5,1.5l1.5,0.5c-2.158,2.143-0.512,5.587,1,7L1078.167,980.5z"/>
	<path fill-rule="evenodd" clip-rule="evenodd" d="M1099.667,982c-2,0-4,0-6,0c4.842-2.158,4.169-9.831,4-17
		c-0.314-2.352-4.74-0.594-4-4c3.725,0.666,8.72-6.955,8,1l-0.5,1.5l1.5,0.5c-2.047,3.286-0.54,10.127-1,15l-2.286,0.643
		L1099.667,982z"/>
	<path fill-rule="evenodd" clip-rule="evenodd" d="M1135.667,958c2,0,4,0,6,0c-1.313,3.687-3.323,6.677-6,9l-0.7-1.7l-1.3-1.3
		c-0.127-1.794,1.224-2.109,1-4l1.5-0.5L1135.667,958z"/>
	<path fill-rule="evenodd" clip-rule="evenodd" d="M1124.833,979.5l1.833-0.5c0,0.333,0,0.667,0,1l-1.5,0.5l0.5,1.5
		c-1.667,0-3.334,0-5,0c-0.17-2.503,1.536-3.131,3-4L1124.833,979.5z"/>
	<path fill-rule="evenodd" clip-rule="evenodd" d="M1155.667,959c2.487-0.154,3.096,1.571,5,2c0,5.333,0,10.667,0,16
		c-0.396,2.396,4.555-0.555,3,3c-2.395,2.042-7.063,3.003-8-1l-0.5-1l-0.5-1c2.255-0.745,0.391-5.609,1-8l2.3-1.5l-2.3-1.5
		c0.319-2.319-0.161-3.84-1-5l1.5-0.5L1155.667,959z"/>
	<path fill-rule="evenodd" clip-rule="evenodd" d="M1147.167,961.5l1.5,0.5c0.197,2.863,0.124,5.458-3,5
		c-1.467-1.585-2.063-7.939,2-7L1147.167,961.5z"/>
	<path fill-rule="evenodd" clip-rule="evenodd" d="M1196.667,960c4.064-0.398,3.077,4.256,6,5c0.278,5.611,0.105,10.772-3,13
		l-0.5-1.5l-1.5-0.5c0.494-5.828-0.287-10.379-2-14l1.5-0.5L1196.667,960z"/>
	<path fill-rule="evenodd" clip-rule="evenodd" d="M1185.167,977.5l-0.5,1.5c-4.692-1.376-5.911-13.839-1-16l0.5,1.5l1.5-0.5
		c-0.307,4.973,0.158,9.175,1,13L1185.167,977.5z"/>
	<path fill-rule="evenodd" clip-rule="evenodd" d="M1207.667,979c-1.321-5.346,3.361-16.694-4-16c1.344-2.235,8.568-7.972,9-2
		l-0.5,1.5l1.5,0.5c-2.784,4.697-0.299,9.475-1,17l-1.5,0.5l0.5,1.5c-0.667,0-1.333,0-2,0l0.5-2.5L1207.667,979z"/>
	<path fill-rule="evenodd" clip-rule="evenodd" d="M1216.167,960.5l-1.5-0.5c0.85-1.483,2.517-2.15,5-2c0.84,1.161,1.319,2.681,1,5
		c-2.319,0.319-3.84-0.161-5-1L1216.167,960.5z"/>
	<path fill-rule="evenodd" clip-rule="evenodd" d="M1240.167,961.5l1.5,0.5c0.605,2.2,2.513,7.453-1,8l-1.167-1.5l-1.833,0.5
		c0-2,0-4,0-6l1.5-1.167l-0.5-1.833c0.667,0,1.333,0,2,0L1240.167,961.5z"/>
	<path fill-rule="evenodd" clip-rule="evenodd" d="M965.667,978c0,1,0,2,0,3C958.902,985.299,958.902,973.701,965.667,978z"/>
	<path fill-rule="evenodd" clip-rule="evenodd" d="M1173.667,978c0,1.333,0,2.667,0,4c-1.333,0-2.667,0-4,0
		C1166.554,979.244,1170.911,974.888,1173.667,978z"/>
	<path fill-rule="evenodd" clip-rule="evenodd" d="M939.667,967c1.123-5.456-3.065-5.602-4-9c3.675,0.325,8.854-0.854,11,1
		c-4.378,1.704-1.998,5.055-1,9l-1.786-0.357L942.667,969c-0.667,0-1.333,0-2,0l0.5-1.5L939.667,967z"/>
	<path fill-rule="evenodd" clip-rule="evenodd" d="M944.5,970.5l1.167-1.5c2.207,0.793,1.3,4.7,4,5l-0.5,1.5l1.5-0.5
		c0.024,3.69-0.447,6.886-4,7c-0.384-4.949-3.807-6.859-4-12L944.5,970.5z"/>
	<path fill-rule="evenodd" clip-rule="evenodd" d="M935.167,976.5l1.5,0.5c0.409,2.409-1.826,2.174-1,5
		c-3.201-0.133-4.399-2.268-4-6l1.833,0.5l1.167-1.5c0.333,0,0.667,0,1,0L935.167,976.5z"/>
	<path fill-rule="evenodd" clip-rule="evenodd" d="M929.833,966.5l-1.167,1.5c-1.877-3.456-3.967-6.7-6-10
		c3.396,0.271,8.107-0.774,10,1c-3.4,1.447-1.206,4.689-1,8L929.833,966.5z"/>
	<g>
		<path fill-rule="evenodd" clip-rule="evenodd" fill="none" stroke="#000000" stroke-width="1.7889" stroke-linecap="round" d="
			M875.167,975c0.165-0.052,0.33-0.103,0.496-0.154c2.146-4.982,3.554-10.166,5.504-15.346"/>
		<path fill-rule="evenodd" clip-rule="evenodd" fill="none" stroke="#000000" stroke-width="1.3452" stroke-linecap="round" d="
			M865.667,968c-2.051,3.124-1.962,7.48-5.5,9.5"/>
		<path fill-rule="evenodd" clip-rule="evenodd" fill="none" stroke="#000000" stroke-width="3.6423" stroke-linecap="round" d="
			M858.5,975.5c-1.508-4.382-3.196-8.61-4.666-13"/>
		<path fill-rule="evenodd" clip-rule="evenodd" fill="none" stroke="#000000" stroke-width="1.5226" stroke-linecap="round" d="
			M898.167,977.5c2.934-2.548,2.802-6.845,5-9.5"/>
		<path fill-rule="evenodd" clip-rule="evenodd" fill="none" stroke="#000000" stroke-width="3.1623" stroke-linecap="round" d="
			M907.833,971.5c0.222,0.667,0.444,1.333,0.666,2"/>
		<path fill-rule="evenodd" clip-rule="evenodd" fill="none" stroke="#000000" stroke-width="1.8383" stroke-linecap="round" d="
			M912.167,975.5c2.982-4.761,4.28-10.606,6-16"/>
		<path fill-rule="evenodd" clip-rule="evenodd" fill="none" stroke="#000000" stroke-width="3.6056" stroke-linecap="round" d="
			M896.5,977.5c-1.726-5.398-4.071-10.552-5.666-16"/>
		<path fill-rule="evenodd" clip-rule="evenodd" fill="none" stroke="#000000" stroke-width="1.7133" stroke-linecap="round" d="
			M984.167,976c0.165-0.052,0.33-0.103,0.496-0.154c1.751-5.518,4.987-10.409,6.004-16.179"/>
		<path fill-rule="evenodd" clip-rule="evenodd" fill="none" stroke="#000000" stroke-width="3.451" stroke-linecap="round" d="
			M980.5,974.5c-1.701-3.614-3.162-7.306-4.666-11"/>
		<path fill-rule="evenodd" clip-rule="evenodd" fill="none" stroke="#000000" stroke-width="1.9365" stroke-linecap="round" d="
			M1012.167,978.5c1.204-0.387,2.058-1.272,2.5-2"/>
		<path fill-rule="evenodd" clip-rule="evenodd" fill="none" stroke="#000000" stroke-width="2.0931" stroke-linecap="round" d="
			M1000.167,964.5c1.499-4.438,6.982-7.35,11-4"/>
		<path fill-rule="evenodd" clip-rule="evenodd" fill="none" stroke="#000000" stroke-width="2.1269" stroke-linecap="round" d="
			M1002.167,967c3.65-0.257,7.465,0.562,11-0.5"/>
		<path fill-rule="evenodd" clip-rule="evenodd" fill="none" stroke="#000000" stroke-width="1.7951" stroke-linecap="round" d="
			M1027.667,963c1.851-0.905,3.396-2.151,5.5-2.5"/>
		<path fill-rule="evenodd" clip-rule="evenodd" fill="none" stroke="#000000" stroke-width="3.266" stroke-linecap="round" d="
			M1027.167,980.5c-0.667-0.262-1.333-0.629-2-1"/>
		<path fill-rule="evenodd" clip-rule="evenodd" fill="none" stroke="#000000" stroke-width="2.5386" stroke-linecap="round" d="
			M1054.167,991.5c-1.735-0.994-2.819-1.259-4.508-2.482c-1.622-3.242,2.072-5.747,2.65-8.804"/>
		<path fill-rule="evenodd" clip-rule="evenodd" fill="none" stroke="#000000" stroke-width="2.7988" stroke-linecap="round" d="
			M1052.309,980.214c-2.723-2.195-0.146-5.68,1.107-7.964"/>
		<path fill-rule="evenodd" clip-rule="evenodd" fill="none" stroke="#000000" stroke-width="2.9954" stroke-linecap="round" d="
			M1053.417,972.25c-1.577-2.13-2.272-4.769-2.685-7.328c1.237-3.333,4.294-6.789,8.235-5.867c1.497,1.045,2.974,2.168,4.6,3.045"/>
		<path fill-rule="evenodd" clip-rule="evenodd" fill="none" stroke="#000000" stroke-width="2.3452" stroke-linecap="round" d="
			M1063.567,962.1c0.719-0.599,1.694-0.848,2.6-1.1"/>
		<path fill-rule="evenodd" clip-rule="evenodd" fill="none" stroke="#000000" stroke-width="2.9567" stroke-linecap="round" d="
			M1053.417,972.25c2.713,0.994,6.112,1.336,8.66-0.223c2.488-2.762,3.32-6.593,1.49-9.928"/>
		<path fill-rule="evenodd" clip-rule="evenodd" fill="none" stroke="#000000" stroke-width="3.0822" stroke-linecap="round" d="
			M1054.167,991.5c2,0,4,0,6,0"/>
		<path fill-rule="evenodd" clip-rule="evenodd" fill="none" stroke="#000000" stroke-width="2.6159" stroke-linecap="round" d="
			M1060.167,991.5c3.981-0.816,8.245-3.524,8.41-7.932c-3.596-5.487-10.956-1.898-16.268-3.354"/>
		<path fill-rule="evenodd" clip-rule="evenodd" fill="none" stroke="#000000" stroke-width="1.854" stroke-linecap="round" d="
			M1076.167,971.5c2.765-1.504,5.691-4.854,9-4"/>
		<path fill-rule="evenodd" clip-rule="evenodd" fill="none" stroke="#000000" stroke-width="2.1731" stroke-linecap="round" d="
			M1075.167,962.5c1.826-3.915,6.778-4.476,10-2"/>
		<path fill-rule="evenodd" clip-rule="evenodd" fill="none" stroke="#000000" stroke-width="1.7951" stroke-linecap="round" d="
			M1078.167,980.5c2.096-0.266,3.645-1.643,5.5-2.5"/>
		<path fill-rule="evenodd" clip-rule="evenodd" fill="none" stroke="#000000" stroke-width="4.3336" stroke-linecap="round" d="
			M1101.167,963.5c2.719-1.269,5.22-2.951,8.249-3.451c6.511,3.993,2.747,13.122,3.751,19.451"/>
		<path fill-rule="evenodd" clip-rule="evenodd" fill="none" stroke="#000000" stroke-width="3.5355" stroke-linecap="round" d="
			M1113.167,979.5c0.667,0.404,1.333,0.705,2,1"/>
		<path fill-rule="evenodd" clip-rule="evenodd" fill="none" stroke="#000000" stroke-width="3.266" stroke-linecap="round" d="
			M1113.167,979.5c-0.667,0.404-1.333,0.705-2,1"/>
		<path fill-rule="evenodd" clip-rule="evenodd" fill="none" stroke="#000000" stroke-width="3.0414" stroke-linecap="round" d="
			M1102.167,981c-1.013-0.438-1.902-0.881-2.786-1.357"/>
		<path fill-rule="evenodd" clip-rule="evenodd" fill="none" stroke="#000000" stroke-width="2.205" stroke-linecap="round" d="
			M1125.167,980.5c4.855,0.777,10.154,0.843,15,0"/>
		<path fill-rule="evenodd" clip-rule="evenodd" fill="none" stroke="#000000" stroke-width="3.6056" stroke-linecap="round" d="
			M1124.833,979.5c3.079-4.881,6.264-9.893,10.133-14.2"/>
		<path fill-rule="evenodd" clip-rule="evenodd" fill="none" stroke="#000000" stroke-width="2.1213" stroke-linecap="round" d="
			M1125.167,959c3.65,0.257,7.465-0.562,11,0.5"/>
		<path fill-rule="evenodd" clip-rule="evenodd" fill="none" stroke="#000000" stroke-width="2.7023" stroke-linecap="round" d="
			M1155.167,978c-2.164,1.55-5.012,3.03-7.657,1.685c-5.911-6.451,4.494-12.669,10.457-12.185"/>
		<path fill-rule="evenodd" clip-rule="evenodd" fill="none" stroke="#000000" stroke-width="2.1134" stroke-linecap="round" d="
			M1147.167,961.5c1.96-1.522,4.131-3.073,6.786-2.452c0.421,0.287,1.29,0.913,2.214,1.452"/>
		<path fill-rule="evenodd" clip-rule="evenodd" fill="none" stroke="#000000" stroke-width="2.0475" stroke-linecap="round" d="
			M1184.167,964.5c0.262-0.709,0.384-1.254,0.5-1.792c1.86-2.547,5.067-4.263,8.301-3.653c1.316,0.998,2.921,1.27,4.199,2.445"/>
		<path fill-rule="evenodd" clip-rule="evenodd" fill="none" stroke="#000000" stroke-width="2.2913" stroke-linecap="round" d="
			M1185.167,977.5c1.458,1.399,2.806,2.394,3.567,3.173c3.928,1.201,8.616-0.308,10.433-4.173"/>
		<path fill-rule="evenodd" clip-rule="evenodd" fill="none" stroke="#000000" stroke-width="2" stroke-linecap="round" d="
			M1212.167,962.5c1.404-0.642,2.536-1.359,4-2"/>
		<path fill-rule="evenodd" clip-rule="evenodd" fill="none" stroke="#000000" stroke-width="2.1602" stroke-linecap="round" d="
			M1211.167,980.5c0.667,0.273,1.333,0.391,2,0.5"/>
		<path fill-rule="evenodd" clip-rule="evenodd" fill="none" stroke="#000000" stroke-width="3.266" stroke-linecap="round" d="
			M1208.167,980.5c0.667-0.262,1.333-0.629,2-1"/>
		<path fill-rule="evenodd" clip-rule="evenodd" fill="none" stroke="#000000" stroke-width="2.1602" stroke-linecap="round" d="
			M1240.167,961.5c0.667-0.273,1.333-0.391,2-0.5"/>
		<path fill-rule="evenodd" clip-rule="evenodd" fill="none" stroke="#000000" stroke-width="3.0107" stroke-linecap="round" d="
			M1227.5,980.5c4.585,0.135,9.222-0.263,13.773,0.194c1.519,1.255,2.035,2.41,2.644,3.306"/>
		<path fill-rule="evenodd" clip-rule="evenodd" fill="none" stroke="#000000" stroke-width="2.6173" stroke-linecap="round" d="
			M1229.167,991.5c-6.364-1.354-3.887-7.115-1.667-11"/>
		<path fill-rule="evenodd" clip-rule="evenodd" fill="none" stroke="#000000" stroke-width="2.9352" stroke-linecap="round" d="
			M1227.5,980.5c-1.839-2.576,0.364-5.736,1.667-8"/>
		<path fill-rule="evenodd" clip-rule="evenodd" fill="none" stroke="#000000" stroke-width="2.7988" stroke-linecap="round" d="
			M1229.167,972.5c-3.922-3.938-3.075-10.433,1.654-13.231c3.244-1.398,5.644,1.435,8.346,2.564"/>
		<path fill-rule="evenodd" clip-rule="evenodd" fill="none" stroke="#000000" stroke-width="2.4202" stroke-linecap="round" d="
			M1229.167,972.5c3.796,1.218,9.645,1.047,10.333-4"/>
		<path fill-rule="evenodd" clip-rule="evenodd" fill="none" stroke="#000000" stroke-width="3.0822" stroke-linecap="round" d="
			M1229.167,991.5c2.333,0,4.667,0,7,0"/>
		<path fill-rule="evenodd" clip-rule="evenodd" fill="none" stroke="#000000" stroke-width="2.0774" stroke-linecap="round" d="
			M1236.167,991.5c3.438-1.205,8.009-3.017,7.75-7.5"/>
		<path fill-rule="evenodd" clip-rule="evenodd" fill="none" stroke="#000000" stroke-width="1.7941" stroke-linecap="round" d="
			M949.167,975.5c3.724-4.058,4.416-10.726,6-16"/>
		<path fill-rule="evenodd" clip-rule="evenodd" fill="none" stroke="#000000" stroke-width="3.1091" stroke-linecap="round" d="
			M944.5,970.5c-0.217-1.009-0.385-1.935-0.619-2.857"/>
		<path fill-rule="evenodd" clip-rule="evenodd" fill="none" stroke="#000000" stroke-width="3.7295" stroke-linecap="round" d="
			M933.5,976.5c-1.167-3.371-2.503-6.625-3.666-10"/>
		<path fill-rule="evenodd" clip-rule="evenodd" fill="none" stroke="#000000" stroke-width="1.7353" stroke-linecap="round" d="
			M935.167,976.5c0.621-0.241,1.038-0.424,1.446-0.604c2.234-2.59,1.37-6.48,4.554-8.396"/>
	</g>
</g>
</svg>
