<svg xmlns="http://www.w3.org/2000/svg" viewBox="100 80 500 500">
<rect x="100" y="80" height="500" width="500" fill="#FBDE34"/><g fill="#343433">
<path d="m230 497l38.57-23.342c7.441 13.193 14.21 24.355 30.446 24.355 15.563 0 25.375-6.088 25.375-29.769v-161.04h47.363v161.714c0 49.057-28.755 71.386-70.708 71.386-37.889 0-59.881-19.623-71.046-43.304"/>
<path d="m398 492l38.565-22.329c10.152 16.578 23.346 28.758 46.688 28.758 19.625 0 32.14-9.812 32.14-23.345 0-16.239-12.855-22-34.508-31.462l-11.839-5.077c-34.172-14.546-56.84-32.814-56.84-71.383 0-35.523 27.065-62.589 69.356-62.589 30.11 0 51.762 10.489 67.323 37.893l-36.877 23.681c-8.12-14.546-16.914-20.297-30.446-20.297-13.871 0-22.668 8.796-22.668 20.297 0 14.21 8.797 19.962 29.094 28.759l11.84 5.074c40.261 17.255 62.929 34.846 62.929 74.427 0 42.63-33.493 65.973-78.488 65.973-43.981 0-72.4-20.975-86.269-48.38"/>
</g></svg>
