<svg xmlns="http://www.w3.org/2000/svg" viewBox="0 0 4587.575 1172.146" xmlns:xlink="http://www.w3.org/1999/xlink">
 <ellipse fill="#fedb2f" cx="2596.397" cy="121.797" rx="59.0185" ry="59.6515"/>
 <g fill="#0e1933">
  <path d="m1623.168 464.134h-173.803v333.606h178.473c121.294 0 183.131-76.98 183.131-167.978 0-78.139-55.996-165.628-187.801-165.628m155.139-213.457c0-76.981-53.662-155.136-158.634-155.136h-170.308v304.449h173.803c103.811 0 155.139-73.48 155.139-149.313m108.476 379.086c0 114.304-82.809 232.133-244.974 232.133h-352.247v-64.155h86.312v-702.199h-89.808v-64.156h344.116c143.452 0 223.941 110.82 223.941 219.291 0 71.146-33.827 139.967-107.312 176.135 90.975 31.484 139.972 116.646 139.972 202.951"/>
  <path d="m1988.128 350.99c78.154 0 103.812-3.488 156.304-20.982v89.808c36.146-51.332 88.648-89.808 150.484-89.808 57.14 0 82.798 38.476 82.798 74.613 0 30.342-18.642 59.514-52.48 59.514-22.158 0-43.151-15.176-43.151-44.319 0-17.493-3.511-25.677-16.34-25.677-29.168 0-62.984 28.012-87.483 64.158-19.834 30.342-33.827 68.836-33.827 163.297v176.147h87.473v64.155h-243.776v-64.155h83.979v-382.596h-83.979v-64.155z"/>
  <path d="m2475.092 861.896v-64.155h95.653v-382.596h-95.653v-64.155c93.33 0 137.65-8.156 166.819-20.996v467.747h87.489v64.155h-254.308z"/>
  <path d="m2985.164 882.883c-72.319 0-116.635-50.156-116.635-118.979v-348.759h-95.648v-64.155h95.648v-122.479l72.319-10.494v132.973h132.976v64.155h-132.976v340.603c0 41.993 23.328 62.98 52.475 62.98 31.493 0 55.997-40.822 68.825-76.985l61.832 26.828c-21.009 59.486-66.474 114.312-138.816 114.312"/>
  <path d="m3440.883 394.138c-64.155 0-130.629 44.341-151.645 134.129h291.608c-13.987-80.454-67.627-134.129-139.963-134.129m8.165 488.745c-165.622 0-242.628-141.141-242.628-276.439 0-141.137 83.989-276.437 235.634-276.437 93.302 0 157.457 52.497 190.125 127.135 17.521 41.989 24.504 85.146 25.652 135.305h-379.069l-1.17 12.826c0 118.977 72.313 213.455 171.456 213.455 69.989 0 125.986-44.319 155.133-138.792l65.325 12.823c-29.168 113.141-109.647 190.124-220.458 190.124"/>
  <path d="m3756.391 861.896v-64.155h93.324v-702.199h-93.324v-64.156c92.154 0 122.477-4.667 165.639-20.988v787.342h88.637v64.155h-254.276z"/>
  <path d="m4519.932 415.145l-208.795 568.073c-27.971 75.792-47.816 116.613-64.134 139.964-22.157 31.47-51.321 48.964-86.335 48.964-43.151 0-74.639-30.317-74.639-61.804 0-26.828 18.664-47.821 45.492-47.821 34.98 0 36.156 29.146 45.491 29.146 15.169 0 30.317-26.817 41.997-57.161 30.317-76.963 44.311-108.455 69.975-186.609l-165.622-432.752h-64.161v-64.155h202.949v64.155h-61.81l127.136 333.589 118.986-333.589h-60.666v-64.155h201.778v64.155h-67.642z"/>
 </g>
 <radialGradient id="f" gradientUnits="userSpaceOnUse" cy="438.46" cx="503.24" r="498.32">
  <stop stop-color="#fff" stop-opacity=".6" offset=".638"/>
  <stop stop-color="#fffaee" stop-opacity=".6385" offset=".6729"/>
  <stop stop-color="#fff2cd" stop-opacity=".7133" offset=".7406"/>
  <stop stop-color="#ffe698" stop-opacity=".8169" offset=".8343"/>
  <stop stop-color="#fed848" stop-opacity=".9441" offset=".9494"/>
  <stop stop-color="#fed208" offset="1"/>
 </radialGradient>
 <path id="b" d="m998.17 394.22c1.12 60.235-21.233 120.78-67.226 166.78-61.872 61.871-150.16 81.121-228.53 57.774-38.818 72.077-114.88 121.02-202.5 121.02-87.613 0-163.74-48.938-202.59-121.01-78.36 23.33-166.63 4.08-228.5-57.78-45.09-45.1-67.508-104.19-67.316-163.25-.983 12.75-1.504 25.65-1.504 38.65 0 276.15 223.85 500 499.99 500s500.01-223.85 500.01-500c0-14.21-.65-28.27-1.83-42.18z"/>
 <use xlink:href="#b" fill="#fff"/>
 <use xlink:href="#b" fill="url(#f)"/>
 <g id="l">
  <path fill="#4ec6f2" id="b" d="m69.091 235.52c15.505-15.5 32.537-28.412 50.821-38.626l306.03-174.1c-6.392 4.408-12.469 9.446-18.156 15.144-19.295 19.295-31.233 43.167-35.806 68.126l-93.45 340.15c-5.702 20.155-8.624 41.324-8.624 63.263 0 39.559 9.95 76.781 27.457 109.3-78.38 23.35-166.66 4.1-228.54-57.77-89.903-89.91-89.724-235.48.271-325.48z"/>
  <path fill="#0795c5" d="m278.52 446.21l93.457-340.15c-5.35 29.276-.585 60.029 14.325 86.645-.055-.014-.078-.023-.078-.023l113.66 199.62-66.96 117.6c-10.301 18.198-23.03 35.408-38.539 50.912-28.061 28.061-61.524 47.378-97.028 57.958-17.507-32.522-27.457-69.745-27.457-109.3.01-21.94 2.93-43.11 8.63-63.26z"/>
 </g>
 <use xlink:href="#l" transform="translate(1000)scale(-1 1)"/>
 <path fill="#0a529e" d="m499.89 392.31l113.66-199.62s-.022.009-.073.023c27.612-49.312 20.447-112.84-21.48-154.77-25.426-25.426-58.785-38.073-92.104-37.932-33.318-.142-66.678 12.505-92.104 37.932-41.933 41.928-49.088 105.46-21.48 154.77-.055-.014-.078-.023-.078-.023l113.65 199.62z"/>
 <path fill="#fedb2f" d="m605.38 560.82c-15.505-15.504-28.229-32.714-38.54-50.912l-66.956-117.6-66.96 117.59c-10.301 18.198-23.03 35.408-38.539 50.912-28.061 28.061-61.524 47.378-97.028 57.958-.014 0-.023 0-.032.01 38.855 72.072 114.98 121.01 202.59 121.01 87.618 0 163.68-48.942 202.5-121.02-35.49-10.58-68.97-29.89-97.03-57.95z"/>
</svg>
