<?xml version="1.0" encoding="utf-8"?>
<!-- Generator: Adobe Illustrator 15.0.2, SVG Export Plug-In . SVG Version: 6.00 Build 0)  -->
<!DOCTYPE svg PUBLIC "-//W3C//DTD SVG 1.1//EN" "http://www.w3.org/Graphics/SVG/1.1/DTD/svg11.dtd">
<svg version="1.1" id="Layer_1" xmlns="http://www.w3.org/2000/svg" xmlns:xlink="http://www.w3.org/1999/xlink" x="0px" y="0px"
	 width="4587.575px" height="1172.146px" viewBox="0 0 4587.575 1172.146" enable-background="new 0 0 4587.575 1172.146"
	 xml:space="preserve">
<path fill="#0E1933" d="M1623.168,464.134h-173.803v333.606h178.473c121.294,0,183.131-76.98,183.131-167.978
	C1810.969,551.623,1754.973,464.134,1623.168,464.134 M1778.307,250.677c0-76.981-53.662-155.136-158.634-155.136h-170.308V399.99
	h173.803C1726.979,399.99,1778.307,326.51,1778.307,250.677 M1886.783,629.763c0,114.304-82.809,232.133-244.974,232.133h-352.247
	v-64.155h86.312V95.542h-89.808V31.386h344.116c143.452,0,223.941,110.82,223.941,219.291c0,71.146-33.827,139.967-107.312,176.135
	C1837.786,458.296,1886.783,543.458,1886.783,629.763"/>
<path fill="#0E1933" d="M1988.128,350.99c78.154,0,103.812-3.488,156.304-20.982v89.808c36.146-51.332,88.648-89.808,150.484-89.808
	c57.14,0,82.798,38.476,82.798,74.613c0,30.342-18.642,59.514-52.48,59.514c-22.158,0-43.151-15.176-43.151-44.319
	c0-17.493-3.511-25.677-16.34-25.677c-29.168,0-62.984,28.012-87.483,64.158c-19.834,30.342-33.827,68.836-33.827,163.297v176.147
	h87.473v64.155h-243.776v-64.155h83.979V415.145h-83.979V350.99z"/>
<path fill="#0E1933" d="M2475.092,861.896v-64.155h95.653V415.145h-95.653V350.99c93.33,0,137.65-8.156,166.819-20.996v467.747
	h87.489v64.155H2475.092z"/>
<path fill="#0E1933" d="M2985.164,882.883c-72.319,0-116.635-50.156-116.635-118.979V415.145h-95.648V350.99h95.648V228.511
	l72.319-10.494V350.99h132.976v64.155h-132.976v340.603c0,41.993,23.328,62.98,52.475,62.98c31.493,0,55.997-40.822,68.825-76.985
	l61.832,26.828C3102.971,828.057,3057.506,882.883,2985.164,882.883"/>
<path fill="#0E1933" d="M3440.883,394.138c-64.155,0-130.629,44.341-151.645,134.129h291.608
	C3566.859,447.813,3513.219,394.138,3440.883,394.138 M3449.048,882.883c-165.622,0-242.628-141.141-242.628-276.439
	c0-141.137,83.989-276.437,235.634-276.437c93.302,0,157.457,52.497,190.125,127.135c17.521,41.989,24.504,85.146,25.652,135.305
	h-379.069l-1.17,12.826c0,118.977,72.313,213.455,171.456,213.455c69.989,0,125.986-44.319,155.133-138.792l65.325,12.823
	C3640.338,805.9,3559.859,882.883,3449.048,882.883"/>
<path fill="#0E1933" d="M3756.391,861.896v-64.155h93.324V95.542h-93.324V31.386c92.154,0,122.477-4.667,165.639-20.988v787.342
	h88.637v64.155H3756.391z"/>
<path fill="#0E1933" d="M4519.932,415.145l-208.795,568.073c-27.971,75.792-47.816,116.613-64.134,139.964
	c-22.157,31.47-51.321,48.964-86.335,48.964c-43.151,0-74.639-30.317-74.639-61.804c0-26.828,18.664-47.821,45.492-47.821
	c34.98,0,36.156,29.146,45.491,29.146c15.169,0,30.317-26.817,41.997-57.161c30.317-76.963,44.311-108.455,69.975-186.609
	l-165.622-432.752h-64.161V350.99h202.949v64.155h-61.81l127.136,333.589l118.986-333.589h-60.666V350.99h201.778v64.155H4519.932z"
	/>
<path fill="#FEDB2F" d="M2596.425,181.448c-34.668,0-59.046-26.941-59.046-59.029c0-32.061,24.378-60.274,59.046-60.274
	c33.35,0,58.991,26.927,58.991,60.274C2655.416,155.796,2629.774,181.448,2596.425,181.448"/>
<g>
	
		<radialGradient id="SVGID_1_" cx="178.8232" cy="155.8003" r="177.0749" gradientTransform="matrix(2.813 0 0 2.813 0 8.852591e-04)" gradientUnits="userSpaceOnUse">
		<stop  offset="0.638" style="stop-color:#FFFFFF;stop-opacity:0.6"/>
		<stop  offset="0.6729" style="stop-color:#FFFAEE;stop-opacity:0.6385"/>
		<stop  offset="0.7406" style="stop-color:#FFF2CD;stop-opacity:0.7133"/>
		<stop  offset="0.8343" style="stop-color:#FFE698;stop-opacity:0.8169"/>
		<stop  offset="0.9494" style="stop-color:#FED848;stop-opacity:0.9441"/>
		<stop  offset="1" style="stop-color:#FED208"/>
	</radialGradient>
	<path fill="url(#SVGID_1_)" d="M997.756,394.053c1.115,60.21-21.229,120.734-67.2,166.709
		c-61.845,61.848-150.092,81.089-228.434,57.755c-38.803,72.045-114.836,120.965-202.419,120.965
		c-87.576,0-163.665-48.914-202.506-120.959c-78.333,23.316-166.561,4.082-228.403-57.761
		C23.72,515.683,1.312,456.621,1.505,397.581C0.521,410.333,0,423.216,0,436.22c0,276.032,223.756,499.792,499.777,499.792
		c276.032,0,499.809-223.76,499.809-499.792C999.586,422.013,998.932,407.958,997.756,394.053z"/>
	<g>
		<g>
			<path fill="#4EC6F2" d="M930.286,235.426c-15.499-15.499-32.522-28.405-50.796-38.613L573.589,22.78
				c6.385,4.406,12.469,9.444,18.153,15.131c19.287,19.29,31.215,43.151,35.78,68.105l93.423,340.006
				c5.703,20.147,8.617,41.306,8.617,63.235c0,39.544-9.934,76.751-27.44,109.26c78.342,23.334,166.589,4.093,228.434-57.755
				C1020.425,470.889,1020.244,325.381,930.286,235.426z"/>
			<path fill="#0795C5" d="M720.945,446.022l-93.423-340.006c5.356,29.256,0.588,60.002-14.31,86.604
				c0.053-0.011,0.071-0.022,0.071-0.022l-113.61,199.542l0,0l66.932,117.548c10.308,18.19,23.026,35.393,38.525,50.893
				c28.051,28.047,61.51,47.359,96.991,57.936c17.507-32.509,27.44-69.716,27.44-109.26
				C729.562,487.328,726.648,466.169,720.945,446.022z"/>
			<path fill="#FEDB2F" d="M605.131,560.582c-15.499-15.5-28.218-32.702-38.525-50.893l-66.932-117.548L432.74,509.689
				c-10.298,18.19-23.022,35.393-38.524,50.893c-28.048,28.047-61.499,47.359-96.986,57.936c-0.014,0-0.025,0-0.033,0.006
				c38.841,72.045,114.93,120.959,202.506,120.959c87.583,0,163.616-48.92,202.419-120.965
				C666.641,607.941,633.182,588.628,605.131,560.582z"/>
			<path fill="#0A529E" d="M499.674,392.141l113.61-199.542c0,0-0.019,0.011-0.071,0.022c27.6-49.291,20.441-112.795-21.471-154.71
				C566.328,12.5,532.984-0.142,499.674,0.001c-33.298-0.143-66.647,12.499-92.058,37.91
				c-41.918,41.915-49.074,105.419-21.479,154.71c-0.05-0.011-0.077-0.022-0.077-0.022L499.674,392.141L499.674,392.141z"/>
			<path fill="#4EC6F2" d="M69.063,235.426c15.499-15.499,32.52-28.405,50.802-38.613L425.761,22.78
				c-6.388,4.406-12.467,9.444-18.145,15.131c-19.293,19.29-31.224,43.151-35.792,68.105l-93.417,340.006
				c-5.703,20.147-8.619,41.306-8.619,63.235c0,39.544,9.938,76.751,27.442,109.26c-78.341,23.334-166.585,4.093-228.436-57.755
				C-21.077,470.889-20.896,325.381,69.063,235.426z"/>
			<path fill="#0795C5" d="M278.407,446.022l93.417-340.006c-5.352,29.256-0.588,60.002,14.312,86.604
				c-0.05-0.011-0.077-0.022-0.077-0.022l113.614,199.542l0,0L432.74,509.689c-10.298,18.19-23.022,35.393-38.524,50.893
				c-28.048,28.047-61.499,47.359-96.986,57.936c-17.504-32.509-27.442-69.716-27.442-109.26
				C269.788,487.328,272.704,466.169,278.407,446.022z"/>
		</g>
	</g>
</g>
</svg>
