<svg xmlns="http://www.w3.org/2000/svg" viewBox="-175 -184.5 350 369"
     xmlns:xlink="http://www.w3.org/1999/xlink" stroke-width=".2">
 <defs>
  <path id="a" d="m20.236-35.042c-6.036-7.075-12.847-13.246-20.233-18.459-7.386 5.214-14.198 11.384-20.233 18.46 6.561-1.212 13.322-1.852 20.233-1.852s13.673 0.639 20.233 1.851z"/>
  <path id="b" d="m20.236-35.042c9.145 1.689 17.895 4.503 26.103 8.293 1.386-15.171-0.396-30.391-5.089-44.69-14.73 3.086-28.802 9.152-41.247 17.938 7.386 5.213 14.197 11.384 20.233 18.459z"/>
  <path id="c" d="m41.25-71.439c-7.205-21.956-21.268-41.735-41.247-55.829-19.979 14.093-34.042 33.873-41.247 55.829 14.73 3.086 28.802 9.152 41.247 17.938 12.445-8.787 26.517-14.853 41.247-17.938z"/>
  <path id="d" d="m8.564-132.752c-2.966 1.712-5.816 3.547-8.562 5.484 19.979 14.093 34.042 33.873 41.247 55.829 22.617-4.738 46.778-2.449 68.973 7.807 0.304-3.345 0.468-6.731 0.468-10.156 0-27.459-10.003-52.579-26.558-71.925-25.031-4.665-51.787-0.768-75.568 12.961z"/>
  <path id="e" d="m0-127.268a111 111 0 0 1 84.13-18.446a111 111 0 0 0 -168.26 0a111 111 0 0 1 84.13 18.446z"/>
 </defs>

 <path fill="#37100D" stroke="#37100D" d="m40.469 .197c-2.23-6.288-5.058-12.463-8.513-18.448s-7.39-11.521-11.719-16.597c-6.561-1.212-13.322-1.851-20.233-1.851-6.912 0-13.673 0.639-20.233 1.852-4.33 5.075-8.264 10.611-11.72 16.596s-6.283 12.161-8.513 18.448c2.23 6.287 5.058 12.462 8.513 18.448s7.39 11.521 11.72 16.597c6.561 1.212 13.322 1.851 20.233 1.851s13.672-0.639 20.232-1.851c4.33-5.076 8.265-10.612 11.72-16.597s6.282-12.161 8.513-18.448z"/>

 <use xlink:href="#a" fill="#3C2315" stroke="#3C2315"/>
 <use xlink:href="#a" fill="#4B1A18" stroke="#4B1A18" transform="rotate(60)"/>
 <use xlink:href="#a" fill="#381317" stroke="#381317" transform="rotate(120)"/>
 <use xlink:href="#a" fill="#87170F" stroke="#87170F" transform="rotate(180)"/>
 <use xlink:href="#a" fill="#3F1514" stroke="#3F1514" transform="rotate(240)"/>
 <use xlink:href="#a" fill="#38231B" stroke="#38231B" transform="rotate(300)"/>

 <use xlink:href="#b" fill="#533928" stroke="#533928"/>
 <use xlink:href="#b" fill="#4D1E2B" stroke="#4D1E2B" transform="rotate(60)"/>
 <use xlink:href="#b" fill="#8A1A1B" stroke="#8A1A1B" transform="rotate(120)"/>
 <use xlink:href="#b" fill="#9D1E18" stroke="#9D1E18" transform="rotate(180)"/>
 <use xlink:href="#b" fill="#422E29" stroke="#422E29" transform="rotate(240)"/>
 <use xlink:href="#b" fill="#3F4B2B" stroke="#3F4B2B" transform="rotate(300)"/>

 <use xlink:href="#c" fill="#567A50" stroke="#567A50"/>
 <use xlink:href="#c" fill="#554145" stroke="#554145" transform="rotate(60)"/>
 <use xlink:href="#c" fill="#BF2A32" stroke="#BF2A32" transform="rotate(120)"/>
 <use xlink:href="#c" fill="#A12229" stroke="#A12229" transform="rotate(180)"/>
 <use xlink:href="#c" fill="#A34031" stroke="#A34031" transform="rotate(240)"/>
 <use xlink:href="#c" fill="#486443" stroke="#486443" transform="rotate(300)"/>

 <use xlink:href="#d" fill="#588B8D" stroke="#588B8D"/>
 <use xlink:href="#d" fill="#D25A51" stroke="#D25A51" transform="rotate(60)"/>
 <use xlink:href="#d" fill="#DE374C" stroke="#DE374C" transform="rotate(120)"/>
 <use xlink:href="#d" fill="#A84954" stroke="#A84954" transform="rotate(180)"/>
 <use xlink:href="#d" fill="#B48A4F" stroke="#B48A4F" transform="rotate(240)"/>
 <use xlink:href="#d" fill="#64A17C" stroke="#64A17C" transform="rotate(300)"/>

 <use xlink:href="#e" fill="#67B8D9"/>
 <use xlink:href="#e" fill="#DBC2A6" transform="rotate(60)"/>
 <use xlink:href="#e" fill="#F4777C" transform="rotate(120)"/>
 <use xlink:href="#e" fill="#E8779D" transform="rotate(180)"/>
 <use xlink:href="#e" fill="#B99E89" transform="rotate(240)"/>
 <use xlink:href="#e" fill="#F8DF92" transform="rotate(300)"/>

 <path id="l" fill="#fff" d="m31.25.5c0-11.09-2.953-21.475-8.087-30.477-8.178 2.085-15.075 7.397-19.28 14.482 2.275 4.865 3.552 10.277 3.552 15.995 0 20.865-16.985 37.855-37.858 37.855-20.875 0-37.857-16.99-37.857-37.855 0-20.88 16.98-37.862 37.858-37.862 1.567 0 3.107.099 4.617.29 5.088-7.648 11.663-14.213 19.325-19.268-7.365-3.12-15.46-4.842-23.942-4.842-34.005 0-61.675 27.665-61.675 61.68 0 34.007 27.67 61.662 61.675 61.662 34.007.003 61.672-27.652 61.672-61.66" path="M 31.25 0.5 c 0 -11.09 -2.953 -21.475 -8.087 -30.477 c -8.178 2.085 -15.075 7.397 -19.28 14.482 c 2.275 4.865 3.552 10.277 3.552 15.995 c 0 20.865 -16.985 37.855 -37.858 37.855 c -20.875 0 -37.857 -16.99 -37.857 -37.855 c 0 -20.88 16.98 -37.862 37.858 -37.862 c 1.567 0 3.107 0.099 4.617 0.29 c 5.088 -7.648 11.663 -14.213 19.325 -19.268 c -7.365 -3.12 -15.46 -4.842 -23.942 -4.842 c -34.005 0 -61.675 27.665 -61.675 61.68 c 0 34.007 27.67 61.662 61.675 61.662 c 34.007 0.003 61.672 -27.652 61.672 -61.66"/>
 <use xlink:href="#l" transform="rotate(180)translate(-.5 -1.1)"/>
</svg>
