<svg xmlns="http://www.w3.org/2000/svg" viewBox="0 0 1000 1054">
<path d="M498.957,1044.992C339.538,855.671,178.283,653.376,65.441,432.029
	c-48.53-95.196-93.828-224.238-43.354-327.706C79.04-12.429,228.332-20.916,331.535,30.017
	C442.824,84.938,563.297,174.7,634.318,277.561c75.722,109.663,122.944,261.748,58.032,387.554
	c-58.52,113.408-206.011,169.355-313.813,85.264c-103.311-80.586-132.403-230.356-91.456-350.088
	c19.956-58.35,54.492-110.767,97.989-154.219c4.468-4.468,58.334-49.17,58.334-49.17s12.705,17.939,18.799,26.792
	c-95.225,70.615-174.624,182.72-150.122,306.84c22.954,116.27,145.361,190.528,258.125,143.433
	c117.383-49.019,128.081-197.549,81.352-300.391c-53.427-117.578-150.019-193.11-253.495-264.678
	C313.6,50.485,207.868-3.186,110.104,59.401C7.702,124.953,26.339,260.164,67.423,358.439
	c88.203,210.981,243.325,400.538,384.805,577.379c17.827,22.28,34.922,45.986,54.365,66.89
	c-1.299-1.396,230.498-305.289,251.597-336.241c65.903-96.68,132.095-197.09,176.895-305.689
	c43.691-105.908,57.138-245.049-59.078-306.934c-50.381-26.831-105.312-27.222-157.793-5.796
	c-34.561,14.111-65.806,35.449-95.132,58.286c-7.275,5.669-46.748,36.167-46.748,36.167s-18.647-25.645-18.892-26.373
	c-1.382-4.15,59.419-46.47,64.526-50.181c28.515-20.728,58.901-39.321,92.07-51.621C784.958-11.98,858.693-1.77,919.846,42.565
	c107.807,78.169,90.083,225.181,44.106,334.639C914.45,495.037,841.847,603.703,769.416,708.376
	c-81.475,117.734-175.312,232.623-261.553,346.088C504.308,1051.926,498.957,1044.992,498.957,1044.992
	S505.524,1052.79,498.957,1044.992z"/>
</svg>
