<svg xmlns="http://www.w3.org/2000/svg" viewBox="0 0 10000 10545">
  <path d="m4990 10450c-1595-1893-3207-3916-4336-6130-485-952-938-2242-434-3277 570-1167 2062-1252 3094-743 1114 549 2319 1447 3029 2476 757 1096 1230 2617 581 3875-585 1134-2060 1694-3138 853-1033-806-1324-2304-915-3501 200-584 545-1108 980-1542 45-45 583-492 583-492s127 179 188 268c-952 706-1746 1827-1501 3068 230 1163 1454 1905 2581 1434 1174-490 1281-1975 814-3004-534-1176-1500-1931-2535-2647-845-583-1902-1120-2880-494-1024 656-838 2008-427 2990 882 2110 2433 4005 3848 5774 178 223 349 460 544 669-13-14 2305-3053 2516-3362 659-967 1321-1971 1769-3057 437-1059 571-2450-591-3069-504-268-1053-272-1578-58-346 141-658 355-951 583-73 57-468 362-468 362s-187-256-189-264c-14-42 594-465 645-502 285-207 589-393 921-516 709-263 1447-161 2058 282 1078 782 901 2252 441 3346-495 1178-1221 2265-1945 3312-815 1177-1753 2326-2616 3461-36-30-89-100-89-100s65 80 0 0z"/>
</svg>
