<svg xmlns="http://www.w3.org/2000/svg" viewBox="0 0 127.68555 126.87933">
  <path d="m60.71389 123.12963c-10.98297-11.6517-34.02821-41.2811-44.20659-56.83667-13.45969-20.57037-18.38402-35.18399-15.87947-47.12449 1.5152-7.22376 5.28232-11.95044 12.47423-15.65165 12.81419-6.59463 23.64092-4.21836 44.24071 9.71004 10.9829 7.42601 23.06523 19.24997 27.23518 26.65277 5.55661 9.8645 7.52277 17.39418 7.06848 27.06978-.33107 7.05093-.87977 9.38437-3.09595 13.166-6.23773 10.64389-13.50628 15.11696-24.70771 15.20516-6.49747.0512-8.2116-.33513-12.82355-2.8899-6.07973-3.36784-10.13783-8.04072-13.65538-15.72405-6.53493-14.27417-3.107-30.5994 9.22123-43.91536 6.28075-6.78396 8.96523-8.6041 10.47026-7.09907.66378.66378-1.15567 3.12193-5.43479 7.34264-10.91667 10.76763-14.94871 22.79264-11.31288 33.73908 2.90632 8.75012 8.11139 13.2989 18.38235 16.06459 8.28733 2.23154 19.71224-2.27396 24.20666-9.54609 2.82049-4.56364 3.97709-12.68671 2.76409-19.41278-2.26254-12.54564-12.44752-25.23799-29.55696-36.83335-22.56927-15.29558-35.24393-16.99918-46.36691-6.23217-3.9477 3.82136-4.83782 5.3805-5.46094 9.56552-2.62112 17.60391 12.48854 44.47851 49.97579 88.88876l10.03545 11.88876 4.32563-4.88876c7.7146-8.71892 24.37067-30.50031 32.76203-42.84338 10.65788-15.67695 16.81669-26.55987 19.39045-34.26384 2.55112-7.63621 2.79122-18.97517.50386-23.79542-2.65743-5.60012-12.79652-11.34298-20.20137-11.44223-5.1703-.0693-13.71939 3.41974-20.85398 8.51088-5.72249 4.08349-6.7471 4.49774-8.00739 3.23745s-.67674-1.98428 4.56049-5.65799c14.4415-10.13013 25.36025-12.19551 36.2364-6.85445 21.32888 10.47419 19.48527 32.04244-5.95955 69.72022-11.70173 17.3275-40.33973 54-42.16925 54-.34421 0-2.21649-1.6875-4.16062-3.75z"/>
</svg>
