<svg xmlns="http://www.w3.org/2000/svg" viewBox="0 0 2 2" fill="#1f1a17">
  <circle cx="1" cy="1" r="1"/>
  <circle cx="1" cy="1" r=".9" fill="#fff"/>
  <path d="M 0.6112627661690394 1.3120551838645422 V 0.47055313580061864 C 0.573867223194288 0.46814763355654004 0.5425207472766947 0.47065979078327996 0.5229481166747859 0.4763629497885637 C 0.5173761144725046 0.4642676982413458 0.5517118124717147 0.4454445350851654 0.6112627661690394 0.4273002164807891 V 0.2653143583549766 H 0.698732823503299 V 0.4053581157235387 C 1.0143595080034473 0.33993825541274036 1.6436109341535197 0.3366290683831393 1.6469402991528135 0.882172187263089 C 1.6492895913384624 1.2673263901900478 0.9668677737646038 1.2086560607414538 0.7689161259451216 1.3335202197669156 C 0.5537728479474681 1.4692444503376927 0.6503849668360655 1.756103115190264 0.6503849668360655 1.756103115190264 S 0.5203048026450436 1.4873181460481444 0.6112627661690394 1.3120537425809928 Z M 0.698732823503299 0.4839815746311035 V 1.2181570018996115 C 0.7912142237390931 1.155462608780876 0.9497712683006978 1.0796006491541106 0.9804158391296952 0.9345210470636729 C 1.0420018851988826 0.6429796519588484 0.8565980519611545 0.5219493071749978 0.698732823503299 0.4839815746311035 Z"/>
</svg>
