<svg xmlns="http://www.w3.org/2000/svg" viewBox="0 0 3152240 661378"
     xmlns:xlink="http://www.w3.org/1999/xlink" fill="#FFF">
  <defs>
    <path id="p" d="m0 150890h93645.7c25334.6 0 44862.2 1960.63 58433.1 5956.69 13645.7 3996.06 23901.6 9724.41 30689 17189 6858.27 7543.31 11535.4 16665.4 13948.8 27295.3 2409.45 10708.7 3618.11 27220.5 3618.11 49614.2v31137.8c0 22846.5-2338.58 39507.9-7011.81 49913.4-4751.97 10480.3-13421.3 18472.4-26011.8 24126-12594.5 5582.68-29031.5 8370.08-49311 8370.08h-24956.7v144012h-93043.3v-357614zm93043.3 61149.6v91003.9c2637.8 149.606 4901.57 228.346 6783.46 228.346 8598.43 0 14476.4-2114.17 17795.3-6259.84 3318.9-4220.47 4976.38-12968.5 4976.38-26161.4v-29405.5c0-12216.5-1885.83-20208.7-5732.28-23826.8-3842.52-3696.85-11759.8-5578.74-23822.8-5578.74z"/>
    <path id="r" d="m0 150890h65822.8c43881.9 0 73590.6 1657.48 89122 5051.18 15531.5 3393.7 28196.9 12063 38000 25937 9803.15 13948.8 14704.7 36118.1 14704.7 66653.5 0 27822.8-3468.5 46519.7-10405.5 56094.5-6862.2 9574.8-20507.9 15307.1-40866.1 17192.9 18397.6 4598.43 30838.6 10704.7 37169.3 18397.6 6259.84 7614.17 10255.9 14626 11763.8 21035.4 1582.68 6409.45 2338.58 24051.2 2338.58 52929.1v94322.8h-86334.6v-118827c0-19153.5-1582.68-30988.2-4598.43-35590.6-3015.75-4523.62-10933.1-6858.27-23673.2-6858.27v161276h-93043.3v-357614zm93043.3 61149.6v79543.3c10405.5 0 17716.5-1433.07 21940.9-4299.21 4220.47-2862.2 6330.71-12212.6 6330.71-27972.4v-19602.4c0-11385.8-2035.43-18775.6-6106.3-22318.9-4070.87-3543.31-11460.6-5350.39-22165.4-5350.39z"/>
    <path id="a" d="m0 150890l53232.3 357614h-95228.3l-4598.43-64315h-33401.6l-5503.94 64315h-96283.5l47271.7-357614h134512zm-49236.2 229965c-4748.03-40488.2-9421.26-90551.2-14173.2-150043-9425.2 68385.8-15307.1 118378-17641.7 150043h31815z"/>
    <path id="t" d="m0 150890v71551h-55190v286063h-92960v-286063h-55050v-71551"/>
  </defs>

  <!-- logo -->
  <circle cx="330689" cy="330689" r="330689" fill="#1F1A17"/>
  <circle cx="330689" cy="330689" r="298480"/>
  <path fill="#1F1A17" d="m202138 433882v-278276c-12366.1-795.276-22732.3 35.4331-29204.7 1921.26-1842.52-4e3 9511.81-10224.4 29204.7-16224.4v-53566.9h28925.2v46311c104374-21633.9 312461-22728.3 313563 157677 775.591 127366-224894 107965-290354 149256-71145.7 44881.9-39196.9 139744-39196.9 139744s-43015.7-88885.8-12937-146843zm28925.2-273835v242783c30582.7-20732.3 83015.7-45818.9 93149.6-93795.3 20366.1-96409.4-40944.9-136433-93149.6-148988z"/>

  <!-- PIRATPARTIET -->
  <use xlink:href="#p" transform="translate(789209)"/>
  <path d="m1104910 150890v357614h-93040v-357614"/>
  <use xlink:href="#r" transform="translate(1128750)"/>
  <use xlink:href="#a" transform="translate(1528520)"/>
  <use xlink:href="#t" transform="translate(1755560)"/>
  <use xlink:href="#p" transform="translate(1772380)"/>
  <use xlink:href="#a" transform="translate(2144410)"/>
  <use xlink:href="#r" transform="translate(2209110)"/>
  <use xlink:href="#t" transform="translate(2635570)"/>
  <path d="m2749960 150890v357614h-93040v-357614"/>
  <path d="m2778320 150890h155100v71551h-62050v67783h58050v68087h-58050v78642h68230v71551h-161280"/>
  <use xlink:href="#t" transform="translate(3152240)"/>
</svg>
