<?xml version="1.0" encoding="UTF-8"?>
<!DOCTYPE svg PUBLIC "-//W3C//DTD SVG 1.1//EN" "http://www.w3.org/Graphics/SVG/1.1/DTD/svg11.dtd">
<!-- Creator: CorelDRAW -->
<svg xmlns="http://www.w3.org/2000/svg" xml:space="preserve" width="3.15224in" height="0.661378in" style="shape-rendering:geometricPrecision; text-rendering:geometricPrecision; image-rendering:optimizeQuality; fill-rule:evenodd; clip-rule:evenodd"
viewBox="0 0 3.15224 0.661378"
 xmlns:xlink="http://www.w3.org/1999/xlink">
 <defs>
  <style type="text/css">
   <![CDATA[
    .fil0 {fill:#1F1A17;fill-rule:nonzero}
    .fil1 {fill:white;fill-rule:nonzero}
   ]]>
  </style>
 </defs>
 <g id="Layer_x0020_1">
  <metadata id="CorelCorpID_0Corel-Layer"/>
  <path class="fil0" d="M0.789209 0.15089l0.0936457 0c0.0253346,0 0.0448622,0.00196063 0.0584331,0.00595669 0.0136457,0.00399606 0.0239016,0.00972441 0.030689,0.017189 0.00685827,0.00754331 0.0115354,0.0166654 0.0139488,0.0272953 0.00240945,0.0107087 0.00361811,0.0272205 0.00361811,0.0496142l0 0.0311378c0,0.0228465 -0.00233858,0.0395079 -0.00701181,0.0499134 -0.00475197,0.0104803 -0.0134213,0.0184724 -0.0260118,0.024126 -0.0125945,0.00558268 -0.0290315,0.00837008 -0.049311,0.00837008l-0.0249567 0 0 0.144012 -0.0930433 0 0 -0.357614zm0.0930433 0.0611496l0 0.0910039c0.0026378,0.000149606 0.00490157,0.000228346 0.00678346,0.000228346 0.00859843,0 0.0144764,-0.00211417 0.0177953,-0.00625984 0.0033189,-0.00422047 0.00497638,-0.0129685 0.00497638,-0.0261614l0 -0.0294055c0,-0.0122165 -0.00188583,-0.0202087 -0.00573228,-0.0238268 -0.00384252,-0.00369685 -0.0117598,-0.00557874 -0.0238228,-0.00557874z"/>
  <polygon class="fil0" points="1.10491,0.15089 1.10491,0.508504 1.01187,0.508504 1.01187,0.15089 "/>
  <path class="fil0" d="M1.12875 0.15089l0.0658228 0c0.0438819,0 0.0735906,0.00165748 0.089122,0.00505118 0.0155315,0.0033937 0.0281969,0.012063 0.038,0.025937 0.00980315,0.0139488 0.0147047,0.0361181 0.0147047,0.0666535 0,0.0278228 -0.0034685,0.0465197 -0.0104055,0.0560945 -0.0068622,0.0095748 -0.0205079,0.0153071 -0.0408661,0.0171929 0.0183976,0.00459843 0.0308386,0.0107047 0.0371693,0.0183976 0.00625984,0.00761417 0.0102559,0.014626 0.0117638,0.0210354 0.00158268,0.00640945 0.00233858,0.0240512 0.00233858,0.0529291l0 0.0943228 -0.0863346 0 0 -0.118827c0,-0.0191535 -0.00158268,-0.0309882 -0.00459843,-0.0355906 -0.00301575,-0.00452362 -0.0109331,-0.00685827 -0.0236732,-0.00685827l0 0.161276 -0.0930433 0 0 -0.357614zm0.0930433 0.0611496l0 0.0795433c0.0104055,0 0.0177165,-0.00143307 0.0219409,-0.00429921 0.00422047,-0.0028622 0.00633071,-0.0122126 0.00633071,-0.0279724l0 -0.0196024c0,-0.0113858 -0.00203543,-0.0187756 -0.0061063,-0.0223189 -0.00407087,-0.00354331 -0.0114606,-0.00535039 -0.0221654,-0.00535039z"/>
  <path class="fil0" d="M1.52852 0.15089l0.0532323 0.357614 -0.0952283 0 -0.00459843 -0.064315 -0.0334016 0 -0.00550394 0.064315 -0.0962835 0 0.0472717 -0.357614 0.134512 0zm-0.0492362 0.229965c-0.00474803,-0.0404882 -0.00942126,-0.0905512 -0.0141732,-0.150043 -0.0094252,0.0683858 -0.0153071,0.118378 -0.0176417,0.150043l0.031815 0z"/>
  <polygon class="fil0" points="1.75556,0.15089 1.75556,0.222441 1.70037,0.222441 1.70037,0.508504 1.6074,0.508504 1.6074,0.222441 1.55236,0.222441 1.55236,0.15089 "/>
  <path class="fil0" d="M1.77238 0.15089l0.0936457 0c0.0253346,0 0.0448622,0.00196063 0.0584331,0.00595669 0.0136457,0.00399606 0.0239016,0.00972441 0.030689,0.017189 0.00685827,0.00754331 0.0115354,0.0166654 0.0139488,0.0272953 0.00240945,0.0107087 0.00361811,0.0272205 0.00361811,0.0496142l0 0.0311378c0,0.0228465 -0.00233858,0.0395079 -0.00701181,0.0499134 -0.00475197,0.0104803 -0.0134213,0.0184724 -0.0260118,0.024126 -0.0125945,0.00558268 -0.0290315,0.00837008 -0.049311,0.00837008l-0.0249567 0 0 0.144012 -0.0930433 0 0 -0.357614zm0.0930433 0.0611496l0 0.0910039c0.0026378,0.000149606 0.00490157,0.000228346 0.00678346,0.000228346 0.00859843,0 0.0144764,-0.00211417 0.0177953,-0.00625984 0.0033189,-0.00422047 0.00497638,-0.0129685 0.00497638,-0.0261614l0 -0.0294055c0,-0.0122165 -0.00188583,-0.0202087 -0.00573228,-0.0238268 -0.00384252,-0.00369685 -0.0117598,-0.00557874 -0.0238228,-0.00557874z"/>
  <path class="fil0" d="M2.14441 0.15089l0.0532323 0.357614 -0.0952283 0 -0.00459843 -0.064315 -0.0334016 0 -0.00550394 0.064315 -0.0962835 0 0.0472717 -0.357614 0.134512 0zm-0.0492362 0.229965c-0.00474803,-0.0404882 -0.00942126,-0.0905512 -0.0141732,-0.150043 -0.0094252,0.0683858 -0.0153071,0.118378 -0.0176417,0.150043l0.031815 0z"/>
  <path class="fil0" d="M2.20911 0.15089l0.0658228 0c0.0438819,0 0.0735906,0.00165748 0.089122,0.00505118 0.0155315,0.0033937 0.0281969,0.012063 0.038,0.025937 0.00980315,0.0139488 0.0147047,0.0361181 0.0147047,0.0666535 0,0.0278228 -0.0034685,0.0465197 -0.0104055,0.0560945 -0.0068622,0.0095748 -0.0205079,0.0153071 -0.0408661,0.0171929 0.0183976,0.00459843 0.0308386,0.0107047 0.0371693,0.0183976 0.00625984,0.00761417 0.0102559,0.014626 0.0117638,0.0210354 0.00158268,0.00640945 0.00233858,0.0240512 0.00233858,0.0529291l0 0.0943228 -0.0863346 0 0 -0.118827c0,-0.0191535 -0.00158268,-0.0309882 -0.00459843,-0.0355906 -0.00301575,-0.00452362 -0.0109331,-0.00685827 -0.0236732,-0.00685827l0 0.161276 -0.0930433 0 0 -0.357614zm0.0930433 0.0611496l0 0.0795433c0.0104055,0 0.0177165,-0.00143307 0.0219409,-0.00429921 0.00422047,-0.0028622 0.00633071,-0.0122126 0.00633071,-0.0279724l0 -0.0196024c0,-0.0113858 -0.00203543,-0.0187756 -0.0061063,-0.0223189 -0.00407087,-0.00354331 -0.0114606,-0.00535039 -0.0221654,-0.00535039z"/>
  <polygon class="fil0" points="2.63557,0.15089 2.63557,0.222441 2.58038,0.222441 2.58038,0.508504 2.48742,0.508504 2.48742,0.222441 2.43237,0.222441 2.43237,0.15089 "/>
  <polygon class="fil0" points="2.74996,0.15089 2.74996,0.508504 2.65692,0.508504 2.65692,0.15089 "/>
  <polygon class="fil0" points="2.77832,0.15089 2.93342,0.15089 2.93342,0.222441 2.87137,0.222441 2.87137,0.290224 2.92942,0.290224 2.92942,0.358311 2.87137,0.358311 2.87137,0.436953 2.9396,0.436953 2.9396,0.508504 2.77832,0.508504 "/>
  <polygon class="fil0" points="3.15224,0.15089 3.15224,0.222441 3.09704,0.222441 3.09704,0.508504 3.00408,0.508504 3.00408,0.222441 2.94904,0.222441 2.94904,0.15089 "/>
  <path class="fil0" d="M0.330689 0c-0.182634,0 -0.330689,0.148055 -0.330689,0.330689 0,0.182638 0.148055,0.330689 0.330689,0.330689 0.182634,0 0.330689,-0.148051 0.330689,-0.330689 0,-0.182634 -0.148055,-0.330689 -0.330689,-0.330689z"/>
  <path class="fil1" d="M0.330689 0.629169c-0.164846,0 -0.29848,-0.133634 -0.29848,-0.29848 0,-0.164846 0.133634,-0.29848 0.29848,-0.29848 0.164846,0 0.29848,0.133634 0.29848,0.29848 0,0.164846 -0.133634,0.29848 -0.29848,0.29848z"/>
  <path class="fil0" d="M0.202138 0.433882l0 -0.278276c-0.0123661,-0.000795276 -0.0227323,3.54331e-005 -0.0292047,0.00192126 -0.00184252,-0.004 0.00951181,-0.0102244 0.0292047,-0.0162244l0 -0.0535669c0,0 0.0289252,0 0.0289252,0l0 0.046311c0.104374,-0.0216339 0.312461,-0.0227283 0.313563,0.157677 0.000775591,0.127366 -0.224894,0.107965 -0.290354,0.149256 -0.0711457,0.0448819 -0.0391969,0.139744 -0.0391969,0.139744 0,0 -0.0430157,-0.0888858 -0.012937,-0.146843zm0.0289252 -0.273835l0 0.242783c0.0305827,-0.0207323 0.0830157,-0.0458189 0.0931496,-0.0937953 0.0203661,-0.0964094 -0.0409449,-0.136433 -0.0931496,-0.148988z"/>
 </g>
</svg>
