<svg viewBox="0.5 558.499 1000.093 770.584" xmlns="http://www.w3.org/2000/svg" xmlns:xlink="http://www.w3.org/1999/xlink">
 <title>Google Developers Logo</title>
 <path fill="#d43f36" d="m265.3 559.196c-30.631-.396-56.945 21.29-69.983 47.788-25.466 42.623-50.933 85.25-76.399 127.871 30.535 80.658 79.764 153.355 128.358 223.935 2.175-19.699 4.996-41.582 17.37-57.827 62.845-102.655 125.644-205.374 188.524-307.987 13.664-16.587-1.237-37.281-21.1-34.161-55.585-.211-111.182.306-166.77.381z"/>
 <path fill="#099e57" d="m544.035 570.114c5.537-12.66 21.521-10.075 32.705-11.023l158.885.423c25.532-.106 50.061 14.399 63.092 36.238l190.64 310.385c14.876 22.42 15.087 53.386 0 75.75-36.45 58.132-70.896 117.477-108.244 174.922-4.009-21.733-10.341-43.414-22.841-61.878-36.608-56.549-69.789-115.153-106.504-171.598l-200.085-323.045c-5.22-9.018-11.709-19.412-7.648-30.174z"/>
 <path fill="#4585f4" d="m118.918 734.908c44.262 78.56 85.072 159.236 135.594 234.083 65.491 107.187 130.966 214.438 196.496 321.559 19.531 26.885-6.373 38.635-31.789 38.532-52.724-.258-105.475.314-158.182-.491-28.573-1.574-51.971-21.252-64.319-46.039-62.502-101.771-125.404-203.312-187.654-305.226-13.729-23.857-10.474-54.055 6.346-75.306 34.502-55.704 69.005-111.408 103.508-167.112z"/>
 <path fill="#f7c542" d="m751.794 923.309c1.706 22.382-1.794 45.74-15.424 64.091-62.576 102.348-125.624 204.445-187.884 306.954-11.148 16.87 1.537 33.791 20.02 33.211l170.663.837c29.68-1.066 55.585-21.37 68.001-47.72 23.918-41.708 49.406-82.503 73.996-123.821-3.86-27.107-15.477-52.076-30.731-74.529-32.879-53.009-65.76-106.016-98.641-159.023z"/>
 <radialGradient id="a" gradientUnits="userSpaceOnUse" r="34.2452" cx="139.8398" cy="289.3594" gradientTransform="matrix(3.555 -2.6029 -3.9996 -5.4625 1543.9026 3122.5552)">
  <stop stop-color="#daac3c" offset="0"/>
  <stop stop-color="#f7c542" offset="1"/>
 </radialGradient>
 <path fill="url(#a)" d="m751.768 923.333c36.715 56.444 69.896 115.049 106.504 171.598 12.5 18.464 18.832 40.145 22.841 61.878l-9.429 15.771-163.447-128.675c8.599-15.192 25.648-51.151 34.247-66.345 9.653-16.299 9.864-35.868 9.284-54.227z"/>
 <radialGradient id="b" gradientUnits="userSpaceOnUse" cy="411.8037" cx="92.4712" gradientTransform="matrix(4.5328 5.4912 3.004 -2.4797 -1547.4047 1235.6663)" r="31.4077">
  <stop stop-color="#b63a32" offset="0"/>
  <stop stop-color="#d43f36" offset="1"/>
 </radialGradient>
 <path fill="url(#b)" d="m135.151 707.894c54.469 43.287 108.938 86.574 163.408 129.86-17.111 36.638-42.839 70.071-49.835 110.779-.37 7.582-2.49 8.4-5.995 1.083-35.456-55.649-70.098-109.134-105.371-164.897-8.86-15.455-13.999-32.659-18.44-49.811 5.41-9.004 10.822-18.01 16.233-27.014z"/>
</svg>
