<svg xmlns="http://www.w3.org/2000/svg" xmlns:xlink="http://www.w3.org/1999/xlink" xmlns:dc="http://purl.org/dc/elements/1.1/" xmlns:rdf="http://www.w3.org/1999/02/22-rdf-syntax-ns#" viewBox="0 0 196 195">
 <title>Google Developers Logo</title>
 <metadata><rdf:RDF>
  <cc:Work>
   <dc:format>image/svg+xml</dc:format>
   <dc:type rdf:resource="http://purl.org/dc/dcmitype/StillImage"/>
   <dc:title>Google Developers Logo</dc:title>
   <dc:language>en</dc:language>
   <cc:license rdf:resource="http://creativecommons.org/licenses/by/3.0/"/>
   <dc:creator>
    <cc:Agent>
     <dc:title>Misha M.-Kupriyanov aka @russenreaktor</dc:title>
    </cc:Agent>
   </dc:creator>
   <dc:source>https://plus.google.com/111395306401981598462/posts</dc:source>
   <dc:description>Google Developers Logo</dc:description>
   <dc:publisher>
    <cc:Agent>
     <dc:title>https://plus.google.com/104512463398531242371</dc:title>
    </cc:Agent>
   </dc:publisher>
   <dc:rights>
    <cc:Agent>
     <dc:title>The copyright of Google Developers logo belongs to Google</dc:title>
    </cc:Agent>
   </dc:rights>
  </cc:Work>
  <cc:License rdf:about="http://creativecommons.org/licenses/by/3.0/">
    <cc:permits rdf:resource="http://creativecommons.org/ns#Reproduction"/>
    <cc:permits rdf:resource="http://creativecommons.org/ns#Distribution"/>
    <cc:requires rdf:resource="http://creativecommons.org/ns#Notice"/>
    <cc:requires rdf:resource="http://creativecommons.org/ns#Attribution"/>
    <cc:permits rdf:resource="http://creativecommons.org/ns#DerivativeWorks"/>
  </cc:License>
 </rdf:RDF></metadata>
<defs>
  <radialGradient id="a" gradientUnits="userSpaceOnUse" cy="138.30658" cx="172.10435" gradientTransform="matrix(1.2423376 -.90962141 1.3977013 1.9089444 -236.9888 33.874624)" r="18.57762">
   <stop stop-color="#daac3c" offset="0"/>
   <stop stop-color="#f7c542" offset="1"/>
  </radialGradient>
  <radialGradient id="b" gradientUnits="userSpaceOnUse" cy="60.374653" cx="23.234268" gradientTransform="matrix(1.5840316 1.918961 -1.0497911 .86656392 49.811229 -41.936584)" r="17.037645">
   <stop stop-color="#b63a32" offset="0"/>
   <stop stop-color="#d43f36" offset="1"/>
  </radialGradient>
 </defs>
 <path d="m52.9 24.050003c-5.80681-0.07483-10.795284 4.03592-13.266866 9.059561-4.827712 8.080147-9.655423 16.160293-14.483134 24.240439 5.788694 15.290409 15.121098 29.071593 24.333119 42.451289 0.412326-3.73432 0.94692-7.882665 3.292651-10.962185 11.913762-19.46061 23.81886-38.932991 35.738878-58.385295 2.59024-3.144631-0.23464-7.067487-3.999864-6.475859-10.537244-0.040222-21.076869 0.057953-31.614784 0.07205z" fill="#d43f36"/>
 <path d="m105.74 26.119997c1.05-2.4 4.08-1.91 6.2-2.09l30.12 0.08c4.84-0.02 9.49 2.73 11.96 6.87l36.14 58.84c2.82 4.25 2.86 10.12 0 14.360003-6.91 11.02-13.44 22.27-20.52 33.16-0.76-4.12-1.96-8.23-4.33-11.73-6.94-10.72-13.23-21.83-20.19-32.530003l-37.93-61.24c-0.99-1.71-2.22-3.68-1.45-5.72z" fill="#099e57"/>
 <path d="m25.15 57.36c8.390914 14.892862 16.127175 30.186659 25.704838 44.37502 12.415109 20.31976 24.827567 40.65129 37.249849 60.95857 3.702791 5.09637-1.208156 7.32382-6.026176 7.30443-9.995018-0.0487-19.99493 0.0598-29.986714-0.093-5.416631-0.29837-9.852362-4.02877-12.193008-8.72792-11.848587-19.29269-23.773038-38.54175-35.5737695-57.86202-2.6025753-4.522549-1.985509-10.247024 1.202866-14.275559 6.5407045-10.55984 13.0814095-21.119681 19.6221145-31.679521z" fill="#4585f4"/>
 <path d="m145.125 93.075003c0.32329 4.24312-0.34007 8.670987-2.92424 12.150077-11.86209 19.40191-23.81436 38.75681-35.61713 58.18951-2.11321 3.19822 0.29129 6.40562 3.79531 6.29566l32.35294 0.1588c5.62635-0.2025 10.53709-4.05122 12.89078-9.04635 4.53417-7.90658 9.36583-15.64014 14.02734-23.47266-0.73178-5.13908-2.93366-9.87246-5.82542-14.1286-6.2332-10.0488-12.46639-20.09762-18.69958-30.146437z" fill="#f7c542"/>
 <path d="m145.12 93.08c6.96 10.7 13.25 21.81 20.19 32.53 2.37 3.5 3.57 7.61 4.33 11.73l-1.78732 2.99002-30.98495-24.3932c1.63-2.88 4.86227-9.69682 6.49227-12.57682 1.83-3.09 1.87-6.8 1.76-10.28z" fill="url(#a)"/>
 <path d="m28.227303 52.23884c10.325847 8.205849 20.651695 16.411699 30.977542 24.617548-3.243729 6.945573-8.120974 13.283938-9.447322 21.000753-0.07021 1.437422-0.472002 1.592097-1.13649 0.205229-6.721469-10.549747-13.288581-20.688585-19.975271-31.259798-1.679612-2.929829-2.653733-6.191513-3.495762-9.442576 1.025768-1.707052 2.051535-3.414104 3.077303-5.121156z" fill="url(#b)"/>
</svg>
